<?xml version="1.0" ?>
<!DOCTYPE svg  PUBLIC '-//W3C//DTD SVG 1.1//EN'  'http://www.w3.org/Graphics/SVG/1.1/DTD/svg11.dtd'>
<!-- Uploaded to: SVG Repo, www.svgrepo.com, Generator: SVG Repo Mixer Tools -->
<svg width="800px" height="800px" viewBox="0 0 512 512" version="1.1" xml:space="preserve" xmlns="http://www.w3.org/2000/svg" xmlns:xlink="http://www.w3.org/1999/xlink">
<g id="_x36_75_x2C___flower_x2C__love_x2C__heart_x2C__wedding">
<g>
<path d="M261.328,390.576c-1.279,0-2.56-0.488-3.536-1.465c-1.952-1.953-1.952-5.119,0.001-7.072    l39.08-39.07c1.954-1.951,5.119-1.951,7.071,0.002s1.952,5.119-0.001,7.07l-39.08,39.07    C263.887,390.088,262.607,390.576,261.328,390.576z" style="fill:#743629;"/>
<path d="M255.398,419.166c-1.28,0-2.56-0.488-3.536-1.465l-39.07-39.08    c-1.952-1.953-1.952-5.119,0.001-7.072c1.953-1.951,5.119-1.951,7.071,0.002l39.07,39.08c1.952,1.953,1.952,5.119-0.001,7.07    C257.958,418.678,256.678,419.166,255.398,419.166z" style="fill:#743629;"/>
<path d="M344.448,218.416c-1.279,0-2.56-0.488-3.535-1.464c-1.953-1.953-1.953-5.119,0-7.071l39.08-39.08    c1.951-1.952,5.119-1.952,7.07,0c1.953,1.953,1.953,5.119,0,7.071l-39.08,39.08C347.008,217.928,345.728,218.416,344.448,218.416z    " style="fill:#743629;"/>
<path d="M398.818,329.646c10,0,18.12,8.109,18.12,18.119s-8.12,18.131-18.12,18.131    c-10.01,0-18.13-8.121-18.13-18.131S388.809,329.646,398.818,329.646z" style="fill:#EF3E5C;"/>
<path d="M401.985,340.813c6.182,0,11.638,3.104,14.909,7.834c0.014-0.295,0.044-0.584,0.044-0.881    c0-10.01-8.12-18.119-18.12-18.119c-10.01,0-18.13,8.109-18.13,18.119c0,3.822,1.19,7.363,3.211,10.289    C384.361,348.455,392.271,340.813,401.985,340.813z" style="fill:#E42A53;"/>
<path d="M343.578,303.336c1.08,5.85,1.16,11.561,0.19,16.84c-1.24,6.74-4.2,12.789-8.96,17.561    c-4.87,4.869-11.09,7.85-18.01,9.039c-5.16,0.891-10.71,0.781-16.391-0.27c-1.069-5.77-1.17-11.41-0.229-16.631    c1.22-6.83,4.18-12.959,9-17.77c4.71-4.709,10.67-7.65,17.31-8.92C331.839,302.166,337.639,302.227,343.578,303.336z" style="fill:#8EAA39;"/>
<path d="M302.138,342.375c1.22-6.83,4.18-12.959,9-17.77c4.71-4.709,10.67-7.65,17.31-8.92    c4.986-0.951,10.365-0.951,15.882-0.049c0.276-3.957,0.026-8.092-0.751-12.301c-5.939-1.109-11.739-1.17-17.09-0.15    c-6.64,1.27-12.6,4.211-17.31,8.92c-4.82,4.811-7.78,10.939-9,17.77c-0.94,5.221-0.84,10.861,0.229,16.631    c0.401,0.074,0.8,0.133,1.2,0.197C301.712,345.234,301.883,343.789,302.138,342.375z" style="fill:#7C912F;"/>
<path d="M311.969,376.566c4.51,2.439,8.56,5.75,11.979,9.719c-3.37,3.91-7.35,7.17-11.78,9.602    c-5.64,3.1-12.01,4.85-18.75,4.85c-6.89,0-13.39-1.83-19.13-5.061c-4.27-2.41-8.12-5.6-11.39-9.391    c3.32-3.859,7.24-7.09,11.59-9.51c5.69-3.16,12.12-4.939,18.93-4.939C300.078,371.836,306.368,373.535,311.969,376.566z" style="fill:#8EAA39;"/>
<path d="M311.969,376.566c-5.601-3.031-11.891-4.73-18.551-4.73c-6.81,0-13.239,1.779-18.93,4.939    c-4.35,2.42-8.27,5.65-11.59,9.51c0.211,0.246,0.432,0.48,0.647,0.721c1.649-1.277,3.381-2.432,5.192-3.439    c5.69-3.16,12.12-4.941,18.93-4.941c6.66,0,12.95,1.701,18.551,4.73c4.229,2.289,8.047,5.35,11.326,8.994    c2.314-1.785,4.463-3.813,6.403-6.064C320.528,382.316,316.479,379.006,311.969,376.566z" style="fill:#7C912F;"/>
<path d="M241.658,405.365c4.36,2.42,8.28,5.65,11.6,9.5c-3.27,3.801-7.12,6.99-11.4,9.4    c-5.74,3.23-12.24,5.051-19.13,5.051c-6.73,0-13.1-1.74-18.75-4.84c-4.42-2.432-8.4-5.701-11.77-9.611    c3.42-3.969,7.47-7.27,11.98-9.709c5.59-3.031,11.89-4.74,18.54-4.74C229.539,400.416,235.979,402.205,241.658,405.365z" style="fill:#8EAA39;"/>
<path d="M210.079,412.406c5.59-3.031,11.89-4.74,18.54-4.74c6.81,0,13.25,1.789,18.93,4.949    c1.695,0.941,3.321,2.008,4.874,3.182c0.281-0.309,0.563-0.613,0.836-0.932c-3.32-3.85-7.24-7.08-11.6-9.5    c-5.68-3.16-12.12-4.949-18.93-4.949c-6.65,0-12.95,1.709-18.54,4.74c-4.51,2.439-8.56,5.74-11.98,9.709    c2.031,2.357,4.288,4.477,6.725,6.324C202.172,417.635,205.927,414.652,210.079,412.406z" style="fill:#7C912F;"/>
<path d="M216.559,358.465c0.93,5.221,0.84,10.861-0.23,16.621c-5.69,1.061-11.24,1.16-16.39,0.279    c-6.93-1.199-13.14-4.17-18.01-9.049c-4.77-4.76-7.72-10.811-8.96-17.551c-0.98-5.289-0.9-11,0.19-16.84    c5.94-1.109,11.73-1.17,17.08-0.15c6.65,1.27,12.61,4.211,17.32,8.92C212.369,345.506,215.338,351.637,216.559,358.465z" style="fill:#8EAA39;"/>
<path d="M173.158,342.381c5.94-1.109,11.73-1.17,17.08-0.15c6.65,1.27,12.61,4.211,17.32,8.92    c4.81,4.811,7.78,10.941,9,17.77c0.135,0.76,0.242,1.531,0.334,2.307c0.487-4.412,0.386-8.713-0.334-12.762    c-1.22-6.828-4.19-12.959-9-17.77c-4.71-4.709-10.67-7.65-17.32-8.92c-5.35-1.02-11.14-0.959-17.08,0.15    c-0.918,4.918-1.11,9.742-0.565,14.303C172.734,344.953,172.917,343.672,173.158,342.381z" style="fill:#7C912F;"/>
<path d="M108.858,356.826c10.01,0,18.12,8.119,18.12,18.129s-8.11,18.121-18.12,18.121    c-10.01,0-18.13-8.111-18.13-18.121S98.849,356.826,108.858,356.826z" style="fill:#EF3E5C;"/>
<path d="M111.733,367.451c6.38,0,11.977,3.305,15.206,8.289c0.011-0.262,0.04-0.52,0.04-0.785    c0-10.01-8.11-18.129-18.12-18.129c-10.01,0-18.13,8.119-18.13,18.129c0,3.629,1.078,7,2.915,9.834    C94.062,375.148,101.991,367.451,111.733,367.451z" style="fill:#E42A53;"/>
<path d="M117.918,175.606c10.01,0,18.12,8.11,18.12,18.12c0,10.01-8.11,18.12-18.12,18.12    c-10.01,0-18.12-8.11-18.12-18.12C99.798,183.716,107.908,175.606,117.918,175.606z" style="fill:#EF3E5C;"/>
<path d="M121.978,187.772c5.656,0,10.703,2.591,14.025,6.649c0.009-0.233,0.035-0.461,0.035-0.696    c0-10.01-8.11-18.12-18.12-18.12c-10.01,0-18.12,8.11-18.12,18.12c0,4.354,1.537,8.347,4.095,11.471    C104.261,195.512,112.203,187.772,121.978,187.772z" style="fill:#E42A53;"/>
<path d="M395.089,204.406c4.5,2.44,8.56,5.74,11.97,9.71c-3.36,3.91-7.351,7.18-11.771,9.61    c-5.649,3.1-12.01,4.84-18.75,4.84c-6.89,0-13.39-1.82-19.13-5.05c-4.27-2.41-8.12-5.6-11.399-9.4c3.33-3.85,7.239-7.08,11.6-9.5    c5.69-3.17,12.12-4.95,18.93-4.95C383.198,199.666,389.488,201.376,395.089,204.406z" style="fill:#8EAA39;"/>
<path d="M395.089,204.406c-5.601-3.03-11.891-4.74-18.551-4.74c-6.81,0-13.239,1.78-18.93,4.95    c-4.36,2.42-8.27,5.65-11.6,9.5c0.219,0.254,0.447,0.498,0.671,0.746c0.876-0.579,1.768-1.131,2.684-1.639    c5.69-3.17,12.12-4.95,18.93-4.95c6.66,0,12.95,1.71,18.551,4.74c4.216,2.286,8.037,5.334,11.308,8.973    c3.287-2.174,6.29-4.825,8.907-7.87C403.648,210.146,399.589,206.846,395.089,204.406z" style="fill:#7C912F;"/>
<path d="M420.396,136.164c1.09,5.85,1.17,11.56,0.2,16.85c-1.25,6.74-4.2,12.79-8.971,17.55    c-4.869,4.87-11.079,7.85-18.01,9.05c-5.149,0.88-10.7,0.78-16.38-0.28c-1.08-5.77-1.17-11.4-0.24-16.62    c1.221-6.83,4.19-12.96,9-17.78c4.71-4.7,10.67-7.64,17.32-8.91C408.665,135.003,414.455,135.063,420.396,136.164z" style="fill:#8EAA39;"/>
<path d="M376.995,174.24c1.221-6.83,4.19-12.96,9-17.78c4.71-4.7,10.67-7.64,17.32-8.91    c5.35-1.02,11.14-0.96,17.08,0.14c0.211,1.13,0.372,2.253,0.507,3.372c0.627-4.732,0.45-9.761-0.507-14.898    c-5.94-1.1-11.73-1.16-17.08-0.14c-6.65,1.27-12.61,4.21-17.32,8.91c-4.81,4.82-7.779,10.95-9,17.78    c-0.749,4.205-0.825,8.677-0.266,13.273C376.807,175.4,376.893,174.816,376.995,174.24z" style="fill:#7C912F;"/>
<path d="M258.369,461.506c-2.762,0-5-2.238-5-5v-181.23c0-2.762,2.239-5,5-5c2.761,0,5,2.238,5,5v181.23    C263.369,459.268,261.13,461.506,258.369,461.506z" style="fill:#743629;"/>
<path d="M335.389,461.506h-199.35c-2.761,0-5-2.238-5-5s2.239-5,5-5h199.35c2.762,0,5,2.238,5,5    S338.15,461.506,335.389,461.506z" style="fill:#743629;"/>
<path d="M154.152,135.296c-2.448,0-4.587-1.799-4.943-4.293l-9.06-63.43    c-0.391-2.734,1.509-5.266,4.243-5.657c2.733-0.389,5.267,1.509,5.657,4.243l9.06,63.43c0.391,2.734-1.509,5.267-4.243,5.657    C154.625,135.28,154.387,135.296,154.152,135.296z" style="fill:#E5A423;"/>
<path d="M264.605,210.406c8.87,3.45,13.25,13.43,9.811,22.29c-3.45,8.86-13.421,13.25-22.291,9.8    c-8.86-3.44-13.25-13.42-9.8-22.28C245.765,211.356,255.745,206.966,264.605,210.406z" style="fill:#FFC230;"/>
<path d="M246.682,229.716c3.44-8.86,13.42-13.25,22.28-9.81c2.576,1.002,4.76,2.566,6.497,4.483    c-0.743-6.096-4.724-11.599-10.854-13.983c-8.86-3.44-18.84,0.95-22.28,9.81c-2.448,6.287-0.934,13.126,3.309,17.804    C245.303,235.295,245.616,232.453,246.682,229.716z" style="fill:#E5A423;"/>
<path d="M305.636,225.426c22.33,12.6,35.75,25.05,32.96,32.229s-21.101,7.29-46.07,1.49    c6.87,24.7,7.57,43.001,0.51,46.101c-7.05,3.1-20.069-9.77-33.64-31.521c-12.59,22.319-25.041,35.751-32.23,32.96    c-7.18-2.799-7.28-21.109-1.49-46.08c-24.7,6.88-42.99,7.57-46.1,0.52c-3.1-7.059,9.77-20.079,31.52-33.639    c-22.32-12.6-35.75-25.05-32.95-32.23c2.79-7.18,21.1-7.29,46.07-1.5c-6.88-24.69-7.57-42.99-0.51-46.09    c7.05-3.11,20.07,9.76,33.63,31.52c12.601-22.33,25.051-35.75,32.23-32.96c7.19,2.79,7.29,21.1,1.5,46.07    c24.7-6.87,42.99-7.56,46.09-0.51C340.266,198.836,327.396,211.866,305.636,225.426z M274.416,232.696    c3.439-8.86-0.94-18.84-9.811-22.29c-8.86-3.44-18.84,0.95-22.28,9.81c-3.45,8.86,0.94,18.84,9.8,22.28    C260.995,245.946,270.966,241.556,274.416,232.696z" style="fill:#EF3E5C;"/>
<g>
<g>
<g>
<path d="M190.808,214.185c-2.167-3.193-2.93-6.019-2.038-8.307c2.79-7.18,21.1-7.29,46.07-1.5       c-6.88-24.69-7.57-42.99-0.51-46.09c2.69-1.187,6.251-0.041,10.378,3.032c-8.627-10.471-16.201-15.773-21.003-13.654       c-7.06,3.1-6.37,21.4,0.51,46.09c-24.97-5.79-43.28-5.68-46.07,1.5C176.353,199.853,181.221,206.611,190.808,214.185z" style="fill:#E42A53;"/>
</g>
</g>
</g>
<path d="M146.954,78.089c-5.233,8.534-16.392,11.216-24.925,5.983c-8.534-5.233-11.202-16.395-5.969-24.928    c5.228-8.525,16.386-11.208,24.919-5.975C149.513,58.402,152.182,69.564,146.954,78.089z" style="fill:#FFC230;"/>
<path d="M114.302,70.676c5.228-8.525,16.386-11.208,24.919-5.975c4.591,2.815,7.466,7.352,8.345,12.266    c4.354-8.359,1.579-18.791-6.587-23.798c-8.534-5.233-19.692-2.55-24.919,5.975c-2.417,3.942-3.129,8.441-2.375,12.662    C113.882,71.426,114.075,71.046,114.302,70.676z" style="fill:#E5A423;"/>
</g>
</g>
<g id="Layer_1"/>
</svg>