<svg width="48" height="48" viewBox="0 0 48 48" fill="none" xmlns="http://www.w3.org/2000/svg">
<path d="M8.00195 6H40.002C41.1066 6 42.002 6.89544 42.002 8V40C42.002 41.1046 41.1066 42 40.002 42H8.00195C6.89737 42 6.00195 41.1046 6.00195 40V8C6.00195 6.89544 6.89737 6 8.00195 6ZM10.002 10V38H38.002V10H10.002ZM15.002 18C13.3451 18 12.002 16.6569 12.002 15C12.002 13.3431 13.3451 12 15.002 12C16.6588 12 18.002 13.3431 18.002 15C18.002 16.6569 16.6588 18 15.002 18ZM13.002 20H17.002V35H13.002V20ZM24.002 20.859C25.1708 19.7307 26.533 19 28.002 19C32.144 19 35.002 22.3578 35.002 26.5V35H31.002V26.5C31.002 24.567 29.435 23 27.502 23C25.569 23 24.002 24.567 24.002 26.5V35H20.002V20H24.002V20.859Z" fill="#AE7E74"/>
</svg>
