<svg width="68" height="64" viewBox="0 0 68 64" fill="none" xmlns="http://www.w3.org/2000/svg">
<path d="M21.858 22.3125C11.0742 20.0642 0.0602058 25.519 0.0602058 25.519C0.0602058 25.519 6.53005 34.6184 17.3138 36.8667C28.0976 39.115 39.1107 33.6605 39.1107 33.6605C39.1107 33.6605 32.6417 24.5607 21.858 22.3125Z" fill="#915347"/>
<path d="M41.5095 19.8542C40.3154 8.9035 31.724 0.114192 31.724 0.114192C31.724 0.114192 25.0692 9.07926 26.2633 20.03C27.4574 30.9807 36.0482 39.7693 36.0482 39.7693C36.0482 39.7693 42.7036 30.805 41.5095 19.8542Z" fill="#915347"/>
<path d="M41.6757 49.5065C49.0784 57.6639 61.1952 59.7247 61.1952 59.7247C61.1952 59.7247 61.3095 48.5602 53.9067 40.4028C46.504 32.2454 34.3881 30.1848 34.3881 30.1848C34.3881 30.1848 34.2729 41.349 41.6757 49.5065Z" fill="#915347"/>
<path d="M51.7851 32.5574C61.8309 28.0378 67.5351 17.1509 67.5351 17.1509C67.5351 17.1509 56.9524 13.5921 46.9066 18.1118C36.8609 22.6314 31.1571 33.5176 31.1571 33.5176C31.1571 33.5176 41.7394 37.077 51.7851 32.5574Z" fill="#915347"/>
<path d="M21.5482 41.9016C16.0776 51.4628 17.8619 63.6234 17.8619 63.6234C17.8619 63.6234 28.5153 60.2821 33.9859 50.7209C39.4566 41.1597 37.6723 29 37.6723 29C37.6723 29 27.0189 32.3404 21.5482 41.9016Z" fill="#915347"/>
<circle cx="35" cy="32" r="4" fill="#D9D9D9"/>
</svg>
