<svg width="1027" height="653" viewBox="0 0 1027 653" fill="none" xmlns="http://www.w3.org/2000/svg">
<g clip-path="url(#clip0_3_40)">
<path d="M648.108 637.586C648.194 641.683 647.629 645.767 646.433 649.686C646.391 649.828 646.341 649.971 646.291 650.113H621.64C621.992 648.378 622.552 646.691 623.306 645.089C625.357 640.735 628.706 637.009 632.014 633.308C636.569 628.208 641.014 623.151 641.714 616.52C643.519 619.272 644.96 622.247 646.001 625.37C644.727 625.842 643.558 626.559 642.56 627.48C642.284 627.74 641.991 628.116 642.133 628.48C642.267 628.78 642.633 628.88 642.962 628.949C643.749 629.1 644.536 629.249 645.323 629.393C645.943 629.519 646.571 629.636 647.199 629.753C647.749 632.33 648.051 634.955 648.099 637.59L648.108 637.586Z" fill="#A29572"/>
<path d="M668.814 634.872C664.862 637.272 662.35 640.993 660.298 645.154C658.513 645.561 656.865 646.427 655.517 647.666C655.232 647.926 654.939 648.302 655.09 648.666C655.216 648.966 655.59 649.066 655.919 649.135C656.698 649.286 657.493 649.435 658.272 649.579C658.196 649.755 658.121 649.939 658.046 650.115H631.922C633.108 648.516 634.421 647.015 635.849 645.627C636.159 645.317 636.477 645.027 636.804 644.727C640.133 641.718 643.955 639.305 648.104 637.593C654.641 634.857 661.791 633.917 668.814 634.872Z" fill="#A29572"/>
<path d="M636.276 650.112H613.015C612.888 648.249 612.899 646.38 613.048 644.519C613.552 638.759 615.298 633.176 618.168 628.156C621.037 623.135 624.961 618.797 629.669 615.439C628.463 619.739 629.083 624.005 630.339 628.292C630.163 628.351 629.987 628.401 629.828 628.468C628.554 628.94 627.385 629.657 626.387 630.578C626.111 630.838 625.818 631.214 625.96 631.578C626.086 631.878 626.46 631.978 626.789 632.047C627.576 632.198 628.363 632.347 629.142 632.491C629.77 632.617 630.398 632.734 631.026 632.859C631.319 632.909 631.612 632.968 631.905 633.026C631.947 633.126 631.972 633.219 632.014 633.311C633.632 637.303 634.915 641.423 635.849 645.628C636.035 646.672 636.164 647.726 636.234 648.785C636.259 649.225 636.276 649.668 636.276 650.112Z" fill="#A29572"/>
<path d="M363.251 628.394C363.402 635.496 362.423 642.577 360.351 649.372C360.278 649.619 360.191 649.866 360.104 650.112H317.362C317.973 647.104 318.943 644.179 320.251 641.402C323.808 633.853 329.615 627.393 335.351 620.976C343.251 612.135 350.957 603.366 352.177 591.869C355.307 596.641 357.806 601.799 359.61 607.214C357.401 608.032 355.374 609.275 353.643 610.873C353.164 611.323 352.656 611.973 352.903 612.601C353.135 613.124 353.774 613.301 354.34 613.414C355.705 613.675 357.069 613.937 358.434 614.183C359.508 614.401 360.597 614.604 361.686 614.807C362.643 619.276 363.168 623.826 363.254 628.395L363.251 628.394Z" fill="#A29572"/>
<path d="M399.153 623.694C392.301 627.861 387.946 634.306 384.389 641.521C381.294 642.226 378.437 643.728 376.1 645.876C375.606 646.326 375.1 646.976 375.36 647.604C375.578 648.127 376.231 648.304 376.797 648.417C378.147 648.678 379.526 648.94 380.876 649.186C380.745 649.486 380.615 649.81 380.484 650.115H335.189C337.245 647.342 339.522 644.74 341.998 642.334C342.535 641.797 343.087 641.289 343.653 640.766C349.427 635.548 356.057 631.364 363.253 628.397C374.587 623.659 386.981 622.035 399.153 623.694Z" fill="#A29572"/>
<path d="M342.738 650.111H302.412C302.192 646.881 302.211 643.638 302.47 640.411C303.343 630.423 306.372 620.744 311.347 612.04C316.322 603.335 323.125 595.813 331.287 589.992C329.196 597.439 330.271 604.843 332.448 612.276C332.148 612.376 331.838 612.465 331.563 612.576C329.354 613.394 327.327 614.637 325.596 616.234C325.117 616.684 324.609 617.334 324.856 617.962C325.074 618.485 325.727 618.662 326.293 618.775C327.658 619.036 329.022 619.298 330.372 619.544C331.461 619.762 332.55 619.965 333.638 620.183C334.146 620.27 334.654 620.372 335.162 620.473C335.235 620.647 335.278 620.807 335.351 620.967C337.906 628.008 340.693 635.107 342 642.322C342.323 644.133 342.546 645.96 342.668 647.795C342.712 648.572 342.738 649.342 342.738 650.111Z" fill="#A29572"/>
<path d="M442.732 116.535C431.598 98.121 418.405 78.459 397.743 72.446C373.816 65.483 349.236 79.316 328.387 92.966C266.036 133.788 205.991 178.027 148.527 225.481L148.59 226.196L282.804 216.94C315.127 214.711 348.561 212.174 377.126 196.883C387.965 191.083 398.531 183.33 410.814 182.79C426.074 182.119 439.38 192.777 449.837 203.912C511.692 269.781 529.591 370.508 598.986 428.381C555.228 320.465 502.979 216.189 442.732 116.535Z" fill="#927E65"/>
<path d="M808.294 650.112H802.168C748.845 580.835 698.673 509.284 651.652 435.459C618.814 383.952 587.607 331.447 558.03 277.946C556.288 274.796 554.551 271.641 552.818 268.481C540.579 246.153 528.626 223.675 516.959 201.048C506.626 181.014 496.526 160.864 486.659 140.598C483.843 134.806 481.099 128.998 478.37 123.163C471.939 109.463 465.638 95.682 458.859 82.163C452.021 68.502 443.859 54.275 432.249 44.011C430.757 42.6732 429.197 41.4132 427.575 40.236C425.736 38.8881 423.805 37.6705 421.797 36.592C421.597 36.476 421.391 36.374 421.187 36.258C416.281 33.641 410.88 32.0831 405.334 31.685C393.793 30.93 383.151 35.706 373.134 40.903C356.236 49.715 339.594 59.035 323.209 68.863C268.768 101.579 217.397 139.149 169.721 181.115L169.358 181.434C107.194 236.025 51.6311 297.702 3.80187 365.207C2.33587 367.298 -1.11913 365.294 0.361871 363.207C6.16854 354.976 12.0965 346.836 18.1459 338.789C63.259 278.757 114.602 223.671 171.317 174.452C177.661 168.935 184.078 163.496 190.567 158.135C222.423 131.761 255.787 107.262 290.49 84.764C301.117 77.8686 311.864 71.181 322.733 64.701C329.933 60.3896 337.182 56.165 344.48 52.027C353.713 46.801 362.99 41.633 372.426 36.798C381.673 32.036 391.487 27.768 402.056 27.609C409.67 27.4699 417.191 29.3 423.89 32.922C424.09 33.038 424.311 33.14 424.514 33.27C428.608 35.5616 432.41 38.3401 435.837 41.545C451.182 55.757 461.446 78.056 469.43 95.172C473.451 103.81 477.521 112.41 481.639 120.972C497.187 153.505 513.34 185.748 530.098 217.701C539.055 234.759 548.182 251.744 557.478 268.657C558.901 271.285 560.352 273.912 561.804 276.525C595.397 337.222 631.1 396.694 668.913 454.943C713.815 524.102 758.413 586.033 808.294 650.112Z" fill="#7F6C54"/>
<path d="M623.919 351.365L677.495 331.765L704.095 322.036C712.758 318.867 721.401 315.26 730.357 312.991C738.139 310.767 746.403 310.871 754.127 313.291C761.015 315.84 767.32 319.749 772.667 324.784C778.13 329.815 783.213 335.243 787.874 341.024C793.666 347.984 799.374 355.017 805.103 362.024C828.757 390.953 852.257 420.008 875.603 449.188C898.948 478.368 922.137 507.672 945.17 537.099C968.259 566.598 991.19 596.221 1013.96 625.968C1016.75 629.612 1019.54 633.258 1022.32 636.906C1023.86 638.921 1027.33 636.934 1025.77 634.891C1002.83 604.846 979.731 574.923 956.471 545.124C933.154 515.253 909.676 485.509 886.038 455.892C862.399 426.275 838.601 396.786 814.644 367.427C808.675 360.113 802.697 352.807 796.709 345.508C791.658 339.352 786.663 333.129 781.123 327.399C770.953 316.881 758.247 307.586 743.038 307.334C734.096 307.186 725.438 310.023 717.138 313.034C708.181 316.274 699.246 319.575 690.301 322.847L636.35 342.582L622.862 347.515C620.468 348.39 621.502 352.25 623.923 351.365H623.919Z" fill="#7F6C54"/>
<path d="M7.9639 136.614L2.7229 140.874C4.4959 139.383 6.3389 137.985 8.2319 136.662L7.9639 136.614Z" fill="#927E65"/>
<path d="M770.649 351.56C765.375 345.14 759.673 338.419 751.785 335.811L744.42 336.101C800.482 435.166 876.198 521.728 966.92 590.475L770.649 351.56Z" fill="#927E65"/>
<path d="M447.374 555.168L446.374 556.368L446.918 556.55L447.374 555.168Z" fill="#090814"/>
<path d="M863.782 77.524C885.189 77.524 902.544 60.1697 902.544 38.762C902.544 17.3543 885.189 0 863.782 0C842.374 0 825.02 17.3543 825.02 38.762C825.02 60.1697 842.374 77.524 863.782 77.524Z" fill="#DACCCC"/>
<path d="M950.535 20.409C949.442 16.8245 947.324 13.6379 944.443 11.2415C941.562 8.84518 938.043 7.34374 934.319 6.922C934.232 6.91475 934.145 6.91475 934.058 6.922C933.954 6.88928 933.847 6.86487 933.739 6.849C920.76 5.165 906.33 9.25897 896.618 18.173C893.012 21.4297 890.129 25.4058 888.154 29.845C886.353 27.3859 883.981 25.4027 881.241 24.0671C878.502 22.7315 875.478 22.0838 872.432 22.18C868.503 22.4398 864.75 23.9049 861.685 26.3756C858.619 28.8463 856.39 32.2022 855.302 35.986C855.182 36.448 855.215 36.9364 855.395 37.3784C855.575 37.8203 855.893 38.1923 856.302 38.439C857.469 39.4374 858.858 40.1438 860.352 40.5C863.56 41.182 866.798 41.807 870.035 42.373C876.364 43.4763 882.727 44.3717 889.125 45.059C893.349 45.509 897.583 45.867 901.825 46.133C910.594 46.685 919.405 46.815 928.189 46.539C932.544 46.394 936.725 46.249 940.703 44.332C943.601 42.9065 946.078 40.7499 947.889 38.075C949.594 35.5025 950.714 32.5877 951.172 29.5355C951.629 26.4834 951.411 23.3681 950.535 20.409Z" fill="#95BECC"/>
<path d="M870.791 76.88C870.717 75.2557 870.444 73.6466 869.978 72.089C868.88 68.5047 866.758 65.319 863.875 62.9232C860.992 60.5273 857.472 59.0255 853.747 58.602C853.665 58.5948 853.583 58.5948 853.501 58.602C853.391 58.5707 853.28 58.5463 853.167 58.529C845.984 57.6491 838.695 58.3983 831.841 60.721C821.301 64.249 812.054 71.362 807.597 81.521C805.795 79.0603 803.419 77.0762 800.677 75.7405C797.935 74.4049 794.908 73.7581 791.86 73.856C787.931 74.1158 784.178 75.5809 781.113 78.0516C778.047 80.5223 775.818 83.8783 774.73 87.662C774.617 88.1241 774.653 88.6101 774.832 89.0506C775.012 89.4911 775.326 89.8636 775.73 90.115C776.899 91.1107 778.287 91.8168 779.78 92.176C783.003 92.858 786.226 93.483 789.48 94.049C795.809 95.1523 802.168 96.0477 808.556 96.735C821.533 98.1282 834.591 98.6231 847.637 98.216C851.978 98.071 856.173 97.926 860.151 96.009C863.045 94.583 865.517 92.4263 867.323 89.752C869.868 85.9598 871.088 81.4325 870.793 76.875L870.791 76.88Z" fill="#95BECC"/>
<path d="M885.181 171.6C884.718 173.62 885.043 175.74 886.089 177.529C886.701 178.438 887.599 179.118 888.64 179.462C889.681 179.806 890.806 179.794 891.84 179.429C895.9 178.168 899.906 176.692 903.932 175.324C904.482 175.159 904.946 174.789 905.23 174.29C905.513 173.791 905.593 173.201 905.453 172.645C905.294 172.091 904.925 171.622 904.424 171.338C903.924 171.053 903.332 170.977 902.775 171.124L892.715 174.543C891.956 174.801 891.2 175.094 890.427 175.306C890.346 175.328 890.051 175.393 890.067 175.392C890.104 175.392 890.333 175.413 890.079 175.392C889.934 175.348 889.934 175.358 890.079 175.421L889.887 175.312C890.063 175.458 889.866 175.292 889.805 175.231C889.744 175.17 889.595 174.961 889.716 175.138C889.629 175.011 889.552 174.878 889.488 174.738C889.594 174.973 889.395 174.391 889.381 174.311C889.299 173.403 889.351 172.488 889.535 171.595C889.532 171.018 889.302 170.466 888.894 170.058C888.486 169.65 887.934 169.42 887.357 169.417C886.783 169.432 886.237 169.666 885.832 170.073C885.427 170.479 885.194 171.026 885.181 171.6Z" fill="#4C3A36"/>
<path d="M723.05 179.247L733.783 192.78C735.149 194.502 738.077 192.638 737.423 190.661C736.085 186.619 740.703 184.367 743.891 183.701C748.12 182.818 752.364 182.961 756.377 181.143C758.926 179.988 756.715 176.234 754.177 177.382C749.483 179.508 744.009 178.534 739.255 180.602C735.006 182.451 731.647 187.061 733.221 191.818L736.861 189.699L726.128 176.166C725.717 175.762 725.164 175.535 724.588 175.535C724.012 175.535 723.459 175.762 723.049 176.166C722.652 176.581 722.431 177.132 722.431 177.706C722.431 178.28 722.652 178.831 723.049 179.246L723.05 179.247Z" fill="#4C3A36"/>
<path d="M701.274 21.008L712.007 34.541C713.373 36.263 716.301 34.399 715.647 32.422C714.309 28.38 718.927 26.128 722.115 25.462C726.344 24.579 730.588 24.722 734.601 22.904C737.15 21.749 734.939 17.995 732.401 19.143C727.707 21.269 722.233 20.295 717.479 22.363C713.23 24.212 709.871 28.822 711.445 33.579L715.085 31.46L704.352 17.927C703.942 17.5222 703.388 17.2953 702.812 17.2953C702.236 17.2953 701.682 17.5222 701.272 17.927C700.875 18.3416 700.654 18.8932 700.654 19.467C700.654 20.0407 700.875 20.5924 701.272 21.007L701.274 21.008Z" fill="#4C3A36"/>
<path d="M649.883 583.404H648.416V422.904C648.417 422.25 648.272 421.604 647.991 421.014C647.71 420.423 647.301 419.903 646.793 419.491L647.72 418.354C648.397 418.903 648.942 419.597 649.317 420.384C649.691 421.171 649.884 422.032 649.883 422.904V583.404Z" fill="#4C3A36"/>
<path d="M500.465 171.519C500.844 172.385 501.127 173.291 501.308 174.219C500.898 172.802 500.575 171.842 500.465 171.519Z" fill="#4C3A36"/>
<path d="M513.477 216.358C513.288 217.949 512.921 219.513 512.384 221.022L513.477 216.358Z" fill="#4C3A36"/>
<path d="M647.386 369.13C618.542 384.164 580.809 397.145 569.508 400.908C578.125 398.664 603.208 395.642 642.069 419.888C690.898 450.346 743.108 430.038 743.108 430.038C743.108 430.038 731.508 452.282 706.849 453.726C682.19 455.17 617.896 414.57 596.149 426.173C574.402 437.776 564.239 423.273 555.534 452.282C546.829 481.291 530.878 560.565 549.251 605.045L567.615 649.518H463.196C463.196 649.518 500.907 548.963 480.115 487.088C468.478 452.435 452.4 406.382 457.878 408.769C457.878 408.769 432.737 384.113 424.524 384.113C416.311 384.113 377.624 380.248 365.061 367.194C365.061 367.194 347.174 354.624 315.261 385.565C283.348 416.506 291.089 416.507 262.567 414.086C234.493 411.702 212.499 398.086 211.817 397.658C212.631 397.988 245.417 411.094 265.464 404.42C285.771 397.651 303.175 372.026 321.064 363.328C338.953 354.63 349.585 343.02 373.758 355.591L357.829 318.034L353.465 307.745L353.458 307.73C353.458 307.73 348.134 237.149 337.984 232.316C327.834 227.483 334.119 214.916 315.264 212.493C315.264 212.493 338.464 209.593 342.817 225.547C347.17 241.501 377.147 327.554 377.147 327.554C377.147 327.554 395.511 364.289 415.818 355.591C436.125 346.893 408.081 298.064 408.081 298.064L373.278 282.106C373.278 282.106 399.387 281.138 415.338 296.128C431.289 311.118 432.257 359.456 432.257 359.456C432.257 359.456 472.381 365.256 482.057 387.017C482.057 387.017 514.927 367.194 513.483 396.199C513.483 396.199 542.488 368.646 540.552 359.456C538.616 350.266 536.203 328.514 517.832 315.467C499.461 302.42 487.374 281.621 500.432 251.648C507.773 234.787 510.985 225.73 512.394 221.029L504.771 253.582C504.771 253.582 499.938 286.939 513.478 298.541C513.515 298.57 513.544 298.6 513.578 298.629C527.094 310.246 544.894 331.419 544.894 331.419L544.843 330.488L556.978 363.329C556.978 363.329 628.53 360.908 644.478 329.482C660.426 298.056 673.491 296.612 673.491 296.612L664.305 323.682L654.155 346.882C654.155 346.882 695.731 347.85 717.483 372.507C739.235 397.164 793.383 404.417 793.383 404.417L762.933 412.631C762.933 412.631 733.92 402.965 706.367 385.078C678.814 367.191 681.708 351.242 647.386 369.13Z" fill="#4C3A36"/>
<path opacity="0.1" d="M662.799 303.169C659.741 316.707 656.14 329.784 651.08 339.75C635.129 371.176 563.58 373.596 563.58 373.596C563.58 373.596 563.917 369.445 564.431 362.896C582.597 361.396 632.254 355.012 645.213 329.483C646.401 327.151 647.501 324.643 648.543 322.002L662.799 303.169Z" fill="black"/>
<path opacity="0.1" d="M561.85 280.645C561.744 292.548 572.063 269.546 561.85 280.645V280.645Z" fill="black"/>
<path opacity="0.1" d="M520.074 395.831V406.467C520.074 406.467 549.08 378.911 547.147 369.726C545.668 362.701 543.898 348.326 534.934 336.115C538.974 345.345 540.204 354.348 541.28 359.459C542.667 366.046 528.144 382.078 519.816 390.623C520.108 392.343 520.194 394.091 520.074 395.831Z" fill="black"/>
<path opacity="0.1" d="M481.161 322.843C481.391 323.333 481.628 323.815 481.879 324.281C489.292 338.049 500.469 352.681 508.831 366.126C502.076 352.814 490.314 337.591 481.161 322.843Z" fill="black"/>
<path opacity="0.1" d="M642.801 419.887C626.901 409.967 613.301 404.614 602.201 401.902C590.553 406.286 580.966 409.555 576.143 411.16C584.794 408.92 609.858 405.946 648.669 430.154C679.12 449.148 710.884 448.399 730.483 445.145C735.903 441.054 740.445 435.916 743.84 430.035C743.84 430.035 691.633 450.343 642.801 419.887Z" fill="black"/>
<path opacity="0.1" d="M504.734 302.262C500.834 292.71 500.193 281.344 504.672 268.025C504.616 263.198 504.895 258.373 505.506 253.585L513.118 221.022C511.718 225.722 508.503 234.777 501.155 251.652C491.852 273.014 495.324 289.707 504.734 302.262Z" fill="black"/>
<path opacity="0.1" d="M718.217 372.511C703.13 355.411 678.517 349.711 664.84 347.817L660.754 357.156C660.754 357.156 702.329 358.123 724.084 382.778C736.148 396.45 758.17 404.769 775.398 409.469L794.117 404.418C794.117 404.418 739.973 397.166 718.217 372.511Z" fill="black"/>
<path opacity="0.1" d="M422.418 365.858C442.718 357.158 414.683 308.329 414.683 308.329L413.916 307.977C420.906 322.726 431.044 349.377 416.551 355.59C402.989 361.402 390.291 346.942 383.351 336.697L383.741 337.819C383.741 337.819 402.118 374.559 422.418 365.858Z" fill="black"/>
<path opacity="0.1" d="M513.118 221.021C513.654 219.513 514.02 217.949 514.208 216.36L513.118 221.021Z" fill="black"/>
<path opacity="0.1" d="M271.776 414.777C271.876 414.746 271.976 414.717 272.069 414.685C292.369 407.917 309.777 382.295 327.669 373.593C345.561 364.891 356.192 353.293 380.364 365.858C380.364 365.858 376.135 348.548 367.94 337.176C370.654 343.113 372.848 349.274 374.496 355.59C350.324 343.021 339.689 354.623 321.801 363.325C303.913 372.027 286.51 397.649 266.201 404.417C245.892 411.185 212.539 397.649 212.539 397.649C212.539 397.649 234.777 411.669 263.3 414.086C266.565 414.366 269.349 414.606 271.776 414.777Z" fill="black"/>
<path opacity="0.1" d="M360.06 317.997C360.06 317.997 359.268 318.012 357.831 318.034L353.467 307.745C353.944 307.738 354.193 307.73 354.193 307.73C354.193 307.73 350.834 263.213 344.366 242.466C344.447 242.503 344.513 242.547 344.586 242.583C354.735 247.417 360.06 317.997 360.06 317.997Z" fill="black"/>
<path opacity="0.1" d="M473.327 649.521C482.185 622.367 503.487 547.279 486.716 497.353C479.473 475.792 472.759 462.044 467.084 453.273C472.493 464.192 477.093 475.494 480.849 487.086C501.638 548.961 463.927 649.521 463.927 649.521H473.327Z" fill="black"/>
<path opacity="0.1" d="M333.606 227.621C334.157 228.55 334.825 229.404 335.594 230.163C335.029 229.243 334.363 228.39 333.606 227.621Z" fill="black"/>
<path opacity="0.1" d="M421.935 306.39C422.684 307.097 423.385 307.852 424.035 308.65C421.917 303.559 419.302 299.157 416.072 296.123C400.119 281.136 374.013 282.103 374.013 282.103L406.752 297.108C412.361 299.201 417.515 302.352 421.935 306.39Z" fill="black"/>
<path opacity="0.1" d="M502.032 174.182C501.838 173.226 501.544 172.294 501.154 171.4C501.154 171.4 501.526 172.444 502.032 174.182Z" fill="black"/>
<path opacity="0.1" d="M331.28 222.868C335.541 223.39 340.442 224.697 344.18 227.729C343.936 226.904 343.723 226.165 343.554 225.544C339.203 209.591 315.998 212.491 315.998 212.491C326.484 213.837 329.193 218.322 331.28 222.868Z" fill="black"/>
<path d="M787.172 624.682C779.962 635.739 781.938 649.802 781.938 649.802C781.938 649.802 795.603 645.938 802.813 634.881C810.023 623.824 808.047 609.762 808.047 609.762C808.047 609.762 794.382 613.625 787.172 624.682Z" fill="#4C3A36"/>
<path d="M792.588 626.636C792.018 639.823 782.229 650.111 782.229 650.111C782.229 650.111 773.364 639.017 773.929 625.83C774.494 612.643 784.288 602.355 784.288 602.355C784.288 602.355 793.158 613.449 792.588 626.636Z" fill="#8F996D"/>
<path d="M665.6 543.187C665.6 543.187 673.9 534.487 677.292 536.235C680.684 537.983 667.529 545.769 667.529 545.769L665.6 543.187Z" fill="#FFB9B9"/>
<path opacity="0.1" d="M665.6 543.187C665.6 543.187 673.9 534.487 677.292 536.235C680.684 537.983 667.529 545.769 667.529 545.769L665.6 543.187Z" fill="black"/>
<path d="M640.288 524.187C640.288 524.187 637.238 529.653 638.036 535.546C638.834 541.439 646.136 560.346 648.613 560.011C651.09 559.676 669.473 546.132 669.473 546.132L665.968 541.238L652.542 549.373C652.542 549.373 650.497 520.278 640.288 524.187Z" fill="#7B3839"/>
<path d="M690.071 537.494L669.144 548.99C669.022 549.07 668.885 549.122 668.741 549.144C668.597 549.165 668.451 549.155 668.311 549.114C668.172 549.073 668.043 549.002 667.934 548.906C667.825 548.81 667.738 548.691 667.679 548.558L662.544 537.841C662.447 537.535 662.462 537.205 662.588 536.91C662.714 536.615 662.942 536.375 663.23 536.234L680.608 527.277C680.822 527.148 681.076 527.103 681.321 527.15C681.567 527.197 681.786 527.332 681.938 527.531L690.618 535.709C690.703 535.861 690.757 536.029 690.776 536.203C690.794 536.377 690.777 536.553 690.726 536.719C690.674 536.886 690.589 537.041 690.476 537.174C690.363 537.307 690.224 537.416 690.068 537.494H690.071Z" fill="#090814"/>
<path d="M688.673 535.91L669.051 547.126L663.829 537.715L680.662 528.561L688.673 535.91Z" fill="#8F996D"/>
<path d="M672.213 532.669C672.315 532.547 672.313 532.377 672.209 532.29C672.105 532.203 671.937 532.232 671.835 532.354C671.733 532.477 671.734 532.647 671.839 532.734C671.943 532.821 672.111 532.792 672.213 532.669Z" fill="#927E65"/>
<path d="M679.436 542.245C679.505 542.163 679.504 542.05 679.434 541.992C679.365 541.934 679.253 541.953 679.185 542.035C679.116 542.117 679.117 542.23 679.187 542.288C679.256 542.346 679.368 542.327 679.436 542.245Z" fill="#927E65"/>
<path opacity="0.1" d="M640.288 524.187C640.288 524.187 637.238 529.653 638.036 535.546C638.834 541.439 646.136 560.346 648.613 560.011C651.09 559.676 669.473 546.132 669.473 546.132L665.968 541.238L652.542 549.373C652.542 549.373 650.497 520.278 640.288 524.187Z" fill="black"/>
<path d="M659.99 544.85C659.99 544.85 669.379 537.339 672.509 539.53C675.639 541.721 661.555 547.667 661.555 547.667L659.99 544.85Z" fill="#FFB9B9"/>
<path d="M647.471 514.8C652.483 514.8 656.547 510.737 656.547 505.724C656.547 500.711 652.483 496.648 647.471 496.648C642.458 496.648 638.395 500.711 638.395 505.724C638.395 510.737 642.458 514.8 647.471 514.8Z" fill="#FFB9B9"/>
<path d="M678.767 568.943C678.767 568.943 688.467 570.195 688.156 576.143C687.845 582.091 680.646 606.809 680.646 606.809L680.02 616.509C680.02 616.509 680.646 632.783 678.768 632.47C676.89 632.157 672.509 620.89 672.509 620.89C672.509 620.89 667.189 617.447 669.692 614.318C672.195 611.189 674.074 611.501 673.448 608.059C672.822 604.617 673.135 590.22 675.013 585.838C676.891 581.456 677.985 579.038 677.985 579.038L671.885 578.638L678.767 568.943Z" fill="#FFB9B9"/>
<path opacity="0.1" d="M678.767 568.943C678.767 568.943 688.467 570.195 688.156 576.143C687.845 582.091 680.646 606.809 680.646 606.809L680.02 616.509C680.02 616.509 680.646 632.783 678.768 632.47C676.89 632.157 672.509 620.89 672.509 620.89C672.509 620.89 667.189 617.447 669.692 614.318C672.195 611.189 674.074 611.501 673.448 608.059C672.822 604.617 673.135 590.22 675.013 585.838C676.891 581.456 677.985 579.038 677.985 579.038L671.885 578.638L678.767 568.943Z" fill="black"/>
<path d="M679.395 570.509C679.395 570.509 688.784 572.7 689.723 578.959C690.662 585.218 695.356 603.683 695.356 603.683L700.364 615.263C700.364 615.263 708.188 629.347 704.745 629.034C701.302 628.721 696.608 621.834 695.045 621.834C693.482 621.834 688.786 619.956 689.099 618.704C689.802 616.973 690.638 615.299 691.599 613.697L684.027 600.507C682.565 597.961 681.46 595.226 680.743 592.379C679.993 589.723 679.437 587.016 679.08 584.279C679.08 582.088 672.821 581.149 672.821 581.149L679.395 570.509Z" fill="#FFB9B9"/>
<path d="M648.724 550.478L653.106 562.997C653.106 562.997 659.991 564.875 664.999 566.44C670.007 568.005 679.399 565.814 680.334 569.57C681.269 573.326 678.456 579.898 675.639 581.463C672.822 583.028 671.257 584.593 662.181 582.089C653.105 579.585 631.51 578.959 631.51 578.959C629.417 580.215 627.059 580.965 624.625 581.15C620.556 581.463 619.618 581.776 618.366 580.837C617.114 579.898 618.992 579.898 619.618 577.394C620.244 574.89 620.557 575.829 623.374 573.012C626.191 570.195 628.382 561.745 629.946 558.929C631.51 556.113 632.446 550.479 632.446 550.479L648.724 550.478Z" fill="#090814"/>
<path d="M648.097 513.235C646.96 514.066 646.03 515.148 645.378 516.396C644.727 517.645 644.372 519.027 644.342 520.435C644.342 525.13 634.953 515.428 634.953 515.428C634.953 515.428 639.961 509.169 639.961 507.291C639.961 505.413 648.097 513.235 648.097 513.235Z" fill="#FFB9B9"/>
<path d="M636.206 511.358C636.206 511.358 641.839 513.549 643.091 516.678C644.343 519.807 649.037 526.378 649.037 526.378C649.037 526.378 655.609 533.263 653.419 540.778C651.229 548.293 649.35 550.167 649.35 551.419C649.35 552.671 646.22 554.862 643.717 554.549C641.214 554.236 631.824 552.984 631.198 551.732C630.572 550.48 626.816 532.641 629.32 526.069C631.351 521.047 633.649 516.137 636.205 511.36L636.206 511.358Z" fill="#944345"/>
<path d="M650.105 506.137C652.136 506.619 654.129 505.325 655.793 504.037C656.738 503.308 657.778 502.269 657.493 501.097C657.236 500.057 656.011 499.467 655.832 498.41C655.708 497.675 656.137 496.961 656.172 496.216C656.141 495.648 655.955 495.1 655.633 494.632C655.312 494.163 654.868 493.791 654.35 493.558C653.36 493.025 652.238 492.803 651.221 492.326C649.669 491.598 648.378 490.285 646.721 489.865C644.456 489.291 642.15 490.514 639.821 490.672C638.412 490.772 636.985 490.472 635.59 490.702C634.261 490.971 633.06 491.679 632.183 492.713C631.305 493.747 630.801 495.047 630.752 496.402C630.734 497.402 630.933 498.509 630.339 499.302C630.103 499.574 629.834 499.816 629.539 500.023C628.547 500.934 627.757 502.042 627.22 503.277C626.683 504.511 626.411 505.845 626.421 507.191C626.368 508.518 626.646 510.091 627.821 510.657C628.451 510.873 629.117 510.966 629.783 510.93C630.117 510.916 630.45 510.984 630.752 511.128C631.054 511.272 631.316 511.488 631.515 511.757C632.051 512.703 631.248 514.1 631.949 514.925C632.257 515.185 632.653 515.318 633.056 515.297C633.459 515.276 633.839 515.102 634.119 514.811C634.734 514.283 635.119 513.523 635.701 512.958C636.835 511.858 638.518 511.658 640.073 511.493C640.534 511.489 640.982 511.342 641.356 511.072C641.638 510.776 641.822 510.399 641.882 509.994C642.087 509.061 642.09 508.096 641.89 507.162C641.79 506.872 641.778 506.559 641.854 506.262C641.957 506.052 642.116 505.874 642.313 505.748C643.277 505.024 644.965 503.97 646.213 504.169C647.609 504.398 648.703 505.804 650.105 506.137Z" fill="#090814"/>
<path d="M637.458 522.625C637.458 522.625 633.703 527.633 633.703 533.579C633.703 539.525 638.398 559.242 640.903 559.242C643.408 559.242 663.437 548.288 663.437 548.288L660.62 542.968L646.22 549.227C646.22 549.227 648.099 520.121 637.458 522.625Z" fill="#944345"/>
<path d="M679.952 579.115H608.08V593.049H679.952V579.115Z" fill="#8F996D"/>
<path d="M644.017 593.783C642.461 593.781 640.97 593.162 639.87 592.063C638.77 590.963 638.152 589.471 638.15 587.916V422.904C638.15 421.795 638.464 420.708 639.057 419.77C639.65 418.832 640.496 418.081 641.498 417.605C642.5 417.129 643.616 416.946 644.718 417.079C645.819 417.211 646.861 417.654 647.721 418.354L646.794 419.491C646.149 418.966 645.368 418.634 644.541 418.535C643.715 418.435 642.878 418.572 642.126 418.929C641.375 419.287 640.74 419.85 640.296 420.553C639.852 421.257 639.616 422.072 639.616 422.904V587.916C639.617 589.083 640.081 590.201 640.906 591.026C641.731 591.851 642.849 592.315 644.016 592.316L644.017 593.783Z" fill="#4C3A36"/>
<path d="M632.927 501.629C633.243 501.375 632.882 500.402 632.121 499.454C631.361 498.507 630.488 497.945 630.172 498.198C629.857 498.451 630.218 499.425 630.978 500.372C631.739 501.32 632.612 501.882 632.927 501.629Z" fill="#8F996D"/>
<path d="M570.09 624.682C562.88 635.739 564.856 649.802 564.856 649.802C564.856 649.802 578.521 645.938 585.731 634.881C592.941 623.824 590.965 609.762 590.965 609.762C590.965 609.762 577.3 613.625 570.09 624.682Z" fill="#4C3A36"/>
<path d="M575.506 626.636C574.936 639.823 565.147 650.111 565.147 650.111C565.147 650.111 556.282 639.017 556.847 625.83C557.412 612.643 567.206 602.355 567.206 602.355C567.206 602.355 576.076 613.449 575.506 626.636Z" fill="#8F996D"/>
<path d="M451.436 628.864C454.883 641.606 466.689 649.497 466.689 649.497C466.689 649.497 472.907 636.73 469.46 623.988C466.013 611.246 454.207 603.355 454.207 603.355C454.207 603.355 447.989 616.123 451.436 628.864Z" fill="#4C3A36"/>
<path d="M456.501 626.125C465.959 635.332 467.115 649.486 467.115 649.486C467.115 649.486 452.935 648.712 443.477 639.504C434.019 630.296 432.863 616.143 432.863 616.143C432.863 616.143 447.043 616.918 456.501 626.125Z" fill="#8F996D"/>
<path d="M425.152 280.657C424.33 293.831 414.345 303.929 414.345 303.929C414.345 303.929 405.694 292.668 406.519 279.496C407.344 266.324 417.319 256.221 417.319 256.221C417.319 256.221 425.975 267.482 425.152 280.657Z" fill="#8F996D"/>
<path d="M296.137 357.981C307.303 365.021 311.375 378.625 311.375 378.625C311.375 378.625 297.344 380.816 286.175 373.776C275.006 366.736 270.936 353.132 270.936 353.132C270.936 353.132 284.971 350.944 296.137 357.981Z" fill="#8F996D"/>
<path d="M523.135 220.852C519.768 233.615 508.011 241.58 508.011 241.58C508.011 241.58 501.711 228.852 505.081 216.089C508.451 203.326 520.205 195.361 520.205 195.361C520.205 195.361 526.503 208.089 523.135 220.852Z" fill="#8F996D"/>
<path d="M744.163 370.952C736.994 382.035 723.343 385.952 723.343 385.952C723.343 385.952 721.316 371.897 728.485 360.813C735.654 349.729 749.305 345.813 749.305 345.813C749.305 345.813 751.332 359.869 744.163 370.952Z" fill="#8F996D"/>
<path d="M822.75 649.288H264.666V652.191H822.75V649.288Z" fill="#4C3A36"/>
</g>
<defs>
<clipPath id="clip0_3_40">
<rect width="1026.16" height="652.19" fill="white"/>
</clipPath>
</defs>
</svg>
