<svg width="598" height="479" viewBox="0 0 598 479" fill="none" xmlns="http://www.w3.org/2000/svg">
<path d="M303.948 0.119034C304.328 0.985245 304.61 1.89073 304.791 2.81903C304.381 1.40203 304.058 0.442034 303.948 0.119034Z" fill="#4C3A36"/>
<path d="M316.96 44.958C316.771 46.5486 316.404 48.113 315.867 49.622L316.96 44.958Z" fill="#4C3A36"/>
<path d="M450.869 197.73C422.025 212.764 384.292 225.745 372.991 229.508C381.608 227.264 406.691 224.242 445.552 248.488C494.381 278.946 546.591 258.638 546.591 258.638C546.591 258.638 534.991 280.882 510.332 282.326C485.673 283.77 421.379 243.17 399.632 254.773C377.885 266.376 367.722 251.873 359.017 280.882C350.312 309.891 334.361 389.165 352.734 433.645L371.098 478.118H266.679C266.679 478.118 304.39 377.563 283.598 315.688C271.961 281.035 255.883 234.982 261.361 237.369C261.361 237.369 236.22 212.713 228.007 212.713C219.794 212.713 181.107 208.848 168.544 195.794C168.544 195.794 150.657 183.224 118.744 214.165C86.8309 245.106 94.5719 245.107 66.0499 242.686C37.9759 240.302 15.9819 226.686 15.2999 226.258C16.1139 226.588 48.8999 239.694 68.9469 233.02C89.2539 226.251 106.658 200.626 124.547 191.928C142.436 183.23 153.068 171.62 177.241 184.191L161.312 146.634L156.948 136.345L156.941 136.33C156.941 136.33 151.617 65.749 141.467 60.916C131.317 56.083 137.602 43.516 118.747 41.093C118.747 41.093 141.947 38.193 146.3 54.147C150.653 70.101 180.63 156.154 180.63 156.154C180.63 156.154 198.994 192.889 219.301 184.191C239.608 175.493 211.564 126.664 211.564 126.664L176.761 110.706C176.761 110.706 202.87 109.738 218.821 124.728C234.772 139.718 235.74 188.056 235.74 188.056C235.74 188.056 275.864 193.856 285.54 215.617C285.54 215.617 318.41 195.794 316.966 224.799C316.966 224.799 345.971 197.246 344.035 188.056C342.099 178.866 339.686 157.114 321.315 144.067C302.944 131.02 290.857 110.221 303.915 80.248C311.256 63.387 314.468 54.33 315.877 49.629L308.254 82.1821C308.254 82.1821 303.421 115.539 316.961 127.141C316.998 127.17 317.027 127.2 317.061 127.229C330.577 138.846 348.377 160.019 348.377 160.019L348.326 159.088L360.461 191.929C360.461 191.929 432.013 189.508 447.961 158.082C463.909 126.656 476.974 125.212 476.974 125.212L467.788 152.282L457.638 175.482C457.638 175.482 499.214 176.45 520.966 201.107C542.718 225.764 596.866 233.017 596.866 233.017L566.416 241.231C566.416 241.231 537.403 231.565 509.85 213.678C482.297 195.791 485.191 179.842 450.869 197.73Z" fill="#4C3A36"/>
<path opacity="0.1" d="M466.282 131.769C463.224 145.307 459.623 158.384 454.563 168.35C438.612 199.776 367.063 202.196 367.063 202.196C367.063 202.196 367.4 198.045 367.914 191.496C386.08 189.996 435.737 183.612 448.696 158.083C449.884 155.751 450.984 153.243 452.026 150.602L466.282 131.769Z" fill="black"/>
<path d="M358.409 84C370.118 98.3999 380.894 112.992 387.189 126.554C407.045 169.316 350.38 246.764 350.38 246.764C350.38 246.764 346.292 242.982 339.829 237.034C353.284 216.64 387.663 159.005 371.534 124.266C370.064 121.088 368.337 117.858 366.421 114.579L358.409 84Z" fill="#4C3A36"/>
<path d="M156.3 296.893C165.605 280.834 175.421 265.58 185.865 254.88C218.792 221.137 311.312 246.615 311.312 246.615C311.312 246.615 309.228 251.779 305.962 259.933C282.119 254.594 216.033 242.916 189.283 270.327C186.834 272.83 184.428 275.592 182.043 278.547L156.3 296.893Z" fill="#4C3A36"/>
<path opacity="0.1" d="M365.333 109.245C375.546 98.146 365.227 121.148 365.333 109.245Z" fill="black"/>
<path opacity="0.1" d="M323.557 224.431V235.067C323.557 235.067 352.563 207.511 350.63 198.326C349.151 191.301 347.381 176.926 338.417 164.715C342.457 173.945 343.687 182.948 344.763 188.059C346.15 194.646 331.627 210.678 323.299 219.223C323.591 220.943 323.677 222.691 323.557 224.431Z" fill="black"/>
<path opacity="0.1" d="M284.644 151.443C284.874 151.933 285.111 152.415 285.362 152.881C292.775 166.649 303.952 181.281 312.314 194.726C305.559 181.414 293.797 166.191 284.644 151.443Z" fill="black"/>
<path opacity="0.1" d="M446.284 248.487C430.384 238.567 416.784 233.214 405.684 230.502C394.036 234.886 384.449 238.155 379.626 239.76C388.277 237.52 413.341 234.546 452.152 258.754C482.603 277.748 514.367 276.999 533.966 273.745C539.386 269.655 543.928 264.516 547.323 258.635C547.323 258.635 495.116 278.943 446.284 248.487Z" fill="black"/>
<path opacity="0.1" d="M308.217 130.862C304.317 121.31 303.676 109.944 308.155 96.625C308.099 91.7982 308.378 86.9733 308.989 82.185L316.601 49.622C315.201 54.322 311.986 63.377 304.638 80.252C295.335 101.614 298.807 118.307 308.217 130.862Z" fill="black"/>
<path opacity="0.1" d="M521.7 201.111C506.613 184.011 482 178.311 468.323 176.417L464.237 185.756C464.237 185.756 505.812 186.723 527.567 211.378C539.631 225.05 561.653 233.369 578.881 238.069L597.6 233.018C597.6 233.018 543.456 225.766 521.7 201.111Z" fill="black"/>
<path opacity="0.1" d="M225.901 194.458C246.201 185.758 218.166 136.929 218.166 136.929L217.399 136.577C224.389 151.326 234.527 177.977 220.034 184.19C206.472 190.002 193.774 175.542 186.834 165.297L187.224 166.419C187.224 166.419 205.601 203.159 225.901 194.458Z" fill="black"/>
<path opacity="0.1" d="M316.601 49.621C317.137 48.1129 317.503 46.5495 317.691 44.96L316.601 49.621Z" fill="black"/>
<path opacity="0.1" d="M75.2589 243.377C75.3589 243.346 75.4589 243.317 75.5519 243.285C95.8519 236.517 113.26 210.895 131.152 202.193C149.044 193.491 159.675 181.893 183.847 194.458C183.847 194.458 179.618 177.148 171.423 165.776C174.137 171.713 176.331 177.874 177.979 184.19C153.807 171.621 143.172 183.223 125.284 191.925C107.396 200.627 89.9929 226.249 69.6839 233.017C49.3749 239.785 16.0219 226.249 16.0219 226.249C16.0219 226.249 38.2599 240.269 66.7829 242.686C70.0479 242.966 72.8319 243.206 75.2589 243.377Z" fill="black"/>
<path opacity="0.1" d="M163.543 146.597C163.543 146.597 162.751 146.612 161.314 146.634L156.95 136.345C157.427 136.338 157.676 136.33 157.676 136.33C157.676 136.33 154.317 91.813 147.849 71.066C147.93 71.103 147.996 71.147 148.069 71.183C158.218 76.017 163.543 146.597 163.543 146.597Z" fill="black"/>
<path opacity="0.1" d="M276.81 478.121C285.668 450.967 306.97 375.879 290.199 325.953C282.956 304.392 276.242 290.644 270.567 281.873C275.976 292.792 280.576 304.094 284.332 315.686C305.121 377.561 267.41 478.121 267.41 478.121H276.81Z" fill="black"/>
<path opacity="0.1" d="M137.089 56.221C137.64 57.1497 138.308 58.004 139.077 58.763C138.513 57.8432 137.846 56.9904 137.089 56.221Z" fill="black"/>
<path opacity="0.1" d="M225.418 134.99C226.167 135.697 226.868 136.452 227.518 137.25C225.4 132.159 222.785 127.757 219.555 124.723C203.602 109.736 177.496 110.703 177.496 110.703L210.235 125.708C215.844 127.801 220.998 130.952 225.418 134.99Z" fill="black"/>
<path opacity="0.1" d="M305.515 2.78203C305.321 1.82635 305.027 0.893818 304.637 1.52588e-05C304.637 1.52588e-05 305.009 1.04403 305.515 2.78203Z" fill="black"/>
<path opacity="0.1" d="M134.763 51.468C139.024 51.99 143.925 53.297 147.663 56.329C147.419 55.504 147.206 54.765 147.037 54.144C142.686 38.191 119.481 41.091 119.481 41.091C129.967 42.437 132.676 46.922 134.763 51.468Z" fill="black"/>
<path d="M144.569 22.327C137.359 33.384 139.335 47.447 139.335 47.447C139.335 47.447 153 43.583 160.21 32.526C167.42 21.469 165.444 7.407 165.444 7.407C165.444 7.407 151.779 11.27 144.569 22.327Z" fill="#4C3A36"/>
<path d="M26.2458 221.663C32.5951 233.235 45.9276 238.126 45.9276 238.126C45.9276 238.126 48.9655 224.254 42.6162 212.681C36.267 201.108 22.9354 196.218 22.9354 196.218C22.9354 196.218 19.8966 210.09 26.2458 221.663Z" fill="#4C3A36"/>
<path d="M308.435 157.514C321.635 157.373 332.235 147.923 332.235 147.923C332.235 147.923 321.436 138.702 308.237 138.842C295.037 138.983 284.437 148.432 284.437 148.432C284.437 148.432 295.236 157.654 308.435 157.514Z" fill="#4C3A36"/>
<path d="M537.763 292.598C543.865 280.893 540.532 267.088 540.532 267.088C540.532 267.088 527.307 272.261 521.205 283.967C515.104 295.672 518.436 309.475 518.436 309.475C518.436 309.475 531.661 304.303 537.763 292.598Z" fill="#4C3A36"/>
<path d="M494.603 145.012C487.159 134.11 473.415 130.538 473.415 130.538C473.415 130.538 471.739 144.64 479.182 155.541C486.626 166.442 500.369 170.014 500.369 170.014C500.369 170.014 502.046 155.913 494.603 145.012Z" fill="#4C3A36"/>
<path d="M264.383 182.408C251.26 183.83 241.627 194.265 241.627 194.265C241.627 194.265 253.271 202.394 266.395 200.972C279.518 199.55 289.15 189.116 289.15 189.116C289.15 189.116 277.506 180.986 264.383 182.408Z" fill="#4C3A36"/>
<path d="M149.985 24.281C149.415 37.468 139.626 47.756 139.626 47.756C139.626 47.756 130.761 36.662 131.326 23.475C131.891 10.288 141.685 1.52588e-05 141.685 1.52588e-05C141.685 1.52588e-05 150.555 11.094 149.985 24.281Z" fill="#8F996D"/>
<path d="M30.5234 217.809C41.8826 224.531 46.3374 238.015 46.3374 238.015C46.3374 238.015 32.3736 240.6 21.012 233.882C9.65043 227.164 5.19803 213.675 5.19803 213.675C5.19803 213.675 19.1641 211.086 30.5234 217.809Z" fill="#8F996D"/>
<path d="M307.054 151.924C318.34 145.078 332.331 147.51 332.331 147.51C332.331 147.51 328.024 161.042 316.741 167.892C305.459 174.742 291.465 172.306 291.465 172.306C291.465 172.306 295.769 158.77 307.054 151.924Z" fill="#8F996D"/>
<path d="M532.183 291.179C531.469 277.999 540.212 266.809 540.212 266.809C540.212 266.809 550.113 276.989 550.832 290.169C551.551 303.348 542.803 314.539 542.803 314.539C542.803 314.539 532.897 304.359 532.183 291.179Z" fill="#8F996D"/>
<path d="M490.72 149.263C478.761 143.676 473.017 130.688 473.017 130.688C473.017 130.688 486.664 126.76 498.624 132.342C510.585 137.924 516.327 150.917 516.327 150.917C516.327 150.917 502.678 154.85 490.72 149.263Z" fill="#8F996D"/>
<path d="M266.301 187.837C255.734 195.747 241.572 194.686 241.572 194.686C241.572 194.686 244.545 180.8 255.108 172.886C265.672 164.972 279.836 166.037 279.836 166.037C279.836 166.037 276.867 179.927 266.301 187.837Z" fill="#8F996D"/>
<path d="M482.919 370.845C482.988 370.763 482.987 370.65 482.917 370.592C482.848 370.534 482.736 370.553 482.668 370.635C482.599 370.717 482.6 370.83 482.67 370.888C482.739 370.946 482.851 370.927 482.919 370.845Z" fill="#927E65"/>
<path d="M436.411 330.229C436.726 329.975 436.365 329.002 435.605 328.054C434.844 327.107 433.971 326.545 433.655 326.798C433.34 327.052 433.701 328.025 434.462 328.972C435.222 329.92 436.095 330.482 436.411 330.229Z" fill="#8F996D"/>
<path d="M373.573 453.282C366.363 464.339 368.339 478.402 368.339 478.402C368.339 478.402 382.004 474.538 389.214 463.481C396.424 452.424 394.448 438.362 394.448 438.362C394.448 438.362 380.783 442.225 373.573 453.282Z" fill="#4C3A36"/>
<path d="M388.714 90.1602C376.594 95.3902 370.469 108.202 370.469 108.202C370.469 108.202 383.993 112.534 396.112 107.304C408.232 102.074 414.357 89.263 414.357 89.263C414.357 89.263 400.834 84.9301 388.714 90.1602Z" fill="#4C3A36"/>
<path d="M186.056 283.322C173.065 280.982 160.879 288.275 160.879 288.275C160.879 288.275 169.756 299.359 182.747 301.699C195.738 304.038 207.923 296.747 207.923 296.747C207.923 296.747 199.047 285.661 186.056 283.322Z" fill="#4C3A36"/>
<path d="M378.989 455.236C378.419 468.423 368.63 478.711 368.63 478.711C368.63 478.711 359.765 467.617 360.33 454.43C360.895 441.243 370.689 430.955 370.689 430.955C370.689 430.955 379.559 442.049 378.989 455.236Z" fill="#8F996D"/>
<path d="M254.919 457.464C258.366 470.206 270.172 478.097 270.172 478.097C270.172 478.097 276.39 465.33 272.943 452.588C269.496 439.846 257.69 431.955 257.69 431.955C257.69 431.955 251.472 444.723 254.919 457.464Z" fill="#4C3A36"/>
<path d="M259.984 454.725C269.442 463.932 270.598 478.086 270.598 478.086C270.598 478.086 256.418 477.312 246.96 468.104C237.502 458.896 236.346 444.743 236.346 444.743C236.346 444.743 250.526 445.518 259.984 454.725Z" fill="#8F996D"/>
<path d="M356.938 454.982C366.396 464.189 367.552 478.343 367.552 478.343C367.552 478.343 353.372 477.569 343.914 468.361C334.456 459.153 333.3 445 333.3 445C333.3 445 347.48 445.775 356.938 454.982Z" fill="#8F996D"/>
<path d="M373.911 82.3831C376.705 95.2834 369.845 107.718 369.845 107.718C369.845 107.718 358.456 99.2362 355.662 86.3351C352.869 73.434 359.728 61 359.728 61C359.728 61 371.117 69.4828 373.911 82.3831Z" fill="#8F996D"/>
<path d="M178.018 268.659C173.216 280.954 160.627 287.527 160.627 287.527C160.627 287.527 155.823 274.163 160.625 261.867C165.427 249.572 178.015 243 178.015 243C178.015 243 182.819 256.364 178.018 268.659Z" fill="#8F996D"/>
<path d="M228.635 109.257C227.813 122.431 217.828 132.529 217.828 132.529C217.828 132.529 209.177 121.268 210.002 108.096C210.827 94.924 220.802 84.821 220.802 84.821C220.802 84.821 229.458 96.082 228.635 109.257Z" fill="#8F996D"/>
<path d="M99.6199 186.581C110.786 193.621 114.858 207.225 114.858 207.225C114.858 207.225 100.827 209.416 89.6579 202.376C78.4889 195.336 74.4189 181.732 74.4189 181.732C74.4189 181.732 88.4539 179.544 99.6199 186.581Z" fill="#8F996D"/>
<path d="M326.618 49.452C323.251 62.215 311.494 70.18 311.494 70.18C311.494 70.18 305.194 57.452 308.564 44.689C311.934 31.926 323.688 23.961 323.688 23.961C323.688 23.961 329.986 36.689 326.618 49.452Z" fill="#8F996D"/>
<path d="M547.646 199.552C540.477 210.635 526.826 214.552 526.826 214.552C526.826 214.552 524.799 200.497 531.968 189.413C539.137 178.329 552.788 174.413 552.788 174.413C552.788 174.413 554.815 188.469 547.646 199.552Z" fill="#8F996D"/>
</svg>
