<svg width="598" height="479" viewBox="0 0 598 479" fill="none" xmlns="http://www.w3.org/2000/svg">
<path d="M304.248 0.119019C304.628 0.98523 304.91 1.89072 305.091 2.81902C304.681 1.40202 304.358 0.442019 304.248 0.119019Z" fill="#4C3A36"/>
<path d="M317.26 44.958C317.071 46.5486 316.704 48.113 316.167 49.622L317.26 44.958Z" fill="#4C3A36"/>
<path d="M451.169 197.73C422.325 212.764 384.592 225.745 373.291 229.508C381.908 227.264 406.991 224.242 445.852 248.488C494.681 278.946 546.891 258.638 546.891 258.638C546.891 258.638 535.291 280.882 510.632 282.326C485.973 283.77 421.679 243.17 399.932 254.773C378.185 266.376 368.022 251.873 359.317 280.882C350.612 309.891 334.661 389.165 353.034 433.645L371.398 478.118H266.979C266.979 478.118 304.69 377.563 283.898 315.688C272.261 281.035 256.183 234.982 261.661 237.369C261.661 237.369 236.52 212.713 228.307 212.713C220.094 212.713 181.407 208.848 168.844 195.794C168.844 195.794 150.957 183.224 119.044 214.165C87.131 245.106 94.872 245.107 66.35 242.686C38.276 240.302 16.282 226.686 15.6 226.258C16.414 226.588 49.2 239.694 69.247 233.02C89.554 226.251 106.958 200.626 124.847 191.928C142.736 183.23 153.368 171.62 177.541 184.191L161.612 146.634L157.248 136.345L157.241 136.33C157.241 136.33 151.917 65.749 141.767 60.916C131.617 56.083 137.902 43.516 119.047 41.093C119.047 41.093 142.247 38.193 146.6 54.147C150.953 70.101 180.93 156.154 180.93 156.154C180.93 156.154 199.294 192.889 219.601 184.191C239.908 175.493 211.864 126.664 211.864 126.664L177.061 110.706C177.061 110.706 203.17 109.738 219.121 124.728C235.072 139.718 236.04 188.056 236.04 188.056C236.04 188.056 276.164 193.856 285.84 215.617C285.84 215.617 318.71 195.794 317.266 224.799C317.266 224.799 346.271 197.246 344.335 188.056C342.399 178.866 339.986 157.114 321.615 144.067C303.244 131.02 291.157 110.221 304.215 80.248C311.556 63.387 314.768 54.33 316.177 49.629L308.554 82.182C308.554 82.182 303.721 115.539 317.261 127.141C317.298 127.17 317.327 127.2 317.361 127.229C330.877 138.846 348.677 160.019 348.677 160.019L348.626 159.088L360.761 191.929C360.761 191.929 432.313 189.508 448.261 158.082C464.209 126.656 477.274 125.212 477.274 125.212L468.088 152.282L457.938 175.482C457.938 175.482 499.514 176.45 521.266 201.107C543.018 225.764 597.166 233.017 597.166 233.017L566.716 241.231C566.716 241.231 537.703 231.565 510.15 213.678C482.597 195.791 485.491 179.842 451.169 197.73Z" fill="#4C3A36"/>
<path opacity="0.1" d="M466.582 131.769C463.524 145.307 459.923 158.384 454.863 168.35C438.912 199.776 367.363 202.196 367.363 202.196C367.363 202.196 367.7 198.045 368.214 191.496C386.38 189.996 436.037 183.612 448.996 158.083C450.184 155.751 451.284 153.243 452.326 150.602L466.582 131.769Z" fill="black"/>
<path d="M358.709 84C370.418 98.3998 381.194 112.992 387.489 126.554C407.345 169.316 350.68 246.764 350.68 246.764C350.68 246.764 346.592 242.982 340.129 237.034C353.584 216.64 387.963 159.005 371.834 124.266C370.365 121.088 368.637 117.858 366.721 114.579L358.709 84Z" fill="#4C3A36"/>
<path d="M156.6 296.893C165.905 280.834 175.721 265.58 186.165 254.88C219.092 221.137 311.612 246.615 311.612 246.615C311.612 246.615 309.528 251.779 306.262 259.933C282.419 254.594 216.333 242.916 189.583 270.327C187.134 272.83 184.728 275.592 182.343 278.547L156.6 296.893Z" fill="#4C3A36"/>
<path opacity="0.1" d="M365.633 109.245C375.846 98.146 365.527 121.148 365.633 109.245Z" fill="black"/>
<path opacity="0.1" d="M323.857 224.431V235.067C323.857 235.067 352.863 207.511 350.93 198.326C349.451 191.301 347.681 176.926 338.717 164.715C342.757 173.945 343.987 182.948 345.063 188.059C346.45 194.646 331.927 210.678 323.599 219.223C323.891 220.943 323.977 222.691 323.857 224.431Z" fill="black"/>
<path opacity="0.1" d="M284.944 151.443C285.174 151.933 285.411 152.415 285.662 152.881C293.075 166.649 304.252 181.281 312.614 194.726C305.859 181.414 294.097 166.191 284.944 151.443Z" fill="black"/>
<path opacity="0.1" d="M446.584 248.487C430.684 238.567 417.084 233.214 405.984 230.502C394.336 234.886 384.749 238.155 379.926 239.76C388.577 237.52 413.641 234.546 452.452 258.754C482.903 277.748 514.667 276.999 534.266 273.745C539.686 269.655 544.229 264.516 547.623 258.635C547.623 258.635 495.416 278.943 446.584 248.487Z" fill="black"/>
<path opacity="0.1" d="M308.517 130.862C304.617 121.31 303.976 109.944 308.455 96.625C308.399 91.7982 308.678 86.9733 309.289 82.185L316.901 49.622C315.501 54.322 312.286 63.377 304.938 80.252C295.635 101.614 299.107 118.307 308.517 130.862Z" fill="black"/>
<path opacity="0.1" d="M522 201.111C506.913 184.011 482.3 178.311 468.623 176.417L464.537 185.756C464.537 185.756 506.112 186.723 527.867 211.378C539.931 225.05 561.953 233.369 579.181 238.069L597.9 233.018C597.9 233.018 543.756 225.766 522 201.111Z" fill="black"/>
<path opacity="0.1" d="M226.201 194.458C246.501 185.758 218.466 136.929 218.466 136.929L217.699 136.577C224.689 151.326 234.827 177.977 220.334 184.19C206.772 190.002 194.074 175.542 187.134 165.297L187.524 166.419C187.524 166.419 205.901 203.159 226.201 194.458Z" fill="black"/>
<path opacity="0.1" d="M316.901 49.621C317.437 48.1129 317.803 46.5495 317.991 44.96L316.901 49.621Z" fill="black"/>
<path opacity="0.1" d="M75.5589 243.377C75.6589 243.346 75.7589 243.317 75.8519 243.285C96.1519 236.517 113.56 210.895 131.452 202.193C149.344 193.491 159.975 181.893 184.147 194.458C184.147 194.458 179.918 177.148 171.723 165.776C174.437 171.713 176.631 177.874 178.279 184.19C154.107 171.621 143.472 183.223 125.584 191.925C107.696 200.627 90.2929 226.249 69.9839 233.017C49.6749 239.785 16.3219 226.249 16.3219 226.249C16.3219 226.249 38.5599 240.269 67.0829 242.686C70.3479 242.966 73.1319 243.206 75.5589 243.377Z" fill="black"/>
<path opacity="0.1" d="M163.843 146.597C163.843 146.597 163.051 146.612 161.614 146.634L157.25 136.345C157.727 136.338 157.976 136.33 157.976 136.33C157.976 136.33 154.617 91.813 148.149 71.066C148.23 71.103 148.296 71.147 148.369 71.183C158.518 76.017 163.843 146.597 163.843 146.597Z" fill="black"/>
<path opacity="0.1" d="M277.11 478.121C285.968 450.967 307.27 375.879 290.499 325.953C283.256 304.392 276.542 290.644 270.867 281.873C276.276 292.792 280.876 304.094 284.632 315.686C305.421 377.561 267.71 478.121 267.71 478.121H277.11Z" fill="black"/>
<path opacity="0.1" d="M137.389 56.221C137.94 57.1497 138.608 58.004 139.377 58.763C138.813 57.8432 138.146 56.9904 137.389 56.221Z" fill="black"/>
<path opacity="0.1" d="M225.718 134.99C226.467 135.697 227.168 136.452 227.818 137.25C225.7 132.159 223.085 127.757 219.855 124.723C203.902 109.736 177.796 110.703 177.796 110.703L210.535 125.708C216.143 127.801 221.298 130.952 225.718 134.99Z" fill="black"/>
<path opacity="0.1" d="M305.815 2.78201C305.621 1.82633 305.327 0.893802 304.937 0C304.937 0 305.309 1.04401 305.815 2.78201Z" fill="black"/>
<path opacity="0.1" d="M135.063 51.468C139.324 51.99 144.225 53.297 147.963 56.329C147.719 55.504 147.506 54.765 147.337 54.144C142.986 38.191 119.781 41.091 119.781 41.091C130.267 42.437 132.976 46.922 135.063 51.468Z" fill="black"/>
<path d="M144.869 22.327C137.659 33.384 139.635 47.447 139.635 47.447C139.635 47.447 153.3 43.5829 160.51 32.5259C167.72 21.4689 165.744 7.40698 165.744 7.40698C165.744 7.40698 152.079 11.27 144.869 22.327Z" fill="#4C3A36"/>
<path d="M26.5459 221.663C32.8951 233.235 46.2276 238.126 46.2276 238.126C46.2276 238.126 49.2656 224.254 42.9163 212.681C36.567 201.108 23.2354 196.218 23.2354 196.218C23.2354 196.218 20.1966 210.09 26.5459 221.663Z" fill="#4C3A36"/>
<path d="M308.735 157.513C321.934 157.373 332.535 147.923 332.535 147.923C332.535 147.923 321.736 138.702 308.536 138.842C295.337 138.982 284.737 148.432 284.737 148.432C284.737 148.432 295.536 157.654 308.735 157.513Z" fill="#4C3A36"/>
<path d="M538.063 292.598C544.165 280.893 540.832 267.088 540.832 267.088C540.832 267.088 527.607 272.261 521.505 283.967C515.404 295.672 518.736 309.475 518.736 309.475C518.736 309.475 531.961 304.303 538.063 292.598Z" fill="#4C3A36"/>
<path d="M494.903 145.012C487.459 134.11 473.715 130.538 473.715 130.538C473.715 130.538 472.039 144.64 479.482 155.541C486.926 166.442 500.669 170.014 500.669 170.014C500.669 170.014 502.346 155.913 494.903 145.012Z" fill="#4C3A36"/>
<path d="M264.683 182.408C251.56 183.83 241.927 194.265 241.927 194.265C241.927 194.265 253.571 202.394 266.695 200.972C279.818 199.55 289.45 189.116 289.45 189.116C289.45 189.116 277.806 180.986 264.683 182.408Z" fill="#4C3A36"/>
<path d="M150.285 24.281C149.715 37.468 139.926 47.756 139.926 47.756C139.926 47.756 131.061 36.662 131.626 23.475C132.191 10.288 141.985 0 141.985 0C141.985 0 150.855 11.094 150.285 24.281Z" fill="#8F996D"/>
<path d="M30.8234 217.809C42.1826 224.531 46.6374 238.015 46.6374 238.015C46.6374 238.015 32.6737 240.6 21.3121 233.882C9.95045 227.164 5.49805 213.675 5.49805 213.675C5.49805 213.675 19.4641 211.086 30.8234 217.809Z" fill="#8F996D"/>
<path d="M307.354 151.924C318.64 145.078 332.631 147.51 332.631 147.51C332.631 147.51 328.324 161.042 317.041 167.892C305.759 174.742 291.765 172.306 291.765 172.306C291.765 172.306 296.069 158.77 307.354 151.924Z" fill="#8F996D"/>
<path d="M532.483 291.179C531.769 277.999 540.512 266.809 540.512 266.809C540.512 266.809 550.413 276.989 551.132 290.169C551.851 303.348 543.102 314.539 543.102 314.539C543.102 314.539 533.197 304.359 532.483 291.179Z" fill="#8F996D"/>
<path d="M491.02 149.263C479.061 143.676 473.317 130.688 473.317 130.688C473.317 130.688 486.964 126.76 498.925 132.342C510.885 137.924 516.627 150.916 516.627 150.916C516.627 150.916 502.978 154.85 491.02 149.263Z" fill="#8F996D"/>
<path d="M266.601 187.837C256.034 195.747 241.872 194.686 241.872 194.686C241.872 194.686 244.845 180.8 255.408 172.886C265.972 164.972 280.136 166.037 280.136 166.037C280.136 166.037 277.167 179.927 266.601 187.837Z" fill="#8F996D"/>
<path d="M483.219 370.845C483.288 370.763 483.287 370.65 483.217 370.592C483.148 370.534 483.036 370.553 482.968 370.635C482.899 370.717 482.9 370.83 482.97 370.888C483.039 370.946 483.151 370.927 483.219 370.845Z" fill="#927E65"/>
<path d="M436.711 330.229C437.026 329.975 436.665 329.002 435.905 328.054C435.144 327.107 434.271 326.545 433.956 326.798C433.64 327.052 434.001 328.025 434.762 328.972C435.522 329.92 436.395 330.482 436.711 330.229Z" fill="#8F996D"/>
<path d="M373.873 453.282C366.663 464.339 368.639 478.402 368.639 478.402C368.639 478.402 382.304 474.538 389.514 463.481C396.724 452.424 394.748 438.362 394.748 438.362C394.748 438.362 381.083 442.225 373.873 453.282Z" fill="#4C3A36"/>
<path d="M389.014 90.1601C376.894 95.3902 370.769 108.202 370.769 108.202C370.769 108.202 384.293 112.534 396.412 107.304C408.532 102.074 414.657 89.263 414.657 89.263C414.657 89.263 401.134 84.9301 389.014 90.1601Z" fill="#4C3A36"/>
<path d="M186.356 283.322C173.365 280.982 161.179 288.275 161.179 288.275C161.179 288.275 170.056 299.359 183.047 301.699C196.038 304.038 208.223 296.746 208.223 296.746C208.223 296.746 199.347 285.661 186.356 283.322Z" fill="#4C3A36"/>
<path d="M208.018 157.059C195.917 162.331 189.836 175.165 189.836 175.165C189.836 175.165 203.375 179.45 215.476 174.178C227.578 168.906 233.658 156.073 233.658 156.073C233.658 156.073 220.12 151.787 208.018 157.059Z" fill="#4C3A36"/>
<path d="M435.838 220.9C423.417 225.369 416.51 237.777 416.51 237.777C416.51 237.777 429.739 242.939 442.16 238.47C454.58 234.001 461.487 221.593 461.487 221.593C461.487 221.593 448.258 216.431 435.838 220.9Z" fill="#4C3A36"/>
<path d="M379.289 455.236C378.719 468.423 368.93 478.711 368.93 478.711C368.93 478.711 360.065 467.617 360.63 454.43C361.195 441.243 370.989 430.955 370.989 430.955C370.989 430.955 379.859 442.049 379.289 455.236Z" fill="#8F996D"/>
<path d="M255.219 457.464C258.666 470.206 270.472 478.097 270.472 478.097C270.472 478.097 276.69 465.33 273.243 452.588C269.796 439.846 257.99 431.955 257.99 431.955C257.99 431.955 251.772 444.723 255.219 457.464Z" fill="#4C3A36"/>
<path d="M260.284 454.725C269.742 463.932 270.898 478.086 270.898 478.086C270.898 478.086 256.718 477.312 247.26 468.104C237.802 458.896 236.646 444.743 236.646 444.743C236.646 444.743 250.826 445.518 260.284 454.725Z" fill="#8F996D"/>
<path d="M357.238 454.982C366.696 464.189 367.852 478.343 367.852 478.343C367.852 478.343 353.672 477.569 344.214 468.361C334.756 459.153 333.6 445 333.6 445C333.6 445 347.78 445.775 357.238 454.982Z" fill="#8F996D"/>
<path d="M374.211 82.3831C377.005 95.2834 370.145 107.718 370.145 107.718C370.145 107.718 358.756 99.2362 355.962 86.3351C353.169 73.4339 360.028 61 360.028 61C360.028 61 371.417 69.4828 374.211 82.3831Z" fill="#8F996D"/>
<path d="M178.318 268.659C173.516 280.954 160.927 287.527 160.927 287.527C160.927 287.527 156.123 274.163 160.925 261.867C165.728 249.572 178.315 243 178.315 243C178.315 243 183.119 256.364 178.318 268.659Z" fill="#8F996D"/>
<path d="M193.188 149.334C196.027 162.224 189.211 174.683 189.211 174.683C189.211 174.683 177.792 166.24 174.954 153.349C172.116 140.458 178.931 128 178.931 128C178.931 128 190.35 136.443 193.188 149.334Z" fill="#8F996D"/>
<path d="M421.545 212.221C423.534 225.269 415.918 237.255 415.918 237.255C415.918 237.255 405.075 228.084 403.087 215.035C401.098 201.985 408.714 190 408.714 190C408.714 190 419.556 199.172 421.545 212.221Z" fill="#8F996D"/>
<path d="M228.935 109.257C228.113 122.431 218.128 132.529 218.128 132.529C218.128 132.529 209.477 121.268 210.302 108.096C211.127 94.924 221.102 84.821 221.102 84.821C221.102 84.821 229.758 96.082 228.935 109.257Z" fill="#8F996D"/>
<path d="M99.92 186.581C111.086 193.621 115.158 207.225 115.158 207.225C115.158 207.225 101.127 209.416 89.958 202.376C78.789 195.336 74.719 181.732 74.719 181.732C74.719 181.732 88.754 179.544 99.92 186.581Z" fill="#8F996D"/>
<path d="M326.918 49.452C323.551 62.215 311.794 70.18 311.794 70.18C311.794 70.18 305.494 57.452 308.864 44.689C312.234 31.926 323.988 23.961 323.988 23.961C323.988 23.961 330.286 36.689 326.918 49.452Z" fill="#8F996D"/>
<path d="M547.946 199.552C540.777 210.635 527.126 214.552 527.126 214.552C527.126 214.552 525.099 200.497 532.268 189.413C539.437 178.329 553.088 174.413 553.088 174.413C553.088 174.413 555.115 188.469 547.946 199.552Z" fill="#8F996D"/>
<path d="M293.412 405L291.412 405.033L293.563 478L295.563 477.967L293.412 405Z" fill="#745751"/>
<path d="M292.24 437C292.136 436.75 289.753 430.819 294.904 425L296.6 425.745C291.937 431.013 294.136 436.55 294.158 436.605L292.24 437Z" fill="#745751"/>
<path d="M295.649 425.515C295.649 425.515 294.107 417.281 308.314 415.021C311.274 414.55 314.056 414.228 316.607 414.014C319.618 413.761 320.793 416.98 318.073 418.02C314.134 419.526 310.428 421.424 308.497 423.671C303.17 429.867 295.649 425.515 295.649 425.515Z" fill="#7A8E4C"/>
<path d="M294.96 460L293.042 459.572C293.064 459.512 295.263 453.515 290.6 447.807L292.296 447C297.447 453.304 295.064 459.73 294.96 460Z" fill="#745751"/>
<path d="M291.551 447.629C291.551 447.629 293.093 440.028 278.886 437.942C275.926 437.508 273.143 437.211 270.593 437.013C267.582 436.779 266.407 439.751 269.127 440.711C273.066 442.101 276.772 443.853 278.703 445.927C284.03 451.647 291.551 447.629 291.551 447.629Z" fill="#7A8E4C"/>
<path d="M391.065 107.693C393.912 106.943 396.574 105.635 396.485 104.341C396.381 102.804 392.428 101.774 389.018 101.617C391.59 99.6052 393.953 96.8238 393.231 95.5659C392.566 94.4094 389.476 94.8574 386.624 95.876C388.312 93.4634 389.498 90.7449 388.595 89.8145C387.469 88.6556 383.475 90.6559 380.749 92.867C381.279 89.4224 381.011 85.0744 379.466 84.681C378.174 84.3519 376.342 86.8812 375.086 89.6364C374.531 86.745 373.407 84 372.11 84C370.263 84 368.765 89.5702 368.765 93.1991C368.765 93.4043 368.77 93.5974 368.78 93.7819C368.594 93.5669 368.382 93.3423 368.14 93.1069C365.536 90.5787 360.497 87.7724 359.21 89.0977C358.306 90.0281 359.493 92.7466 361.18 95.1592C358.329 94.1406 355.238 93.6927 354.574 94.8491C353.681 96.403 357.497 100.282 360.598 102.163C360.412 102.141 360.216 102.122 360.008 102.108C356.387 101.861 350.728 102.976 350.602 104.819C350.514 106.113 353.176 107.421 356.023 108.171C353.189 109.237 350.54 110.892 350.781 112.204C351.073 113.796 355.522 114.354 359.02 114.027C356.407 116.535 353.573 121.027 354.755 122.343C355.622 123.308 358.415 122.31 360.937 120.79C359.727 123.566 359.069 126.619 360.178 127.36C361.643 128.34 365.661 124.93 367.779 121.995C367.563 125.585 368.422 130.518 370.127 130.712C371.416 130.86 372.843 128.26 373.723 125.45C374.658 128.33 376.191 131.051 377.513 130.87C379.231 130.636 379.98 125.58 379.66 121.987C381.845 124.801 385.522 127.811 386.91 126.882C388.018 126.141 387.361 123.088 386.151 120.312C388.672 121.832 391.465 122.83 392.332 121.866C393.515 120.549 390.681 116.057 388.067 113.549C391.566 113.876 396.015 113.318 396.307 111.726C396.547 110.414 393.899 108.759 391.065 107.693ZM374.395 112.204C373.663 112.304 374.609 112.136 374.1 112.5C373.559 111.963 373.978 113.183 373.1 113.083C372.117 112.971 372.281 111.933 371.6 112.5C371.351 111.807 371.814 112.204 371.1 111.726C370.486 111.315 370.749 111.065 370.127 111C370.079 110.24 371.19 111.657 370.6 111C370.223 110.581 370.196 110.751 369.778 110.5C370.382 109.766 369.965 110.376 369.778 109.358C369.645 108.631 370.987 108.663 370.6 108.171C371.111 107.607 369.718 108.359 369.778 107.478C369.844 106.515 372.156 107.65 371.6 107C373.036 107.183 370.456 106.834 371.1 105.713C371.468 105.073 371.077 105.861 371.1 105.236C371.855 105.135 371.984 105.869 372.6 105.236C373.126 104.694 373.932 106.617 374.1 106C374.703 106.506 372.816 105.236 373.723 105.236C374.607 105.236 373.797 106.185 374.395 105.713C374.859 106.133 373.679 104.637 374.395 104.819C375.078 104.993 374.014 105.117 374.6 105C374.814 105.489 374.651 104.371 375.086 104.819C375.701 105.453 373.845 104.9 374.6 105C374.622 105.625 375.732 104.178 376.1 104.819C376.533 105.573 373.412 106.709 374.1 107C374.02 107.438 374.36 107.449 374.395 107.956C374.455 108.837 375.089 107.936 375.6 108.5C375.213 108.992 377.233 108.631 377.1 109.358C376.913 110.376 375.497 109.266 376.1 110C375.682 110.251 378.308 110.581 377.932 111C377.341 111.657 377.561 110.74 377.513 111.5C376.89 111.565 377.214 110.589 376.6 111C375.762 111.561 375.734 111.597 375.6 112.5C374.971 112.195 375.208 112.093 374.395 112.204Z" fill="#FCA3A3"/>
<path d="M57.9365 237.173C59.8597 236.661 61.6582 235.768 61.5985 234.885C61.5277 233.836 58.8576 233.133 56.5541 233.026C58.2916 231.652 59.8879 229.754 59.3997 228.895C58.9509 228.106 56.863 228.411 54.9367 229.107C56.0767 227.46 56.8781 225.604 56.2677 224.969C55.5074 224.178 52.8089 225.543 50.9672 227.053C51.3257 224.701 51.1445 221.733 50.1008 221.465C49.2276 221.24 47.9901 222.967 47.1417 224.847C46.7667 222.874 46.0076 221 45.1314 221C43.8833 221 42.8716 224.802 42.8716 227.279C42.8716 227.419 42.8753 227.551 42.8816 227.677C42.7563 227.53 42.6128 227.377 42.4491 227.216C40.6903 225.491 37.286 223.575 36.4164 224.48C35.8061 225.115 36.6075 226.971 37.7475 228.617C35.8212 227.922 33.7332 227.616 33.2844 228.406C32.6813 229.466 35.2592 232.114 37.3545 233.398C37.2286 233.383 37.0962 233.37 36.9554 233.36C34.5095 233.192 30.6864 233.953 30.6014 235.211C30.5418 236.094 32.3402 236.987 34.2635 237.5C32.3487 238.227 30.5598 239.357 30.7221 240.252C30.9192 241.339 33.925 241.72 36.2884 241.497C34.5228 243.209 32.6083 246.275 33.4072 247.174C33.9928 247.832 35.8796 247.151 37.5833 246.113C36.7656 248.008 36.3215 250.092 37.0704 250.598C38.0602 251.267 40.7745 248.939 42.2056 246.936C42.0598 249.386 42.6402 252.754 43.7918 252.886C44.6623 252.987 45.6269 251.212 46.2211 249.294C46.8528 251.26 47.8885 253.117 48.7812 252.994C49.9421 252.834 50.4482 249.383 50.2316 246.93C51.7078 248.851 54.1922 250.905 55.1295 250.272C55.8784 249.766 55.4343 247.682 54.6167 245.787C56.3203 246.824 58.2072 247.506 58.7927 246.847C59.5916 245.949 57.6771 242.882 55.9115 241.171C58.2749 241.393 61.2807 241.013 61.4778 239.926C61.6401 239.031 59.8512 237.901 57.9365 237.173ZM46.6748 240.252C46.1805 240.32 46.8195 240.206 46.4757 240.454C46.1105 240.088 46.3932 240.921 45.8001 240.853C45.1361 240.776 45.247 240.067 44.7868 240.454C44.6184 239.981 44.9313 240.252 44.449 239.926C44.0343 239.646 44.2122 239.475 43.7918 239.43C43.759 238.912 44.5102 239.879 44.1112 239.43C43.8569 239.144 43.8386 239.26 43.5562 239.089C43.9637 238.588 43.6823 239.005 43.5562 238.31C43.4663 237.814 44.3726 237.835 44.1112 237.5C44.4568 237.114 43.5156 237.628 43.5562 237.026C43.6006 236.369 45.1621 237.144 44.7868 236.7C45.7568 236.825 44.0139 236.587 44.449 235.822C44.6976 235.385 44.4338 235.922 44.449 235.496C44.9591 235.427 45.0465 235.928 45.4624 235.496C45.8176 235.126 46.3622 236.439 46.4757 236.017C46.8828 236.363 45.6083 235.496 46.2211 235.496C46.818 235.496 46.2709 236.144 46.6748 235.822C46.9885 236.108 46.1913 235.087 46.6748 235.211C47.1364 235.33 46.4174 235.415 46.8135 235.335C46.9581 235.669 46.848 234.906 47.1417 235.211C47.5575 235.644 46.3034 235.266 46.8135 235.335C46.8287 235.762 47.5783 234.774 47.8268 235.211C48.1194 235.726 46.011 236.502 46.4757 236.7C46.4214 236.999 46.6515 237.006 46.6748 237.352C46.7155 237.954 47.1435 237.339 47.4891 237.724C47.2276 238.06 48.5923 237.814 48.5024 238.31C48.3763 239.005 47.4194 238.247 47.8268 238.748C47.5445 238.919 49.3188 239.144 49.0644 239.43C48.6655 239.879 48.8141 239.253 48.7812 239.772C48.3608 239.816 48.5793 239.15 48.1646 239.43C47.5982 239.813 47.5797 239.838 47.4891 240.454C47.064 240.246 47.2245 240.177 46.6748 240.252Z" fill="#FCA3A3"/>
<path d="M551.936 267.173C553.86 266.661 555.658 265.768 555.599 264.885C555.528 263.836 552.858 263.133 550.554 263.026C552.292 261.652 553.888 259.754 553.4 258.895C552.951 258.106 550.863 258.411 548.937 259.107C550.077 257.46 550.878 255.604 550.268 254.969C549.507 254.178 546.809 255.543 544.967 257.053C545.326 254.701 545.145 251.733 544.101 251.465C543.228 251.24 541.99 252.967 541.142 254.847C540.767 252.874 540.008 251 539.131 251C537.883 251 536.872 254.802 536.872 257.279C536.872 257.419 536.875 257.551 536.882 257.677C536.756 257.53 536.613 257.377 536.449 257.216C534.69 255.491 531.286 253.575 530.416 254.48C529.806 255.115 530.608 256.971 531.748 258.617C529.821 257.922 527.733 257.616 527.284 258.406C526.681 259.466 529.259 262.114 531.355 263.398C531.229 263.383 531.096 263.37 530.955 263.36C528.51 263.192 524.686 263.953 524.601 265.211C524.542 266.094 526.34 266.987 528.263 267.5C526.349 268.227 524.56 269.357 524.722 270.252C524.919 271.339 527.925 271.72 530.288 271.497C528.523 273.209 526.608 276.275 527.407 277.174C527.993 277.832 529.88 277.151 531.583 276.113C530.766 278.008 530.322 280.092 531.07 280.598C532.06 281.267 534.774 278.939 536.206 276.936C536.06 279.386 536.64 282.754 537.792 282.886C538.662 282.987 539.627 281.212 540.221 279.294C540.853 281.26 541.888 283.117 542.781 282.994C543.942 282.834 544.448 279.383 544.232 276.93C545.708 278.851 548.192 280.905 549.129 280.272C549.878 279.766 549.434 277.682 548.617 275.787C550.32 276.824 552.207 277.506 552.793 276.847C553.592 275.949 551.677 272.882 549.911 271.171C552.275 271.393 555.281 271.013 555.478 269.926C555.64 269.031 553.851 267.901 551.936 267.173ZM540.675 270.252C540.18 270.32 540.819 270.206 540.476 270.454C540.111 270.088 540.393 270.921 539.8 270.853C539.136 270.776 539.247 270.067 538.787 270.454C538.618 269.981 538.931 270.252 538.449 269.926C538.034 269.646 538.212 269.475 537.792 269.43C537.759 268.912 538.51 269.879 538.111 269.43C537.857 269.144 537.839 269.26 537.556 269.089C537.964 268.588 537.682 269.005 537.556 268.31C537.466 267.814 538.373 267.835 538.111 267.5C538.457 267.114 537.516 267.628 537.556 267.026C537.601 266.369 539.162 267.144 538.787 266.7C539.757 266.825 538.014 266.587 538.449 265.822C538.698 265.385 538.434 265.922 538.449 265.496C538.959 265.427 539.047 265.928 539.462 265.496C539.818 265.126 540.362 266.439 540.476 266.017C540.883 266.363 539.608 265.496 540.221 265.496C540.818 265.496 540.271 266.144 540.675 265.822C540.988 266.108 540.191 265.087 540.675 265.211C541.136 265.33 540.417 265.415 540.813 265.335C540.958 265.669 540.848 264.906 541.142 265.211C541.558 265.644 540.303 265.266 540.813 265.335C540.829 265.762 541.578 264.774 541.827 265.211C542.119 265.726 540.011 266.502 540.476 266.7C540.421 266.999 540.651 267.006 540.675 267.352C540.715 267.954 541.144 267.339 541.489 267.724C541.228 268.06 542.592 267.814 542.502 268.31C542.376 269.005 541.419 268.247 541.827 268.748C541.544 268.919 543.319 269.144 543.064 269.43C542.665 269.879 542.814 269.253 542.781 269.772C542.361 269.816 542.579 269.15 542.165 269.43C541.598 269.813 541.58 269.838 541.489 270.454C541.064 270.246 541.224 270.177 540.675 270.252Z" fill="#F29797"/>
<path d="M391.065 107.693C393.912 106.943 396.574 105.635 396.485 104.341C396.381 102.804 392.428 101.774 389.018 101.617C391.59 99.6052 393.953 96.8238 393.231 95.5659C392.566 94.4094 389.476 94.8574 386.624 95.876C388.312 93.4634 389.498 90.7449 388.595 89.8145C387.469 88.6556 383.475 90.6559 380.749 92.867C381.279 89.4224 381.011 85.0744 379.466 84.681C378.174 84.3519 376.342 86.8812 375.086 89.6364C374.531 86.745 373.407 84 372.11 84C370.263 84 368.765 89.5702 368.765 93.1991C368.765 93.4043 368.77 93.5974 368.78 93.7819C368.594 93.5669 368.382 93.3423 368.14 93.1069C365.536 90.5787 360.497 87.7724 359.21 89.0977C358.306 90.0281 359.493 92.7466 361.18 95.1592C358.329 94.1406 355.238 93.6927 354.574 94.8491C353.681 96.403 357.497 100.282 360.598 102.163C360.412 102.141 360.216 102.122 360.008 102.108C356.387 101.861 350.728 102.976 350.602 104.819C350.514 106.113 353.176 107.421 356.023 108.171C353.189 109.237 350.54 110.892 350.781 112.204C351.073 113.796 355.522 114.354 359.02 114.027C356.407 116.535 353.573 121.027 354.755 122.343C355.622 123.308 358.415 122.31 360.937 120.79C359.727 123.566 359.069 126.619 360.178 127.36C361.643 128.34 365.661 124.93 367.779 121.995C367.563 125.585 368.422 130.518 370.127 130.712C371.416 130.86 372.843 128.26 373.723 125.45C374.658 128.33 376.191 131.051 377.513 130.87C379.231 130.636 379.98 125.58 379.66 121.987C381.845 124.801 385.522 127.811 386.91 126.882C388.018 126.141 387.361 123.088 386.151 120.312C388.672 121.832 391.465 122.83 392.332 121.866C393.515 120.549 390.681 116.057 388.067 113.549C391.566 113.876 396.015 113.318 396.307 111.726C396.547 110.414 393.899 108.759 391.065 107.693ZM374.395 112.204C373.663 112.304 374.609 112.136 374.1 112.5C373.559 111.963 373.978 113.183 373.1 113.083C372.117 112.971 372.281 111.933 371.6 112.5C371.351 111.807 371.814 112.204 371.1 111.726C370.486 111.315 370.749 111.065 370.127 111C370.079 110.24 371.19 111.657 370.6 111C370.223 110.581 370.196 110.751 369.778 110.5C370.382 109.766 369.965 110.376 369.778 109.358C369.645 108.631 370.987 108.663 370.6 108.171C371.111 107.607 369.718 108.359 369.778 107.478C369.844 106.515 372.156 107.65 371.6 107C373.036 107.183 370.456 106.834 371.1 105.713C371.468 105.073 371.077 105.861 371.1 105.236C371.855 105.135 371.984 105.869 372.6 105.236C373.126 104.694 373.932 106.617 374.1 106C374.703 106.506 372.816 105.236 373.723 105.236C374.607 105.236 373.797 106.185 374.395 105.713C374.859 106.133 373.679 104.637 374.395 104.819C375.078 104.993 374.014 105.117 374.6 105C374.814 105.489 374.651 104.371 375.086 104.819C375.701 105.453 373.845 104.9 374.6 105C374.622 105.625 375.732 104.178 376.1 104.819C376.533 105.573 373.412 106.709 374.1 107C374.02 107.438 374.36 107.449 374.395 107.956C374.455 108.837 375.089 107.936 375.6 108.5C375.213 108.992 377.233 108.631 377.1 109.358C376.913 110.376 375.497 109.266 376.1 110C375.682 110.251 378.308 110.581 377.932 111C377.341 111.657 377.561 110.74 377.513 111.5C376.89 111.565 377.214 110.589 376.6 111C375.762 111.561 375.734 111.597 375.6 112.5C374.971 112.195 375.208 112.093 374.395 112.204Z" fill="#FCA3A3"/>
<path d="M306.065 401.693C308.912 400.943 311.574 399.635 311.485 398.341C311.381 396.804 307.428 395.774 304.018 395.617C306.59 393.605 308.953 390.824 308.231 389.566C307.566 388.409 304.476 388.857 301.624 389.876C303.312 387.463 304.498 384.745 303.595 383.815C302.469 382.656 298.475 384.656 295.749 386.867C296.279 383.422 296.011 379.074 294.466 378.681C293.174 378.352 291.342 380.881 290.086 383.636C289.531 380.745 288.407 378 287.11 378C285.263 378 283.765 383.57 283.765 387.199C283.765 387.404 283.77 387.597 283.78 387.782C283.594 387.567 283.382 387.342 283.14 387.107C280.536 384.579 275.497 381.772 274.21 383.098C273.306 384.028 274.493 386.747 276.18 389.159C273.329 388.141 270.238 387.693 269.574 388.849C268.681 390.403 272.497 394.282 275.598 396.163C275.412 396.141 275.216 396.122 275.008 396.108C271.387 395.861 265.728 396.976 265.602 398.819C265.514 400.113 268.176 401.421 271.023 402.171C268.189 403.237 265.54 404.892 265.781 406.204C266.073 407.796 270.522 408.354 274.02 408.027C271.407 410.535 268.573 415.027 269.755 416.343C270.622 417.308 273.415 416.31 275.937 414.79C274.727 417.566 274.069 420.619 275.178 421.36C276.643 422.34 280.661 418.93 282.779 415.995C282.563 419.585 283.422 424.518 285.127 424.712C286.416 424.86 287.843 422.26 288.723 419.45C289.658 422.33 291.191 425.051 292.513 424.87C294.231 424.636 294.98 419.58 294.66 415.987C296.845 418.801 300.522 421.811 301.91 420.882C303.018 420.141 302.361 417.088 301.151 414.312C303.672 415.832 306.465 416.83 307.332 415.866C308.515 414.549 305.681 410.057 303.067 407.549C306.566 407.876 311.015 407.318 311.307 405.726C311.547 404.414 308.899 402.759 306.065 401.693ZM289.395 406.204C288.663 406.304 289.609 406.136 289.1 406.5C288.559 405.963 288.978 407.183 288.1 407.083C287.117 406.971 287.281 405.933 286.6 406.5C286.351 405.807 286.814 406.204 286.1 405.726C285.486 405.315 285.749 405.065 285.127 405C285.079 404.24 286.19 405.657 285.6 405C285.223 404.581 285.196 404.751 284.778 404.5C285.382 403.766 284.965 404.376 284.778 403.358C284.645 402.631 285.987 402.663 285.6 402.171C286.111 401.607 284.718 402.359 284.778 401.478C284.844 400.515 287.156 401.65 286.6 401C288.036 401.183 285.456 400.834 286.1 399.713C286.468 399.073 286.077 399.861 286.1 399.236C286.855 399.135 286.984 399.869 287.6 399.236C288.126 398.694 288.932 400.617 289.1 400C289.703 400.506 287.816 399.236 288.723 399.236C289.607 399.236 288.797 400.185 289.395 399.713C289.859 400.133 288.679 398.637 289.395 398.819C290.078 398.993 289.014 399.117 289.6 399C289.814 399.489 289.651 398.371 290.086 398.819C290.701 399.453 288.845 398.9 289.6 399C289.622 399.625 290.732 398.178 291.1 398.819C291.533 399.573 288.412 400.709 289.1 401C289.02 401.438 289.36 401.449 289.395 401.956C289.455 402.837 290.089 401.936 290.6 402.5C290.213 402.992 292.233 402.631 292.1 403.358C291.913 404.376 290.497 403.266 291.1 404C290.682 404.251 293.308 404.581 292.932 405C292.341 405.657 292.561 404.74 292.513 405.5C291.89 405.565 292.214 404.589 291.6 405C290.762 405.561 290.734 405.597 290.6 406.5C289.971 406.195 290.208 406.093 289.395 406.204Z" fill="#FCA3A3"/>
<path d="M57.9365 237.173C59.8597 236.661 61.6582 235.768 61.5985 234.885C61.5277 233.836 58.8576 233.133 56.5541 233.026C58.2916 231.652 59.8879 229.754 59.3997 228.895C58.9509 228.106 56.863 228.411 54.9367 229.107C56.0767 227.46 56.8781 225.604 56.2677 224.969C55.5074 224.178 52.8089 225.543 50.9672 227.053C51.3257 224.701 51.1445 221.733 50.1008 221.465C49.2276 221.24 47.9901 222.967 47.1417 224.847C46.7667 222.874 46.0076 221 45.1314 221C43.8833 221 42.8716 224.802 42.8716 227.279C42.8716 227.419 42.8753 227.551 42.8816 227.677C42.7563 227.53 42.6128 227.377 42.4491 227.216C40.6903 225.491 37.286 223.575 36.4164 224.48C35.8061 225.115 36.6075 226.971 37.7475 228.617C35.8212 227.922 33.7332 227.616 33.2844 228.406C32.6813 229.466 35.2592 232.114 37.3545 233.398C37.2286 233.383 37.0962 233.37 36.9554 233.36C34.5095 233.192 30.6864 233.953 30.6014 235.211C30.5418 236.094 32.3402 236.987 34.2635 237.5C32.3487 238.227 30.5598 239.357 30.7221 240.252C30.9192 241.339 33.925 241.72 36.2884 241.497C34.5228 243.209 32.6083 246.275 33.4072 247.174C33.9928 247.832 35.8796 247.151 37.5833 246.113C36.7656 248.008 36.3215 250.092 37.0704 250.598C38.0602 251.267 40.7745 248.939 42.2056 246.936C42.0598 249.386 42.6402 252.754 43.7918 252.886C44.6623 252.987 45.6269 251.212 46.2211 249.294C46.8528 251.26 47.8885 253.117 48.7812 252.994C49.9421 252.834 50.4482 249.383 50.2316 246.93C51.7078 248.851 54.1922 250.905 55.1295 250.272C55.8784 249.766 55.4343 247.682 54.6167 245.787C56.3203 246.824 58.2072 247.506 58.7927 246.847C59.5916 245.949 57.6771 242.882 55.9115 241.171C58.2749 241.393 61.2807 241.013 61.4778 239.926C61.6401 239.031 59.8512 237.901 57.9365 237.173ZM46.6748 240.252C46.1805 240.32 46.8195 240.206 46.4757 240.454C46.1105 240.088 46.3932 240.921 45.8001 240.853C45.1361 240.776 45.247 240.067 44.7868 240.454C44.6184 239.981 44.9313 240.252 44.449 239.926C44.0343 239.646 44.2122 239.475 43.7918 239.43C43.759 238.912 44.5102 239.879 44.1112 239.43C43.8569 239.144 43.8386 239.26 43.5562 239.089C43.9637 238.588 43.6823 239.005 43.5562 238.31C43.4663 237.814 44.3726 237.835 44.1112 237.5C44.4568 237.114 43.5156 237.628 43.5562 237.026C43.6006 236.369 45.1621 237.144 44.7868 236.7C45.7568 236.825 44.0139 236.587 44.449 235.822C44.6976 235.385 44.4338 235.922 44.449 235.496C44.9591 235.427 45.0465 235.928 45.4624 235.496C45.8176 235.126 46.3622 236.439 46.4757 236.017C46.8828 236.363 45.6083 235.496 46.2211 235.496C46.818 235.496 46.2709 236.144 46.6748 235.822C46.9885 236.108 46.1913 235.087 46.6748 235.211C47.1364 235.33 46.4174 235.415 46.8135 235.335C46.9581 235.669 46.848 234.906 47.1417 235.211C47.5575 235.644 46.3034 235.266 46.8135 235.335C46.8287 235.762 47.5783 234.774 47.8268 235.211C48.1194 235.726 46.011 236.502 46.4757 236.7C46.4214 236.999 46.6515 237.006 46.6748 237.352C46.7155 237.954 47.1435 237.339 47.4891 237.724C47.2276 238.06 48.5923 237.814 48.5024 238.31C48.3763 239.005 47.4194 238.247 47.8268 238.748C47.5445 238.919 49.3188 239.144 49.0644 239.43C48.6655 239.879 48.8141 239.253 48.7812 239.772C48.3608 239.816 48.5793 239.15 48.1646 239.43C47.5982 239.813 47.5797 239.838 47.4891 240.454C47.064 240.246 47.2245 240.177 46.6748 240.252Z" fill="#FCBEB3"/>
<path d="M551.936 267.173C553.86 266.661 555.658 265.768 555.599 264.885C555.528 263.836 552.858 263.133 550.554 263.026C552.292 261.652 553.888 259.754 553.4 258.895C552.951 258.106 550.863 258.411 548.937 259.107C550.077 257.46 550.878 255.604 550.268 254.969C549.507 254.178 546.809 255.543 544.967 257.053C545.326 254.701 545.145 251.733 544.101 251.465C543.228 251.24 541.99 252.967 541.142 254.847C540.767 252.874 540.008 251 539.131 251C537.883 251 536.872 254.802 536.872 257.279C536.872 257.419 536.875 257.551 536.882 257.677C536.756 257.53 536.613 257.377 536.449 257.216C534.69 255.491 531.286 253.575 530.416 254.48C529.806 255.115 530.608 256.971 531.748 258.617C529.821 257.922 527.733 257.616 527.284 258.406C526.681 259.466 529.259 262.114 531.355 263.398C531.229 263.383 531.096 263.37 530.955 263.36C528.51 263.192 524.686 263.953 524.601 265.211C524.542 266.094 526.34 266.987 528.263 267.5C526.349 268.227 524.56 269.357 524.722 270.252C524.919 271.339 527.925 271.72 530.288 271.497C528.523 273.209 526.608 276.275 527.407 277.174C527.993 277.832 529.88 277.151 531.583 276.113C530.766 278.008 530.322 280.092 531.07 280.598C532.06 281.267 534.774 278.939 536.206 276.936C536.06 279.386 536.64 282.754 537.792 282.886C538.662 282.987 539.627 281.212 540.221 279.294C540.853 281.26 541.888 283.117 542.781 282.994C543.942 282.834 544.448 279.383 544.232 276.93C545.708 278.851 548.192 280.905 549.129 280.272C549.878 279.766 549.434 277.682 548.617 275.787C550.32 276.824 552.207 277.506 552.793 276.847C553.592 275.949 551.677 272.882 549.911 271.171C552.275 271.393 555.281 271.013 555.478 269.926C555.64 269.031 553.851 267.901 551.936 267.173ZM540.675 270.252C540.18 270.32 540.819 270.206 540.476 270.454C540.111 270.088 540.393 270.921 539.8 270.853C539.136 270.776 539.247 270.067 538.787 270.454C538.618 269.981 538.931 270.252 538.449 269.926C538.034 269.646 538.212 269.475 537.792 269.43C537.759 268.912 538.51 269.879 538.111 269.43C537.857 269.144 537.839 269.26 537.556 269.089C537.964 268.588 537.682 269.005 537.556 268.31C537.466 267.814 538.373 267.835 538.111 267.5C538.457 267.114 537.516 267.628 537.556 267.026C537.601 266.369 539.162 267.144 538.787 266.7C539.757 266.825 538.014 266.587 538.449 265.822C538.698 265.385 538.434 265.922 538.449 265.496C538.959 265.427 539.047 265.928 539.462 265.496C539.818 265.126 540.362 266.439 540.476 266.017C540.883 266.363 539.608 265.496 540.221 265.496C540.818 265.496 540.271 266.144 540.675 265.822C540.988 266.108 540.191 265.087 540.675 265.211C541.136 265.33 540.417 265.415 540.813 265.335C540.958 265.669 540.848 264.906 541.142 265.211C541.558 265.644 540.303 265.266 540.813 265.335C540.829 265.762 541.578 264.774 541.827 265.211C542.119 265.726 540.011 266.502 540.476 266.7C540.421 266.999 540.651 267.006 540.675 267.352C540.715 267.954 541.144 267.339 541.489 267.724C541.228 268.06 542.592 267.814 542.502 268.31C542.376 269.005 541.419 268.247 541.827 268.748C541.544 268.919 543.319 269.144 543.064 269.43C542.665 269.879 542.814 269.253 542.781 269.772C542.361 269.816 542.579 269.15 542.165 269.43C541.598 269.813 541.58 269.838 541.489 270.454C541.064 270.246 541.224 270.177 540.675 270.252Z" fill="#F29797"/>
<path d="M373.6 114C376.914 114 379.6 111.538 379.6 108.5C379.6 105.462 376.914 103 373.6 103C370.286 103 367.6 105.462 367.6 108.5C367.6 111.538 370.286 114 373.6 114Z" fill="#3F3D56"/>
<path d="M288.6 408C291.914 408 294.6 405.538 294.6 402.5C294.6 399.462 291.914 397 288.6 397C285.286 397 282.6 399.462 282.6 402.5C282.6 405.538 285.286 408 288.6 408Z" fill="#3F3D56"/>
<path d="M46.6 241C48.8091 241 50.6 239.433 50.6 237.5C50.6 235.567 48.8091 234 46.6 234C44.3908 234 42.6 235.567 42.6 237.5C42.6 239.433 44.3908 241 46.6 241Z" fill="#3F3D56"/>
<path d="M540.6 271C542.809 271 544.6 269.433 544.6 267.5C544.6 265.567 542.809 264 540.6 264C538.391 264 536.6 265.567 536.6 267.5C536.6 269.433 538.391 271 540.6 271Z" fill="#3F3D56"/>
</svg>
