<svg width="583" height="479" viewBox="0 0 583 479" fill="none" xmlns="http://www.w3.org/2000/svg">
<path d="M288.648 0.119019C289.028 0.98523 289.31 1.89072 289.491 2.81902C289.081 1.40202 288.758 0.442019 288.648 0.119019Z" fill="#4C3A36"/>
<path d="M301.66 44.958C301.471 46.5486 301.104 48.113 300.567 49.622L301.66 44.958Z" fill="#4C3A36"/>
<path d="M435.569 197.73C406.725 212.764 368.992 225.745 357.691 229.508C366.308 227.264 391.391 224.242 430.252 248.488C479.081 278.946 531.291 258.638 531.291 258.638C531.291 258.638 519.691 280.882 495.032 282.326C470.373 283.77 406.079 243.17 384.332 254.773C362.585 266.376 352.422 251.873 343.717 280.882C335.012 309.891 319.061 389.165 337.434 433.645L355.798 478.118H251.379C251.379 478.118 289.09 377.563 268.298 315.688C256.661 281.035 240.583 234.982 246.061 237.369C246.061 237.369 220.92 212.713 212.707 212.713C204.494 212.713 165.807 208.848 153.244 195.794C153.244 195.794 135.357 183.224 103.444 214.165C71.531 245.106 79.272 245.107 50.75 242.686C22.676 240.302 0.681969 226.686 -3.05176e-05 226.258C0.813969 226.588 33.6 239.694 53.647 233.02C73.954 226.251 91.358 200.626 109.247 191.928C127.136 183.23 137.768 171.62 161.941 184.191L146.012 146.634L141.648 136.345L141.641 136.33C141.641 136.33 136.317 65.749 126.167 60.916C116.017 56.083 122.302 43.516 103.447 41.093C103.447 41.093 126.647 38.193 131 54.147C135.353 70.101 165.33 156.154 165.33 156.154C165.33 156.154 183.694 192.889 204.001 184.191C224.308 175.493 196.264 126.664 196.264 126.664L161.461 110.706C161.461 110.706 187.57 109.738 203.521 124.728C219.472 139.718 220.44 188.056 220.44 188.056C220.44 188.056 260.564 193.856 270.24 215.617C270.24 215.617 303.11 195.794 301.666 224.799C301.666 224.799 330.671 197.246 328.735 188.056C326.799 178.866 324.386 157.114 306.015 144.067C287.644 131.02 275.557 110.221 288.615 80.248C295.956 63.387 299.168 54.33 300.577 49.629L292.954 82.1821C292.954 82.1821 288.121 115.539 301.661 127.141C301.698 127.17 301.727 127.2 301.761 127.229C315.277 138.846 333.077 160.019 333.077 160.019L333.026 159.088L345.161 191.929C345.161 191.929 416.713 189.508 432.661 158.082C448.609 126.656 461.674 125.212 461.674 125.212L452.488 152.282L442.338 175.482C442.338 175.482 483.914 176.45 505.666 201.107C527.418 225.764 581.566 233.017 581.566 233.017L551.116 241.231C551.116 241.231 522.103 231.565 494.55 213.678C466.997 195.791 469.891 179.842 435.569 197.73Z" fill="#4C3A36"/>
<path opacity="0.1" d="M450.982 131.769C447.924 145.307 444.323 158.384 439.263 168.35C423.312 199.776 351.763 202.196 351.763 202.196C351.763 202.196 352.1 198.045 352.614 191.496C370.78 189.996 420.437 183.612 433.396 158.083C434.584 155.751 435.684 153.243 436.726 150.602L450.982 131.769Z" fill="black"/>
<path opacity="0.1" d="M350.033 109.245C360.246 98.146 349.927 121.148 350.033 109.245Z" fill="black"/>
<path opacity="0.1" d="M308.257 224.431V235.067C308.257 235.067 337.263 207.511 335.33 198.326C333.851 191.301 332.081 176.926 323.117 164.715C327.157 173.945 328.387 182.948 329.463 188.059C330.85 194.646 316.327 210.678 307.999 219.223C308.291 220.943 308.377 222.691 308.257 224.431Z" fill="black"/>
<path opacity="0.1" d="M269.344 151.443C269.574 151.933 269.811 152.415 270.062 152.881C277.475 166.649 288.652 181.281 297.014 194.726C290.259 181.414 278.497 166.191 269.344 151.443Z" fill="black"/>
<path opacity="0.1" d="M430.984 248.487C415.084 238.567 401.484 233.214 390.384 230.502C378.736 234.886 369.149 238.155 364.326 239.76C372.977 237.52 398.041 234.546 436.852 258.754C467.303 277.748 499.067 276.999 518.666 273.745C524.086 269.655 528.628 264.516 532.023 258.635C532.023 258.635 479.816 278.943 430.984 248.487Z" fill="black"/>
<path opacity="0.1" d="M292.917 130.862C289.017 121.31 288.376 109.944 292.855 96.625C292.799 91.7982 293.078 86.9733 293.689 82.185L301.301 49.622C299.901 54.322 296.686 63.377 289.338 80.252C280.035 101.614 283.507 118.307 292.917 130.862Z" fill="black"/>
<path opacity="0.1" d="M506.4 201.111C491.313 184.011 466.7 178.311 453.023 176.417L448.937 185.756C448.937 185.756 490.512 186.723 512.267 211.378C524.331 225.05 546.353 233.369 563.581 238.069L582.3 233.018C582.3 233.018 528.156 225.766 506.4 201.111Z" fill="black"/>
<path opacity="0.1" d="M210.601 194.458C230.901 185.758 202.866 136.929 202.866 136.929L202.099 136.577C209.089 151.326 219.227 177.977 204.734 184.19C191.172 190.002 178.474 175.542 171.534 165.297L171.924 166.419C171.924 166.419 190.301 203.159 210.601 194.458Z" fill="black"/>
<path opacity="0.1" d="M301.301 49.621C301.837 48.1129 302.203 46.5495 302.391 44.96L301.301 49.621Z" fill="black"/>
<path opacity="0.1" d="M59.959 243.377C60.059 243.346 60.159 243.317 60.252 243.285C80.552 236.517 97.96 210.895 115.852 202.193C133.744 193.491 144.375 181.893 168.547 194.458C168.547 194.458 164.318 177.148 156.123 165.776C158.837 171.713 161.031 177.874 162.679 184.19C138.507 171.621 127.872 183.223 109.984 191.925C92.096 200.627 74.693 226.249 54.384 233.017C34.075 239.785 0.721985 226.249 0.721985 226.249C0.721985 226.249 22.96 240.269 51.483 242.686C54.748 242.966 57.532 243.206 59.959 243.377Z" fill="black"/>
<path opacity="0.1" d="M148.243 146.597C148.243 146.597 147.451 146.612 146.014 146.634L141.65 136.345C142.127 136.338 142.376 136.33 142.376 136.33C142.376 136.33 139.017 91.813 132.549 71.066C132.63 71.103 132.696 71.147 132.769 71.183C142.918 76.017 148.243 146.597 148.243 146.597Z" fill="black"/>
<path opacity="0.1" d="M261.51 478.121C270.368 450.967 291.67 375.879 274.899 325.953C267.656 304.392 260.942 290.644 255.267 281.873C260.676 292.792 265.276 304.094 269.032 315.686C289.821 377.561 252.11 478.121 252.11 478.121H261.51Z" fill="black"/>
<path opacity="0.1" d="M121.789 56.221C122.34 57.1497 123.008 58.004 123.777 58.763C123.213 57.8432 122.546 56.9904 121.789 56.221Z" fill="black"/>
<path opacity="0.1" d="M210.118 134.99C210.867 135.697 211.568 136.452 212.218 137.25C210.1 132.159 207.485 127.757 204.255 124.723C188.302 109.736 162.196 110.703 162.196 110.703L194.935 125.708C200.544 127.801 205.698 130.952 210.118 134.99Z" fill="black"/>
<path opacity="0.1" d="M290.215 2.78201C290.021 1.82633 289.727 0.893802 289.337 0C289.337 0 289.709 1.04401 290.215 2.78201Z" fill="black"/>
<path opacity="0.1" d="M119.463 51.468C123.724 51.99 128.625 53.297 132.363 56.329C132.119 55.504 131.906 54.765 131.737 54.144C127.386 38.191 104.181 41.091 104.181 41.091C114.667 42.437 117.376 46.922 119.463 51.468Z" fill="black"/>
<path d="M129.269 22.327C122.059 33.384 124.035 47.447 124.035 47.447C124.035 47.447 137.7 43.5829 144.91 32.5259C152.12 21.4689 150.144 7.40698 150.144 7.40698C150.144 7.40698 136.479 11.27 129.269 22.327Z" fill="#4C3A36"/>
<path d="M479.303 145.012C471.859 134.11 458.115 130.538 458.115 130.538C458.115 130.538 456.439 144.64 463.882 155.541C471.326 166.442 485.069 170.014 485.069 170.014C485.069 170.014 486.746 155.913 479.303 145.012Z" fill="#4C3A36"/>
<path d="M134.685 24.281C134.115 37.468 124.326 47.756 124.326 47.756C124.326 47.756 115.461 36.662 116.026 23.475C116.591 10.288 126.385 0 126.385 0C126.385 0 135.255 11.094 134.685 24.281Z" fill="#8F996D"/>
<path d="M516.883 291.179C516.169 277.999 524.912 266.809 524.912 266.809C524.912 266.809 534.813 276.989 535.532 290.169C536.251 303.348 527.502 314.539 527.502 314.539C527.502 314.539 517.597 304.359 516.883 291.179Z" fill="#8F996D"/>
<path d="M475.42 149.263C463.461 143.676 457.717 130.688 457.717 130.688C457.717 130.688 471.364 126.76 483.325 132.342C495.285 137.924 501.027 150.916 501.027 150.916C501.027 150.916 487.378 154.85 475.42 149.263Z" fill="#8F996D"/>
<path d="M467.62 370.845C467.688 370.763 467.687 370.65 467.617 370.592C467.548 370.534 467.436 370.553 467.368 370.635C467.299 370.717 467.3 370.83 467.37 370.888C467.439 370.946 467.551 370.927 467.62 370.845Z" fill="#927E65"/>
<path d="M421.111 330.229C421.426 329.975 421.065 329.002 420.305 328.054C419.544 327.107 418.671 326.545 418.356 326.798C418.04 327.052 418.401 328.025 419.162 328.972C419.922 329.92 420.795 330.482 421.111 330.229Z" fill="#8F996D"/>
<path d="M358.273 453.282C351.063 464.339 353.039 478.402 353.039 478.402C353.039 478.402 366.704 474.538 373.914 463.481C381.124 452.424 379.148 438.362 379.148 438.362C379.148 438.362 365.483 442.225 358.273 453.282Z" fill="#4C3A36"/>
<path d="M363.689 455.236C363.119 468.423 353.33 478.711 353.33 478.711C353.33 478.711 344.465 467.617 345.03 454.43C345.595 441.243 355.389 430.955 355.389 430.955C355.389 430.955 364.259 442.049 363.689 455.236Z" fill="#8F996D"/>
<path d="M239.619 457.464C243.066 470.206 254.872 478.097 254.872 478.097C254.872 478.097 261.09 465.33 257.643 452.588C254.196 439.846 242.39 431.955 242.39 431.955C242.39 431.955 236.172 444.723 239.619 457.464Z" fill="#4C3A36"/>
<path d="M244.684 454.725C254.142 463.932 255.298 478.086 255.298 478.086C255.298 478.086 241.118 477.312 231.66 468.104C222.202 458.896 221.046 444.743 221.046 444.743C221.046 444.743 235.226 445.518 244.684 454.725Z" fill="#8F996D"/>
<path d="M213.335 109.257C212.513 122.431 202.528 132.529 202.528 132.529C202.528 132.529 193.877 121.268 194.702 108.096C195.527 94.924 205.502 84.821 205.502 84.821C205.502 84.821 214.158 96.082 213.335 109.257Z" fill="#8F996D"/>
<path d="M84.32 186.581C95.486 193.621 99.558 207.225 99.558 207.225C99.558 207.225 85.527 209.416 74.358 202.376C63.189 195.336 59.119 181.732 59.119 181.732C59.119 181.732 73.154 179.544 84.32 186.581Z" fill="#8F996D"/>
<path d="M311.318 49.452C307.951 62.215 296.194 70.18 296.194 70.18C296.194 70.18 289.894 57.452 293.264 44.689C296.634 31.926 308.388 23.961 308.388 23.961C308.388 23.961 314.686 36.689 311.318 49.452Z" fill="#8F996D"/>
</svg>
