<svg width="650" height="494" viewBox="0 0 650 494" fill="none" xmlns="http://www.w3.org/2000/svg">
<path d="M304.548 15.119C304.927 15.9852 305.21 16.8907 305.391 17.819C304.981 16.402 304.658 15.442 304.548 15.119Z" fill="#4C3A36"/>
<path d="M317.56 59.958C317.371 61.5485 317.004 63.1129 316.467 64.622L317.56 59.958Z" fill="#4C3A36"/>
<path d="M451.469 212.73C422.625 227.764 384.892 240.745 373.591 244.508C382.208 242.264 407.291 239.242 446.152 263.488C494.981 293.946 547.191 273.638 547.191 273.638C547.191 273.638 535.591 295.882 510.932 297.326C486.273 298.77 421.979 258.17 400.232 269.773C378.485 281.376 368.322 266.873 359.617 295.882C350.912 324.891 334.961 404.165 353.334 448.645L371.698 493.118H267.279C267.279 493.118 304.99 392.563 284.198 330.688C272.561 296.035 256.483 249.982 261.961 252.369C261.961 252.369 236.82 227.713 228.607 227.713C220.394 227.713 181.707 223.848 169.144 210.794C169.144 210.794 151.257 198.224 119.344 229.165C87.4309 260.106 95.1719 260.107 66.6499 257.686C38.5759 255.302 16.5819 241.686 15.8999 241.258C16.7139 241.588 49.4999 254.694 69.5469 248.02C89.8539 241.251 107.258 215.626 125.147 206.928C143.036 198.23 153.668 186.62 177.841 199.191L161.912 161.634L157.548 151.345L157.541 151.33C157.541 151.33 152.217 80.749 142.067 75.916C131.917 71.083 138.202 58.516 119.347 56.093C119.347 56.093 142.547 53.193 146.9 69.147C151.253 85.101 181.23 171.154 181.23 171.154C181.23 171.154 199.594 207.889 219.901 199.191C240.208 190.493 212.164 141.664 212.164 141.664L177.361 125.706C177.361 125.706 203.47 124.738 219.421 139.728C235.372 154.718 236.34 203.056 236.34 203.056C236.34 203.056 276.464 208.856 286.14 230.617C286.14 230.617 319.01 210.794 317.566 239.799C317.566 239.799 346.571 212.246 344.635 203.056C342.699 193.866 340.286 172.114 321.915 159.067C303.544 146.02 291.457 125.221 304.515 95.248C311.856 78.387 315.068 69.33 316.477 64.629L308.854 97.182C308.854 97.182 304.021 130.539 317.561 142.141C317.598 142.17 317.627 142.2 317.661 142.229C331.177 153.846 348.977 175.019 348.977 175.019L348.926 174.088L361.061 206.929C361.061 206.929 432.613 204.508 448.561 173.082C464.509 141.656 477.574 140.212 477.574 140.212L468.388 167.282L458.238 190.482C458.238 190.482 499.814 191.45 521.566 216.107C543.318 240.764 597.466 248.017 597.466 248.017L567.016 256.231C567.016 256.231 538.003 246.565 510.45 228.678C482.897 210.791 485.791 194.842 451.469 212.73Z" fill="#4C3A36"/>
<path opacity="0.1" d="M466.882 146.769C463.824 160.307 460.223 173.384 455.163 183.35C439.212 214.776 367.663 217.196 367.663 217.196C367.663 217.196 368 213.045 368.514 206.496C386.68 204.996 436.337 198.612 449.296 173.083C450.484 170.751 451.584 168.243 452.626 165.602L466.882 146.769Z" fill="black"/>
<path d="M359.009 99C370.718 113.4 381.494 127.992 387.789 141.554C407.645 184.316 350.98 261.764 350.98 261.764C350.98 261.764 346.892 257.982 340.429 252.034C353.884 231.64 388.263 174.005 372.134 139.266C370.664 136.088 368.937 132.858 367.021 129.579L359.009 99Z" fill="#4C3A36"/>
<path d="M156.9 311.893C166.205 295.834 176.021 280.58 186.465 269.88C219.392 236.137 311.912 261.615 311.912 261.615C311.912 261.615 309.828 266.779 306.562 274.933C282.719 269.594 216.633 257.916 189.883 285.327C187.434 287.83 185.028 290.592 182.643 293.547L156.9 311.893Z" fill="#4C3A36"/>
<path opacity="0.1" d="M365.933 124.245C376.146 113.146 365.827 136.148 365.933 124.245Z" fill="black"/>
<path opacity="0.1" d="M324.157 239.431V250.067C324.157 250.067 353.163 222.511 351.23 213.326C349.751 206.301 347.981 191.926 339.017 179.715C343.057 188.945 344.287 197.948 345.363 203.059C346.75 209.646 332.227 225.678 323.899 234.223C324.191 235.943 324.277 237.691 324.157 239.431Z" fill="black"/>
<path opacity="0.1" d="M285.244 166.443C285.474 166.933 285.711 167.415 285.962 167.881C293.375 181.649 304.552 196.281 312.914 209.726C306.159 196.414 294.397 181.191 285.244 166.443Z" fill="black"/>
<path opacity="0.1" d="M446.884 263.487C430.984 253.567 417.384 248.214 406.284 245.502C394.636 249.886 385.049 253.155 380.226 254.76C388.877 252.52 413.941 249.546 452.752 273.754C483.203 292.748 514.967 291.999 534.566 288.745C539.986 284.654 544.528 279.516 547.923 273.635C547.923 273.635 495.716 293.943 446.884 263.487Z" fill="black"/>
<path opacity="0.1" d="M308.817 145.862C304.917 136.31 304.276 124.944 308.755 111.625C308.699 106.798 308.978 101.973 309.589 97.185L317.201 64.622C315.801 69.322 312.586 78.377 305.238 95.252C295.935 116.614 299.407 133.307 308.817 145.862Z" fill="black"/>
<path opacity="0.1" d="M522.3 216.111C507.213 199.011 482.6 193.311 468.923 191.417L464.837 200.756C464.837 200.756 506.412 201.723 528.167 226.378C540.231 240.05 562.253 248.369 579.481 253.069L598.2 248.018C598.2 248.018 544.056 240.766 522.3 216.111Z" fill="black"/>
<path opacity="0.1" d="M226.501 209.458C246.801 200.758 218.766 151.929 218.766 151.929L217.999 151.577C224.989 166.326 235.127 192.977 220.634 199.19C207.072 205.002 194.374 190.542 187.434 180.297L187.824 181.419C187.824 181.419 206.201 218.159 226.501 209.458Z" fill="black"/>
<path opacity="0.1" d="M317.201 64.621C317.737 63.1128 318.103 61.5494 318.291 59.96L317.201 64.621Z" fill="black"/>
<path opacity="0.1" d="M75.8588 258.377C75.9588 258.346 76.0588 258.317 76.1518 258.285C96.4518 251.517 113.86 225.895 131.752 217.193C149.644 208.491 160.275 196.893 184.447 209.458C184.447 209.458 180.218 192.148 172.023 180.776C174.737 186.713 176.93 192.874 178.579 199.19C154.407 186.621 143.772 198.223 125.884 206.925C107.996 215.627 90.5928 241.249 70.2838 248.017C49.9748 254.785 16.6218 241.249 16.6218 241.249C16.6218 241.249 38.8598 255.269 67.3828 257.686C70.6478 257.966 73.4318 258.206 75.8588 258.377Z" fill="black"/>
<path opacity="0.1" d="M164.143 161.597C164.143 161.597 163.351 161.612 161.914 161.634L157.55 151.345C158.027 151.338 158.276 151.33 158.276 151.33C158.276 151.33 154.917 106.813 148.449 86.066C148.53 86.103 148.596 86.147 148.669 86.183C158.818 91.017 164.143 161.597 164.143 161.597Z" fill="black"/>
<path opacity="0.1" d="M277.41 493.121C286.268 465.967 307.57 390.879 290.799 340.953C283.556 319.392 276.842 305.644 271.167 296.873C276.576 307.792 281.176 319.094 284.932 330.686C305.721 392.561 268.01 493.121 268.01 493.121H277.41Z" fill="black"/>
<path opacity="0.1" d="M137.689 71.221C138.24 72.1497 138.908 73.004 139.677 73.763C139.112 72.8432 138.446 71.9904 137.689 71.221Z" fill="black"/>
<path opacity="0.1" d="M226.018 149.99C226.766 150.697 227.468 151.452 228.118 152.25C226 147.159 223.385 142.757 220.155 139.723C204.202 124.736 178.096 125.703 178.096 125.703L210.835 140.708C216.443 142.801 221.598 145.952 226.018 149.99Z" fill="black"/>
<path opacity="0.1" d="M306.115 17.782C305.921 16.8263 305.627 15.8938 305.237 15C305.237 15 305.609 16.044 306.115 17.782Z" fill="black"/>
<path opacity="0.1" d="M135.363 66.4679C139.624 66.9899 144.525 68.297 148.263 71.329C148.019 70.504 147.806 69.765 147.637 69.144C143.286 53.191 120.081 56.0909 120.081 56.0909C130.567 57.4369 133.276 61.9219 135.363 66.4679Z" fill="black"/>
<path d="M145.169 37.3269C137.959 48.3839 139.935 62.4469 139.935 62.4469C139.935 62.4469 153.6 58.5829 160.81 47.5259C168.02 36.4689 166.044 22.4069 166.044 22.4069C166.044 22.4069 152.379 26.2699 145.169 37.3269Z" fill="#4C3A36"/>
<path d="M26.8458 236.663C33.1951 248.235 46.5276 253.126 46.5276 253.126C46.5276 253.126 49.5655 239.254 43.2162 227.681C36.8669 216.108 23.5353 211.218 23.5353 211.218C23.5353 211.218 20.4965 225.09 26.8458 236.663Z" fill="#4C3A36"/>
<path d="M309.035 172.514C322.235 172.373 332.835 162.923 332.835 162.923C332.835 162.923 322.036 153.702 308.837 153.842C295.637 153.983 285.037 163.432 285.037 163.432C285.037 163.432 295.836 172.654 309.035 172.514Z" fill="#4C3A36"/>
<path d="M538.363 307.598C544.465 295.893 541.132 282.088 541.132 282.088C541.132 282.088 527.907 287.261 521.805 298.967C515.704 310.672 519.036 324.475 519.036 324.475C519.036 324.475 532.261 319.303 538.363 307.598Z" fill="#4C3A36"/>
<path d="M495.202 160.012C487.759 149.11 474.014 145.538 474.014 145.538C474.014 145.538 472.339 159.64 479.782 170.541C487.226 181.442 500.969 185.014 500.969 185.014C500.969 185.014 502.646 170.913 495.202 160.012Z" fill="#4C3A36"/>
<path d="M264.983 197.408C251.86 198.83 242.227 209.265 242.227 209.265C242.227 209.265 253.871 217.394 266.995 215.972C280.118 214.55 289.749 204.116 289.749 204.116C289.749 204.116 278.106 195.986 264.983 197.408Z" fill="#4C3A36"/>
<path d="M150.585 39.281C150.015 52.468 140.226 62.756 140.226 62.756C140.226 62.756 131.361 51.6619 131.926 38.4749C132.491 25.2879 142.285 15 142.285 15C142.285 15 151.155 26.094 150.585 39.281Z" fill="#8F996D"/>
<path d="M31.1233 232.809C42.4825 239.531 46.9373 253.015 46.9373 253.015C46.9373 253.015 32.9736 255.6 21.612 248.882C10.2504 242.164 5.79798 228.675 5.79798 228.675C5.79798 228.675 19.7641 226.086 31.1233 232.809Z" fill="#8F996D"/>
<path d="M307.654 166.924C318.939 160.078 332.931 162.51 332.931 162.51C332.931 162.51 328.623 176.042 317.341 182.892C306.059 189.742 292.065 187.306 292.065 187.306C292.065 187.306 296.369 173.77 307.654 166.924Z" fill="#8F996D"/>
<path d="M532.783 306.179C532.069 292.999 540.812 281.809 540.812 281.809C540.812 281.809 550.713 291.989 551.432 305.169C552.151 318.348 543.402 329.539 543.402 329.539C543.402 329.539 533.497 319.359 532.783 306.179Z" fill="#8F996D"/>
<path d="M491.32 164.263C479.361 158.676 473.617 145.688 473.617 145.688C473.617 145.688 487.264 141.76 499.225 147.342C511.185 152.924 516.927 165.917 516.927 165.917C516.927 165.917 503.278 169.85 491.32 164.263Z" fill="#8F996D"/>
<path d="M266.901 202.837C256.334 210.747 242.173 209.686 242.173 209.686C242.173 209.686 245.145 195.8 255.708 187.886C266.272 179.972 280.436 181.037 280.436 181.037C280.436 181.037 277.467 194.927 266.901 202.837Z" fill="#8F996D"/>
<path d="M483.52 385.845C483.588 385.763 483.587 385.65 483.517 385.592C483.448 385.534 483.336 385.553 483.268 385.635C483.199 385.717 483.2 385.83 483.27 385.888C483.34 385.946 483.451 385.927 483.52 385.845Z" fill="#927E65"/>
<path d="M437.01 345.229C437.326 344.975 436.965 344.002 436.204 343.054C435.444 342.107 434.571 341.545 434.255 341.798C433.94 342.052 434.301 343.025 435.061 343.972C435.822 344.92 436.695 345.482 437.01 345.229Z" fill="#8F996D"/>
<path d="M374.173 468.282C366.963 479.339 368.939 493.402 368.939 493.402C368.939 493.402 382.604 489.538 389.814 478.481C397.024 467.424 395.048 453.362 395.048 453.362C395.048 453.362 381.383 457.225 374.173 468.282Z" fill="#4C3A36"/>
<path d="M389.314 105.16C377.194 110.39 371.069 123.202 371.069 123.202C371.069 123.202 384.592 127.534 396.712 122.304C408.832 117.074 414.957 104.263 414.957 104.263C414.957 104.263 401.433 99.9301 389.314 105.16Z" fill="#4C3A36"/>
<path d="M186.656 298.322C173.665 295.982 161.479 303.274 161.479 303.274C161.479 303.274 170.356 314.359 183.347 316.699C196.338 319.038 208.523 311.746 208.523 311.746C208.523 311.746 199.647 300.661 186.656 298.322Z" fill="#4C3A36"/>
<path d="M208.318 172.059C196.217 177.331 190.136 190.165 190.136 190.165C190.136 190.165 203.675 194.45 215.776 189.178C227.878 183.906 233.958 171.073 233.958 171.073C233.958 171.073 220.42 166.787 208.318 172.059Z" fill="#4C3A36"/>
<path d="M436.138 235.9C423.717 240.369 416.81 252.777 416.81 252.777C416.81 252.777 430.039 257.939 442.46 253.47C454.88 249.001 461.787 236.593 461.787 236.593C461.787 236.593 448.558 231.431 436.138 235.9Z" fill="#4C3A36"/>
<path d="M379.589 470.236C379.019 483.423 369.23 493.711 369.23 493.711C369.23 493.711 360.365 482.617 360.93 469.43C361.495 456.243 371.289 445.955 371.289 445.955C371.289 445.955 380.159 457.049 379.589 470.236Z" fill="#8F996D"/>
<path d="M255.519 472.464C258.966 485.206 270.772 493.097 270.772 493.097C270.772 493.097 276.99 480.33 273.543 467.588C270.096 454.846 258.29 446.955 258.29 446.955C258.29 446.955 252.072 459.723 255.519 472.464Z" fill="#4C3A36"/>
<path d="M260.584 469.725C270.042 478.932 271.198 493.086 271.198 493.086C271.198 493.086 257.018 492.312 247.56 483.104C238.102 473.896 236.946 459.743 236.946 459.743C236.946 459.743 251.126 460.518 260.584 469.725Z" fill="#8F996D"/>
<path d="M357.538 469.982C366.996 479.189 368.152 493.343 368.152 493.343C368.152 493.343 353.972 492.569 344.514 483.361C335.056 474.153 333.9 460 333.9 460C333.9 460 348.08 460.775 357.538 469.982Z" fill="#8F996D"/>
<path d="M374.511 97.3831C377.304 110.283 370.445 122.718 370.445 122.718C370.445 122.718 359.055 114.236 356.262 101.335C353.469 88.4339 360.328 76 360.328 76C360.328 76 371.717 84.4828 374.511 97.3831Z" fill="#8F996D"/>
<path d="M178.618 283.659C173.816 295.954 161.227 302.527 161.227 302.527C161.227 302.527 156.423 289.163 161.225 276.867C166.027 264.572 178.615 258 178.615 258C178.615 258 183.419 271.364 178.618 283.659Z" fill="#8F996D"/>
<path d="M193.488 164.334C196.327 177.224 189.511 189.683 189.511 189.683C189.511 189.683 178.092 181.24 175.254 168.349C172.416 155.458 179.231 143 179.231 143C179.231 143 190.65 151.443 193.488 164.334Z" fill="#8F996D"/>
<path d="M421.845 227.221C423.834 240.269 416.218 252.255 416.218 252.255C416.218 252.255 405.375 243.084 403.387 230.035C401.398 216.985 409.014 205 409.014 205C409.014 205 419.856 214.172 421.845 227.221Z" fill="#8F996D"/>
<path d="M229.235 124.257C228.413 137.431 218.428 147.529 218.428 147.529C218.428 147.529 209.777 136.268 210.602 123.096C211.427 109.924 221.402 99.821 221.402 99.821C221.402 99.821 230.058 111.082 229.235 124.257Z" fill="#8F996D"/>
<path d="M100.22 201.581C111.386 208.621 115.458 222.225 115.458 222.225C115.458 222.225 101.427 224.416 90.2579 217.376C79.0889 210.336 75.0189 196.732 75.0189 196.732C75.0189 196.732 89.0539 194.544 100.22 201.581Z" fill="#8F996D"/>
<path d="M327.218 64.4519C323.851 77.2149 312.094 85.1799 312.094 85.1799C312.094 85.1799 305.794 72.4519 309.164 59.6889C312.534 46.9259 324.288 38.9609 324.288 38.9609C324.288 38.9609 330.586 51.6889 327.218 64.4519Z" fill="#8F996D"/>
<path d="M548.246 214.552C541.077 225.635 527.426 229.552 527.426 229.552C527.426 229.552 525.399 215.497 532.568 204.413C539.737 193.329 553.388 189.413 553.388 189.413C553.388 189.413 555.415 203.469 548.246 214.552Z" fill="#8F996D"/>
<path d="M293.712 420L291.712 420.033L293.863 493L295.863 492.967L293.712 420Z" fill="#745751"/>
<path d="M313.036 420.558L314.945 420.778L305.758 493.194L303.848 492.974L313.036 420.558Z" fill="#745751"/>
<path d="M292.54 452C292.436 451.75 290.053 445.819 295.203 440L296.9 440.745C292.237 446.013 294.436 451.55 294.458 451.605L292.54 452Z" fill="#745751"/>
<path d="M295.949 440.514C295.949 440.514 294.407 432.281 308.614 430.021C311.574 429.55 314.356 429.228 316.907 429.014C319.918 428.761 321.092 431.98 318.373 433.02C314.433 434.526 310.728 436.424 308.797 438.671C303.47 444.867 295.949 440.514 295.949 440.514Z" fill="#7A8E4C"/>
<path d="M295.26 475L293.342 474.572C293.364 474.512 295.563 468.514 290.9 462.807L292.596 462C297.747 468.304 295.364 474.73 295.26 475Z" fill="#745751"/>
<path d="M291.851 462.629C291.851 462.629 293.393 455.028 279.186 452.942C276.226 452.508 273.443 452.211 270.893 452.013C267.882 451.779 266.707 454.751 269.427 455.711C273.366 457.101 277.072 458.853 279.003 460.927C284.33 466.647 291.851 462.629 291.851 462.629Z" fill="#7A8E4C"/>
<path d="M391.365 122.693C394.211 121.943 396.874 120.635 396.785 119.341C396.681 117.804 392.728 116.774 389.318 116.617C391.89 114.605 394.253 111.824 393.531 110.566C392.866 109.409 389.776 109.857 386.924 110.876C388.612 108.463 389.798 105.745 388.894 104.815C387.769 103.656 383.775 105.656 381.048 107.867C381.579 104.422 381.311 100.074 379.766 99.681C378.473 99.3519 376.642 101.881 375.386 104.636C374.831 101.745 373.707 99 372.41 99C370.563 99 369.065 104.57 369.065 108.199C369.065 108.404 369.07 108.597 369.08 108.782C368.894 108.567 368.682 108.342 368.439 108.107C365.836 105.579 360.797 102.772 359.51 104.098C358.606 105.028 359.793 107.747 361.48 110.159C358.629 109.141 355.538 108.693 354.874 109.849C353.981 111.403 357.797 115.282 360.898 117.163C360.712 117.141 360.516 117.122 360.307 117.108C356.687 116.861 351.028 117.976 350.902 119.819C350.814 121.113 353.476 122.421 356.323 123.171C353.488 124.237 350.84 125.892 351.081 127.204C351.372 128.796 355.822 129.354 359.32 129.027C356.707 131.535 353.873 136.027 355.055 137.343C355.922 138.308 358.715 137.31 361.237 135.79C360.027 138.566 359.369 141.619 360.478 142.36C361.943 143.34 365.961 139.93 368.079 136.995C367.863 140.585 368.722 145.518 370.427 145.713C371.716 145.86 373.143 143.26 374.023 140.45C374.958 143.33 376.491 146.051 377.813 145.87C379.531 145.636 380.28 140.58 379.96 136.987C382.145 139.801 385.822 142.811 387.21 141.882C388.318 141.141 387.661 138.088 386.451 135.312C388.972 136.832 391.765 137.83 392.632 136.866C393.815 135.549 390.981 131.057 388.367 128.549C391.866 128.876 396.315 128.318 396.607 126.726C396.847 125.414 394.199 123.759 391.365 122.693ZM374.695 127.204C373.963 127.304 374.909 127.136 374.4 127.5C373.859 126.963 374.278 128.183 373.4 128.083C372.417 127.971 372.581 126.933 371.9 127.5C371.651 126.807 372.114 127.204 371.4 126.726C370.786 126.315 371.049 126.065 370.427 126C370.378 125.24 371.49 126.657 370.9 126C370.523 125.581 370.496 125.751 370.078 125.5C370.681 124.766 370.265 125.376 370.078 124.358C369.945 123.631 371.287 123.663 370.9 123.171C371.411 122.607 370.018 123.359 370.078 122.478C370.144 121.515 372.455 122.65 371.9 122C373.336 122.183 370.756 121.834 371.4 120.713C371.768 120.073 371.377 120.861 371.4 120.236C372.155 120.135 372.284 120.869 372.9 120.236C373.426 119.694 374.232 121.617 374.4 121C375.002 121.506 373.116 120.236 374.023 120.236C374.907 120.236 374.097 121.185 374.695 120.713C375.159 121.133 373.979 119.637 374.695 119.819C375.378 119.993 374.314 120.117 374.9 120C375.114 120.489 374.951 119.371 375.386 119.819C376.001 120.453 374.145 119.9 374.9 120C374.922 120.625 376.032 119.178 376.4 119.819C376.833 120.573 373.712 121.709 374.4 122C374.32 122.438 374.66 122.449 374.695 122.956C374.755 123.837 375.388 122.936 375.9 123.5C375.513 123.992 377.533 123.631 377.4 124.358C377.213 125.376 375.797 124.266 376.4 125C375.982 125.251 378.608 125.581 378.232 126C377.641 126.657 377.861 125.74 377.813 126.5C377.19 126.565 377.514 125.589 376.9 126C376.061 126.561 376.034 126.597 375.9 127.5C375.271 127.195 375.508 127.093 374.695 127.204Z" fill="#FCA3A3"/>
<path d="M552.236 282.173C554.16 281.661 555.958 280.768 555.898 279.885C555.828 278.836 553.158 278.133 550.854 278.026C552.591 276.652 554.188 274.754 553.7 273.895C553.251 273.106 551.163 273.411 549.237 274.107C550.377 272.46 551.178 270.604 550.568 269.969C549.807 269.178 547.109 270.543 545.267 272.053C545.626 269.701 545.444 266.733 544.401 266.465C543.528 266.24 542.29 267.967 541.442 269.847C541.067 267.874 540.307 266 539.431 266C538.183 266 537.172 269.802 537.172 272.279C537.172 272.419 537.175 272.551 537.182 272.677C537.056 272.53 536.913 272.377 536.749 272.216C534.99 270.491 531.586 268.575 530.716 269.48C530.106 270.115 530.907 271.971 532.047 273.617C530.121 272.922 528.033 272.616 527.584 273.406C526.981 274.466 529.559 277.114 531.654 278.398C531.529 278.383 531.396 278.37 531.255 278.36C528.809 278.192 524.986 278.953 524.901 280.211C524.842 281.094 526.64 281.987 528.563 282.499C526.649 283.227 524.86 284.357 525.022 285.252C525.219 286.339 528.225 286.72 530.588 286.497C528.823 288.209 526.908 291.275 527.707 292.174C528.293 292.832 530.18 292.15 531.883 291.113C531.066 293.008 530.621 295.092 531.37 295.598C532.36 296.267 535.074 293.939 536.506 291.935C536.36 294.386 536.94 297.753 538.092 297.886C538.962 297.987 539.927 296.212 540.521 294.294C541.153 296.26 542.188 298.117 543.081 297.994C544.242 297.834 544.748 294.383 544.532 291.93C546.008 293.851 548.492 295.905 549.429 295.272C550.178 294.766 549.734 292.682 548.917 290.787C550.62 291.824 552.507 292.506 553.093 291.847C553.892 290.949 551.977 287.882 550.211 286.171C552.575 286.393 555.581 286.013 555.778 284.926C555.94 284.031 554.151 282.901 552.236 282.173ZM540.975 285.252C540.48 285.32 541.119 285.206 540.776 285.454C540.41 285.088 540.693 285.921 540.1 285.852C539.436 285.776 539.547 285.067 539.087 285.454C538.918 284.981 539.231 285.252 538.749 284.926C538.334 284.646 538.512 284.475 538.092 284.43C538.059 283.912 538.81 284.879 538.411 284.43C538.157 284.144 538.139 284.26 537.856 284.089C538.264 283.588 537.982 284.005 537.856 283.31C537.766 282.814 538.673 282.835 538.411 282.499C538.757 282.114 537.816 282.628 537.856 282.026C537.901 281.369 539.462 282.144 539.087 281.7C540.057 281.825 538.314 281.587 538.749 280.822C538.997 280.385 538.734 280.922 538.749 280.496C539.259 280.427 539.346 280.928 539.762 280.496C540.118 280.126 540.662 281.439 540.776 281.017C541.183 281.363 539.908 280.496 540.521 280.496C541.118 280.496 540.571 281.144 540.975 280.822C541.288 281.108 540.491 280.087 540.975 280.211C541.436 280.33 540.717 280.415 541.113 280.335C541.258 280.669 541.148 279.906 541.442 280.211C541.857 280.644 540.603 280.266 541.113 280.335C541.129 280.762 541.878 279.774 542.127 280.211C542.419 280.726 540.311 281.501 540.776 281.7C540.721 281.999 540.951 282.006 540.975 282.352C541.015 282.954 541.443 282.339 541.789 282.724C541.528 283.06 542.892 282.814 542.802 283.31C542.676 284.005 541.719 283.247 542.127 283.748C541.844 283.919 543.619 284.144 543.364 284.43C542.965 284.879 543.114 284.253 543.081 284.772C542.661 284.816 542.879 284.15 542.465 284.43C541.898 284.813 541.88 284.838 541.789 285.454C541.364 285.246 541.524 285.177 540.975 285.252Z" fill="#F29797"/>
<path d="M391.365 122.693C394.211 121.943 396.874 120.635 396.785 119.341C396.681 117.804 392.728 116.774 389.318 116.617C391.89 114.605 394.253 111.824 393.531 110.566C392.866 109.409 389.776 109.857 386.924 110.876C388.612 108.463 389.798 105.745 388.894 104.815C387.769 103.656 383.775 105.656 381.048 107.867C381.579 104.422 381.311 100.074 379.766 99.681C378.473 99.3519 376.642 101.881 375.386 104.636C374.831 101.745 373.707 99 372.41 99C370.563 99 369.065 104.57 369.065 108.199C369.065 108.404 369.07 108.597 369.08 108.782C368.894 108.567 368.682 108.342 368.439 108.107C365.836 105.579 360.797 102.772 359.51 104.098C358.606 105.028 359.793 107.747 361.48 110.159C358.629 109.141 355.538 108.693 354.874 109.849C353.981 111.403 357.797 115.282 360.898 117.163C360.712 117.141 360.516 117.122 360.307 117.108C356.687 116.861 351.028 117.976 350.902 119.819C350.814 121.113 353.476 122.421 356.323 123.171C353.488 124.237 350.84 125.892 351.081 127.204C351.372 128.796 355.822 129.354 359.32 129.027C356.707 131.535 353.873 136.027 355.055 137.343C355.922 138.308 358.715 137.31 361.237 135.79C360.027 138.566 359.369 141.619 360.478 142.36C361.943 143.34 365.961 139.93 368.079 136.995C367.863 140.585 368.722 145.518 370.427 145.713C371.716 145.86 373.143 143.26 374.023 140.45C374.958 143.33 376.491 146.051 377.813 145.87C379.531 145.636 380.28 140.58 379.96 136.987C382.145 139.801 385.822 142.811 387.21 141.882C388.318 141.141 387.661 138.088 386.451 135.312C388.972 136.832 391.765 137.83 392.632 136.866C393.815 135.549 390.981 131.057 388.367 128.549C391.866 128.876 396.315 128.318 396.607 126.726C396.847 125.414 394.199 123.759 391.365 122.693ZM374.695 127.204C373.963 127.304 374.909 127.136 374.4 127.5C373.859 126.963 374.278 128.183 373.4 128.083C372.417 127.971 372.581 126.933 371.9 127.5C371.651 126.807 372.114 127.204 371.4 126.726C370.786 126.315 371.049 126.065 370.427 126C370.378 125.24 371.49 126.657 370.9 126C370.523 125.581 370.496 125.751 370.078 125.5C370.681 124.766 370.265 125.376 370.078 124.358C369.945 123.631 371.287 123.663 370.9 123.171C371.411 122.607 370.018 123.359 370.078 122.478C370.144 121.515 372.455 122.65 371.9 122C373.336 122.183 370.756 121.834 371.4 120.713C371.768 120.073 371.377 120.861 371.4 120.236C372.155 120.135 372.284 120.869 372.9 120.236C373.426 119.694 374.232 121.617 374.4 121C375.002 121.506 373.116 120.236 374.023 120.236C374.907 120.236 374.097 121.185 374.695 120.713C375.159 121.133 373.979 119.637 374.695 119.819C375.378 119.993 374.314 120.117 374.9 120C375.114 120.489 374.951 119.371 375.386 119.819C376.001 120.453 374.145 119.9 374.9 120C374.922 120.625 376.032 119.178 376.4 119.819C376.833 120.573 373.712 121.709 374.4 122C374.32 122.438 374.66 122.449 374.695 122.956C374.755 123.837 375.388 122.936 375.9 123.5C375.513 123.992 377.533 123.631 377.4 124.358C377.213 125.376 375.797 124.266 376.4 125C375.982 125.251 378.608 125.581 378.232 126C377.641 126.657 377.861 125.74 377.813 126.5C377.19 126.565 377.514 125.589 376.9 126C376.061 126.561 376.034 126.597 375.9 127.5C375.271 127.195 375.508 127.093 374.695 127.204Z" fill="#FCA3A3"/>
<path d="M306.365 416.693C309.211 415.943 311.874 414.635 311.785 413.341C311.681 411.804 307.728 410.774 304.318 410.617C306.89 408.605 309.253 405.824 308.531 404.566C307.866 403.409 304.776 403.857 301.924 404.876C303.612 402.463 304.798 399.745 303.894 398.815C302.769 397.656 298.775 399.656 296.048 401.867C296.579 398.422 296.311 394.074 294.766 393.681C293.473 393.352 291.642 395.881 290.386 398.636C289.831 395.745 288.707 393 287.41 393C285.563 393 284.065 398.57 284.065 402.199C284.065 402.404 284.07 402.597 284.08 402.782C283.894 402.567 283.682 402.342 283.439 402.107C280.836 399.579 275.797 396.772 274.51 398.098C273.606 399.028 274.793 401.747 276.48 404.159C273.629 403.141 270.538 402.693 269.874 403.849C268.981 405.403 272.797 409.282 275.898 411.163C275.712 411.141 275.516 411.122 275.307 411.108C271.687 410.861 266.028 411.976 265.902 413.819C265.814 415.113 268.476 416.421 271.323 417.171C268.488 418.237 265.84 419.892 266.081 421.204C266.372 422.796 270.822 423.354 274.32 423.027C271.707 425.535 268.873 430.027 270.055 431.343C270.922 432.308 273.715 431.31 276.237 429.79C275.027 432.566 274.369 435.619 275.478 436.36C276.943 437.34 280.961 433.93 283.079 430.995C282.863 434.585 283.722 439.518 285.427 439.712C286.716 439.86 288.143 437.26 289.023 434.45C289.958 437.33 291.491 440.051 292.813 439.87C294.531 439.636 295.28 434.58 294.96 430.987C297.145 433.801 300.822 436.81 302.21 435.882C303.318 435.141 302.661 432.088 301.451 429.312C303.972 430.832 306.765 431.83 307.632 430.866C308.815 429.549 305.981 425.057 303.367 422.549C306.866 422.876 311.315 422.318 311.607 420.726C311.847 419.414 309.199 417.759 306.365 416.693ZM289.695 421.204C288.963 421.304 289.909 421.136 289.4 421.5C288.859 420.963 289.278 422.183 288.4 422.083C287.417 421.971 287.581 420.933 286.9 421.5C286.651 420.807 287.114 421.204 286.4 420.726C285.786 420.315 286.049 420.065 285.427 420C285.378 419.24 286.49 420.657 285.9 420C285.523 419.581 285.496 419.751 285.078 419.5C285.681 418.766 285.265 419.376 285.078 418.358C284.945 417.631 286.287 417.663 285.9 417.171C286.411 416.607 285.018 417.359 285.078 416.478C285.144 415.515 287.455 416.65 286.9 416C288.336 416.183 285.756 415.834 286.4 414.713C286.768 414.073 286.377 414.861 286.4 414.236C287.155 414.135 287.284 414.869 287.9 414.236C288.426 413.694 289.232 415.617 289.4 415C290.002 415.506 288.116 414.236 289.023 414.236C289.907 414.236 289.097 415.185 289.695 414.713C290.159 415.133 288.979 413.637 289.695 413.819C290.378 413.993 289.314 414.117 289.9 414C290.114 414.489 289.951 413.371 290.386 413.819C291.001 414.453 289.145 413.9 289.9 414C289.922 414.625 291.032 413.178 291.4 413.819C291.833 414.573 288.712 415.709 289.4 416C289.32 416.438 289.66 416.449 289.695 416.956C289.755 417.837 290.388 416.935 290.9 417.5C290.513 417.992 292.533 417.631 292.4 418.358C292.213 419.376 290.797 418.266 291.4 419C290.982 419.251 293.608 419.581 293.232 420C292.641 420.657 292.861 419.74 292.813 420.5C292.19 420.565 292.514 419.589 291.9 420C291.061 420.561 291.034 420.597 290.9 421.5C290.271 421.195 290.508 421.093 289.695 421.204Z" fill="#FCA3A3"/>
<path d="M301.346 416.149C298.703 415.133 296.291 413.579 296.502 412.296C296.752 410.772 300.625 410.115 303.894 410.278C301.637 408.03 299.654 405.033 300.467 403.845C301.215 402.754 304.12 403.49 306.741 404.774C305.367 402.208 304.501 399.385 305.455 398.541C306.642 397.49 310.258 399.86 312.643 402.322C312.474 398.835 313.156 394.522 314.669 394.274C315.934 394.067 317.435 396.762 318.363 399.629C319.176 396.796 320.518 394.162 321.755 394.284C323.518 394.457 324.402 400.155 324.046 403.776C324.026 403.981 324.002 404.173 323.975 404.356C324.173 404.159 324.398 403.955 324.652 403.743C327.384 401.464 332.468 399.136 333.566 400.579C334.337 401.592 332.939 404.193 331.092 406.442C333.913 405.693 336.906 405.536 337.427 406.752C338.127 408.386 334.105 411.899 330.961 413.485C331.141 413.481 331.33 413.48 331.53 413.485C335.01 413.578 340.301 415.221 340.24 417.072C340.198 418.371 337.529 419.427 334.739 419.909C337.339 421.237 339.704 423.137 339.346 424.424C338.912 425.985 334.611 426.124 331.305 425.471C333.553 428.218 335.818 432.966 334.56 434.168C333.639 435.05 331.071 433.792 328.813 432.04C329.696 434.922 330.025 438.03 328.894 438.666C327.4 439.507 323.9 435.727 322.166 432.6C322.02 436.203 320.717 441.044 319.071 441.079C317.827 441.105 316.72 438.377 316.156 435.491C314.981 438.277 313.252 440.848 312.008 440.544C310.391 440.149 310.172 435.034 310.83 431.479C308.469 434.082 304.664 436.741 303.431 435.685C302.446 434.841 303.373 431.857 304.799 429.201C302.244 430.48 299.481 431.215 298.748 430.171C297.749 428.747 300.893 424.53 303.633 422.273C300.263 422.271 296.071 421.298 295.949 419.682C295.848 418.35 298.537 416.947 301.346 416.149ZM316.812 422.211C317.501 422.38 316.614 422.123 317.064 422.534C317.633 422.05 317.114 423.228 317.962 423.21C318.911 423.19 318.856 422.139 319.45 422.769C319.756 422.101 319.275 422.453 320.003 422.043C320.629 421.691 320.402 421.416 321.003 421.41C321.123 420.656 319.923 421.966 320.551 421.366C320.952 420.983 320.961 421.155 321.384 420.944C320.881 420.155 321.218 420.803 321.496 419.804C321.694 419.092 320.411 418.997 320.828 418.543C320.396 417.932 321.651 418.813 321.68 417.928C321.712 416.962 319.395 417.877 319.989 417.281C318.601 417.328 321.097 417.223 320.592 416.044C320.304 415.37 320.599 416.193 320.639 415.567C319.928 415.396 319.733 416.117 319.207 415.427C318.759 414.837 317.801 416.68 317.701 416.049C317.077 416.498 319.001 415.406 318.136 415.321C317.293 415.239 317.972 416.262 317.448 415.735C316.964 416.11 318.236 414.728 317.536 414.843C316.867 414.952 317.87 415.176 317.322 415.004C317.07 415.472 317.335 414.372 316.876 414.778C316.227 415.353 318.052 414.975 317.322 415.004C317.239 415.626 316.322 414.078 315.908 414.683C315.421 415.394 318.288 416.821 317.603 417.047C317.637 417.491 317.311 417.47 317.228 417.972C317.085 418.846 316.568 417.887 316.025 418.403C316.346 418.93 314.454 418.381 314.509 419.118C314.588 420.152 316.048 419.176 315.401 419.853C315.775 420.142 313.236 420.225 313.555 420.679C314.054 421.39 313.934 420.454 313.906 421.217C314.493 421.34 314.28 420.336 314.826 420.803C315.571 421.442 315.593 421.481 315.633 422.394C316.263 422.148 316.047 422.024 316.812 422.211Z" fill="#F5C7C7"/>
<path d="M552.236 282.173C554.16 281.661 555.958 280.768 555.898 279.885C555.828 278.836 553.158 278.133 550.854 278.026C552.591 276.652 554.188 274.754 553.7 273.895C553.251 273.106 551.163 273.411 549.237 274.107C550.377 272.46 551.178 270.604 550.568 269.969C549.807 269.178 547.109 270.543 545.267 272.053C545.626 269.701 545.444 266.733 544.401 266.465C543.528 266.24 542.29 267.967 541.442 269.847C541.067 267.874 540.307 266 539.431 266C538.183 266 537.172 269.802 537.172 272.279C537.172 272.419 537.175 272.551 537.182 272.677C537.056 272.53 536.913 272.377 536.749 272.216C534.99 270.491 531.586 268.575 530.716 269.48C530.106 270.115 530.907 271.971 532.047 273.617C530.121 272.922 528.033 272.616 527.584 273.406C526.981 274.466 529.559 277.114 531.654 278.398C531.529 278.383 531.396 278.37 531.255 278.36C528.809 278.192 524.986 278.953 524.901 280.211C524.842 281.094 526.64 281.987 528.563 282.499C526.649 283.227 524.86 284.357 525.022 285.252C525.219 286.339 528.225 286.72 530.588 286.497C528.823 288.209 526.908 291.275 527.707 292.174C528.293 292.832 530.18 292.15 531.883 291.113C531.066 293.008 530.621 295.092 531.37 295.598C532.36 296.267 535.074 293.939 536.506 291.935C536.36 294.386 536.94 297.753 538.092 297.886C538.962 297.987 539.927 296.212 540.521 294.294C541.153 296.26 542.188 298.117 543.081 297.994C544.242 297.834 544.748 294.383 544.532 291.93C546.008 293.851 548.492 295.905 549.429 295.272C550.178 294.766 549.734 292.682 548.917 290.787C550.62 291.824 552.507 292.506 553.093 291.847C553.892 290.949 551.977 287.882 550.211 286.171C552.575 286.393 555.581 286.013 555.778 284.926C555.94 284.031 554.151 282.901 552.236 282.173ZM540.975 285.252C540.48 285.32 541.119 285.206 540.776 285.454C540.41 285.088 540.693 285.921 540.1 285.852C539.436 285.776 539.547 285.067 539.087 285.454C538.918 284.981 539.231 285.252 538.749 284.926C538.334 284.646 538.512 284.475 538.092 284.43C538.059 283.912 538.81 284.879 538.411 284.43C538.157 284.144 538.139 284.26 537.856 284.089C538.264 283.588 537.982 284.005 537.856 283.31C537.766 282.814 538.673 282.835 538.411 282.499C538.757 282.114 537.816 282.628 537.856 282.026C537.901 281.369 539.462 282.144 539.087 281.7C540.057 281.825 538.314 281.587 538.749 280.822C538.997 280.385 538.734 280.922 538.749 280.496C539.259 280.427 539.346 280.928 539.762 280.496C540.118 280.126 540.662 281.439 540.776 281.017C541.183 281.363 539.908 280.496 540.521 280.496C541.118 280.496 540.571 281.144 540.975 280.822C541.288 281.108 540.491 280.087 540.975 280.211C541.436 280.33 540.717 280.415 541.113 280.335C541.258 280.669 541.148 279.906 541.442 280.211C541.857 280.644 540.603 280.266 541.113 280.335C541.129 280.762 541.878 279.774 542.127 280.211C542.419 280.726 540.311 281.501 540.776 281.7C540.721 281.999 540.951 282.006 540.975 282.352C541.015 282.954 541.443 282.339 541.789 282.724C541.528 283.06 542.892 282.814 542.802 283.31C542.676 284.005 541.719 283.247 542.127 283.748C541.844 283.919 543.619 284.144 543.364 284.43C542.965 284.879 543.114 284.253 543.081 284.772C542.661 284.816 542.879 284.15 542.465 284.43C541.898 284.813 541.88 284.838 541.789 285.454C541.364 285.246 541.524 285.177 540.975 285.252Z" fill="#F29797"/>
<path d="M373.9 129C377.214 129 379.9 126.538 379.9 123.5C379.9 120.462 377.214 118 373.9 118C370.586 118 367.9 120.462 367.9 123.5C367.9 126.538 370.586 129 373.9 129Z" fill="#3F3D56"/>
<path d="M288.9 423C292.214 423 294.9 420.538 294.9 417.5C294.9 414.462 292.214 412 288.9 412C285.586 412 282.9 414.462 282.9 417.5C282.9 420.538 285.586 423 288.9 423Z" fill="#3F3D56"/>
<path d="M317.456 424.006C314.158 423.682 311.725 420.969 312.022 417.946C312.319 414.923 315.233 412.735 318.531 413.059C321.829 413.382 324.261 416.096 323.965 419.119C323.668 422.142 320.754 424.33 317.456 424.006Z" fill="#3F3D56"/>
<path d="M540.9 286C543.109 286 544.9 284.433 544.9 282.5C544.9 280.567 543.109 279 540.9 279C538.691 279 536.9 280.567 536.9 282.5C536.9 284.433 538.691 286 540.9 286Z" fill="#3F3D56"/>
<path d="M106.806 80.365C102.479 92.8357 107.792 106.005 107.792 106.005C107.792 106.005 120.12 98.9563 124.447 86.4856C128.774 74.0148 123.461 60.8461 123.461 60.8461C123.461 60.8461 111.133 67.8942 106.806 80.365Z" fill="#4C3A36"/>
<path d="M73.8286 130.547C84.1009 138.837 98.2916 138.291 98.2916 138.291C98.2916 138.291 95.8273 124.305 85.5549 116.016C75.2825 107.726 61.0929 108.272 61.0929 108.272C61.0929 108.272 63.5562 122.257 73.8286 130.547Z" fill="#8B726D"/>
<path d="M112.534 80.9535C115.164 93.8879 108.149 106.235 108.149 106.235C108.149 106.235 96.8678 97.6098 94.232 84.6766C91.5962 71.7434 98.6163 59.395 98.6163 59.395C98.6163 59.395 109.903 68.019 112.534 80.9535Z" fill="#B5BF96"/>
<path d="M76.3195 125.356C89.3816 127.255 98.6284 138.032 98.6284 138.032C98.6284 138.032 86.6959 145.732 73.6333 143.838C60.5708 141.944 51.3245 131.161 51.3245 131.161C51.3245 131.161 63.2575 123.457 76.3195 125.356Z" fill="#7B8558"/>
<path d="M84.3366 109.74C96.0704 103.695 109.859 107.094 109.859 107.094C109.859 107.094 104.622 120.294 92.8903 126.343C81.159 132.392 67.3681 128.989 67.3681 128.989C67.3681 128.989 72.6029 115.785 84.3366 109.74Z" fill="#8F996D"/>
<path d="M91.0735 86.0312C102.475 92.6821 107.014 106.138 107.014 106.138C107.014 106.138 93.0668 108.811 81.6653 102.159C70.2638 95.5073 65.7247 82.0521 65.7247 82.0521C65.7247 82.0521 79.6723 79.3804 91.0735 86.0312Z" fill="#8F996D"/>
<path d="M73.8398 147.268C83.9548 138.789 98.1532 139.068 98.1532 139.068C98.1532 139.068 95.9512 153.097 85.8352 161.577C75.7191 170.057 61.5217 169.778 61.5217 169.778C61.5217 169.778 63.7247 155.748 73.8398 147.268Z" fill="#8F996D"/>
<path d="M95.0515 129.015C98.356 116.236 110.074 108.212 110.074 108.212C110.074 108.212 116.434 120.91 113.128 133.689C109.823 146.469 98.1063 154.491 98.1063 154.491C98.1063 154.491 91.747 141.794 95.0515 129.015Z" fill="#686E54"/>
<path d="M85.3257 115.413C98.5028 116.19 109.735 107.5 109.735 107.5C109.735 107.5 99.6024 97.5499 86.4253 96.7725C73.2481 95.9951 62.0172 104.685 62.0172 104.685C62.0172 104.685 72.1485 114.635 85.3257 115.413Z" fill="#4C3A36"/>
<path d="M99.5456 162.615C104.734 150.477 100.355 136.968 100.355 136.968C100.355 136.968 87.5643 143.138 82.376 155.276C77.1876 167.413 81.5666 180.921 81.5666 180.921C81.5666 180.921 94.3572 174.753 99.5456 162.615Z" fill="#4C3A36"/>
<path d="M132.427 102.215C143.193 94.5774 146.518 80.7709 146.518 80.7709C146.518 80.7709 132.389 79.3483 121.623 86.9862C110.857 94.624 107.532 108.429 107.532 108.429C107.532 108.429 121.661 109.853 132.427 102.215Z" fill="#655653"/>
<path d="M200.539 105.386C188.889 99.1791 175.055 102.387 175.055 102.387C175.055 102.387 180.108 115.658 191.758 121.865C203.407 128.073 217.24 124.865 217.24 124.865C217.24 124.865 212.188 111.594 200.539 105.386Z" fill="#4C3A36"/>
<path d="M156.074 65.0304C146.292 73.8939 144.632 87.9976 144.632 87.9976C144.632 87.9976 158.83 87.7306 168.612 78.8671C178.394 70.0036 180.054 55.9008 180.054 55.9008C180.054 55.9008 165.856 56.1669 156.074 65.0304Z" fill="#8B726D"/>
<path d="M199.07 110.954C185.884 111.548 174.773 102.704 174.773 102.704C174.773 102.704 185.042 92.8958 198.228 92.2962C211.413 91.6966 222.524 100.546 222.524 100.546C222.524 100.546 212.256 110.359 199.07 110.954Z" fill="#B5BF96"/>
<path d="M160.816 68.2957C156.916 80.9057 144.835 88.3704 144.835 88.3704C144.835 88.3704 139.078 75.3888 142.974 62.7776C146.869 50.1664 158.954 42.7029 158.954 42.7029C158.954 42.7029 164.716 55.6858 160.816 68.2957Z" fill="#7B8558"/>
<path d="M175.001 78.636C179.154 91.1648 173.66 104.26 173.66 104.26C173.66 104.26 161.431 97.0402 157.273 84.5132C153.115 71.9861 158.614 58.8893 158.614 58.8893C158.614 58.8893 170.847 66.1071 175.001 78.636Z" fill="#8F996D"/>
<path d="M197.379 88.966C189.041 99.1987 175.044 101.598 175.044 101.598C175.044 101.598 174.565 87.4048 182.904 77.172C191.242 66.9391 205.239 64.5402 205.239 64.5402C205.239 64.5402 205.716 78.7333 197.379 88.966Z" fill="#8F996D"/>
<path d="M139.553 62.4499C146.362 73.7569 143.886 87.7405 143.886 87.7405C143.886 87.7405 130.367 83.3908 123.558 72.0828C116.748 60.7748 119.224 46.7922 119.224 46.7922C119.224 46.7922 132.743 51.1428 139.553 62.4499Z" fill="#8F996D"/>
<path d="M154.298 86.2344C166.411 91.4795 172.521 104.299 172.521 104.299C172.521 104.299 158.992 108.614 146.879 103.368C134.766 98.1223 128.656 85.3039 128.656 85.3039C128.656 85.3039 142.186 80.9893 154.298 86.2344Z" fill="#686E54"/>
<path d="M169.243 78.7341C166.433 91.6315 173.278 104.074 173.278 104.074C173.278 104.074 184.678 95.6066 187.488 82.7092C190.298 69.8117 183.454 57.3698 183.454 57.3698C183.454 57.3698 172.054 65.8366 169.243 78.7341Z" fill="#4C3A36"/>
<path d="M120.408 85.4667C131.595 92.4734 145.619 90.2408 145.619 90.2408C145.619 90.2408 141.506 76.6487 130.319 69.6419C119.132 62.6352 105.109 64.8678 105.109 64.8678C105.109 64.8678 109.221 78.4599 120.408 85.4667Z" fill="#4C3A36"/>
<path d="M174.981 127.312C180.859 139.131 193.983 144.556 193.983 144.556C193.983 144.556 197.578 130.818 191.701 118.998C185.824 107.179 172.701 101.755 172.701 101.755C172.701 101.755 169.104 115.492 174.981 127.312Z" fill="#655653"/>
<path d="M100.905 191.793C105.81 179.538 101.118 166.135 101.118 166.135C101.118 166.135 88.4743 172.6 83.5695 184.855C78.6646 197.11 83.3563 210.513 83.3563 210.513C83.3563 210.513 96.0002 204.048 100.905 191.793Z" fill="#4C3A36"/>
<path d="M136.191 143.207C126.317 134.447 112.117 134.329 112.117 134.329C112.117 134.329 113.925 148.414 123.799 157.175C133.672 165.935 147.872 166.053 147.872 166.053C147.872 166.053 146.065 151.968 136.191 143.207Z" fill="#8B726D"/>
<path d="M95.2111 190.938C93.1874 177.895 100.772 165.889 100.772 165.889C100.772 165.889 111.638 175.032 113.667 188.074C115.695 201.116 108.106 213.123 108.106 213.123C108.106 213.123 97.2348 203.981 95.2111 190.938Z" fill="#B5BF96"/>
<path d="M133.46 148.276C120.501 145.769 111.768 134.571 111.768 134.571C111.768 134.571 124.047 127.438 137.007 129.94C149.967 132.442 158.699 143.645 158.699 143.645C158.699 143.645 146.419 150.783 133.46 148.276Z" fill="#7B8558"/>
<path d="M124.722 163.5C112.719 168.99 99.1045 164.951 99.1045 164.951C99.1045 164.951 104.953 152.01 116.954 146.516C128.955 141.022 142.572 145.065 142.572 145.065C142.572 145.065 136.726 158.01 124.722 163.5Z" fill="#8F996D"/>
<path d="M116.885 186.868C105.807 179.692 101.901 166.039 101.901 166.039C101.901 166.039 115.958 164.02 127.036 171.198C138.115 178.375 142.02 192.028 142.02 192.028C142.02 192.028 127.963 194.045 116.885 186.868Z" fill="#8F996D"/>
<path d="M136.961 126.503C126.461 134.501 112.291 133.559 112.291 133.559C112.291 133.559 115.146 119.648 125.648 111.65C136.149 103.652 150.318 104.594 150.318 104.594C150.318 104.594 147.461 118.505 136.961 126.503Z" fill="#8F996D"/>
<path d="M114.92 143.746C111.022 156.357 98.942 163.824 98.942 163.824C98.942 163.824 93.182 150.843 97.0809 138.232C100.98 125.621 113.059 118.154 113.059 118.154C113.059 118.154 118.818 131.135 114.92 143.746Z" fill="#686E54"/>
<path d="M123.999 157.788C110.873 156.396 99.2474 164.551 99.2474 164.551C99.2474 164.551 108.904 174.964 122.03 176.356C135.157 177.748 146.781 169.593 146.781 169.593C146.781 169.593 137.126 159.18 123.999 157.788Z" fill="#4C3A36"/>
<path d="M112.001 109.973C106.251 121.855 109.994 135.553 109.994 135.553C109.994 135.553 123.059 129.988 128.809 118.106C134.558 106.224 130.815 92.5261 130.815 92.5261C130.815 92.5261 117.75 98.0906 112.001 109.973Z" fill="#4C3A36"/>
<path d="M76.3326 168.77C65.2216 175.896 61.2552 189.532 61.2552 189.532C61.2552 189.532 75.3026 191.614 86.4137 184.487C97.5247 177.361 101.491 163.726 101.491 163.726C101.491 163.726 87.4436 161.643 76.3326 168.77Z" fill="#655653"/>
<path d="M146.688 131.275C159.404 134.819 172.218 128.699 172.218 128.699C172.218 128.699 164.417 116.832 151.702 113.288C138.987 109.744 126.173 115.864 126.173 115.864C126.173 115.864 133.973 127.731 146.688 131.275Z" fill="#4C3A36"/>
<path d="M198.821 161.073C206.457 150.306 205.031 136.177 205.031 136.177C205.031 136.177 191.226 139.504 183.59 150.271C175.953 161.039 177.379 175.167 177.379 175.167C177.379 175.167 191.185 171.84 198.821 161.073Z" fill="#8B726D"/>
<path d="M146.92 125.522C159.666 122.093 172.425 128.328 172.425 128.328C172.425 128.328 164.517 140.123 151.772 143.557C139.028 146.99 126.267 140.75 126.267 140.75C126.267 140.75 134.174 128.951 146.92 125.522Z" fill="#B5BF96"/>
<path d="M193.485 158.909C194.569 145.754 204.752 135.856 204.752 135.856C204.752 135.856 213.177 147.288 212.098 160.443C211.019 173.598 200.831 183.496 200.831 183.496C200.831 183.496 192.401 172.064 193.485 158.909Z" fill="#7B8558"/>
<path d="M177.402 151.877C170.64 140.541 173.176 126.569 173.176 126.569C173.176 126.569 186.676 130.976 193.441 142.309C200.207 153.642 197.667 167.618 197.667 167.618C197.667 167.618 184.164 163.213 177.402 151.877Z" fill="#8F996D"/>
<path d="M153.32 146.625C159.251 134.833 172.399 129.467 172.399 129.467C172.399 129.467 175.932 143.221 170.001 155.014C164.07 166.806 150.923 172.172 150.923 172.172C150.923 172.172 147.39 158.417 153.32 146.625Z" fill="#8F996D"/>
<path d="M215.509 160.024C206.418 150.455 205.815 136.266 205.815 136.266C205.815 136.266 219.954 137.593 229.046 147.163C238.137 156.733 238.74 170.921 238.74 170.921C238.74 170.921 224.601 169.593 215.509 160.024Z" fill="#8F996D"/>
<path d="M195.974 139.986C183.014 137.481 174.279 126.285 174.279 126.285C174.279 126.285 186.557 119.148 199.517 121.654C212.477 124.16 221.212 135.356 221.212 135.356C221.212 135.356 208.933 142.491 195.974 139.986Z" fill="#686E54"/>
<path d="M183.002 150.538C182.96 137.338 173.589 126.667 173.589 126.667C173.589 126.667 164.287 137.398 164.329 150.598C164.372 163.797 173.742 174.467 173.742 174.467C173.742 174.467 183.044 163.738 183.002 150.538Z" fill="#4C3A36"/>
<path d="M229.23 133.415C216.794 128.99 203.583 134.199 203.583 134.199C203.583 134.199 210.535 146.582 222.971 151.007C235.408 155.432 248.618 150.223 248.618 150.223C248.618 150.223 241.667 137.84 229.23 133.415Z" fill="#4C3A36"/>
<path d="M166.906 104.346C158.614 94.0755 144.628 91.6141 144.628 91.6141C144.628 91.6141 144.085 105.805 152.377 116.075C160.668 126.346 174.654 128.807 174.654 128.807C174.654 128.807 175.197 114.617 166.906 104.346Z" fill="#655653"/>
<path d="M266.171 138.059C256.128 129.493 241.927 129.653 241.927 129.653C241.927 129.653 244.01 143.7 254.053 152.266C264.096 160.832 278.295 160.673 278.295 160.673C278.295 160.673 276.214 146.626 266.171 138.059Z" fill="#4C3A36"/>
<path d="M231.42 89.0892C219.962 95.6431 215.309 109.06 215.309 109.06C215.309 109.06 229.233 111.851 240.691 105.298C252.149 98.7437 256.801 85.3273 256.801 85.3273C256.801 85.3273 242.878 82.5354 231.42 89.0892Z" fill="#8B726D"/>
<path d="M263.539 143.181C250.534 140.927 241.584 129.902 241.584 129.902C241.584 129.902 253.721 122.53 266.728 124.778C279.734 127.027 288.683 138.058 288.683 138.058C288.683 138.058 276.545 145.434 263.539 143.181Z" fill="#B5BF96"/>
<path d="M235.349 93.2976C228.83 104.774 215.427 109.468 215.427 109.468C215.427 109.468 212.595 95.5525 219.11 84.0733C225.625 72.5942 239.032 67.9029 239.032 67.9029C239.032 67.9029 241.868 81.8207 235.349 93.2976Z" fill="#7B8558"/>
<path d="M246.979 106.445C248.343 119.574 240.162 131.182 240.162 131.182C240.162 131.182 229.771 121.502 228.403 108.374C227.035 95.2464 235.22 83.6376 235.22 83.6376C235.22 83.6376 245.616 93.3163 246.979 106.445Z" fill="#8F996D"/>
<path d="M266.614 121.344C256.272 129.545 242.087 128.88 242.087 128.88C242.087 128.88 244.67 114.915 255.013 106.714C265.356 98.5126 279.541 99.1781 279.541 99.1781C279.541 99.1781 276.957 113.142 266.614 121.344Z" fill="#8F996D"/>
<path d="M215.839 83.018C220.059 95.5244 214.635 108.649 214.635 108.649C214.635 108.649 202.367 101.495 198.148 88.9878C193.928 76.4804 199.352 63.3569 199.352 63.3569C199.352 63.3569 211.619 70.5115 215.839 83.018Z" fill="#8F996D"/>
<path d="M225.128 109.416C235.83 117.142 239.042 130.975 239.042 130.975C239.042 130.975 224.901 132.282 214.199 124.555C203.497 116.828 200.285 102.996 200.285 102.996C200.285 102.996 214.426 101.69 225.128 109.416Z" fill="#686E54"/>
<path d="M241.336 105.303C235.819 117.295 239.829 130.919 239.829 130.919C239.829 130.919 252.783 125.099 258.299 113.107C263.816 101.115 259.806 87.4929 259.806 87.4929C259.806 87.4929 246.853 93.3114 241.336 105.303Z" fill="#4C3A36"/>
<path d="M192.194 101.382C201.614 110.629 215.79 111.463 215.79 111.463C215.79 111.463 214.695 97.3048 205.276 88.0572C195.856 78.8097 181.681 77.9759 181.681 77.9759C181.681 77.9759 182.775 92.1342 192.194 101.382Z" fill="#4C3A36"/>
<path d="M236.498 153.979C239.698 166.786 251.349 174.904 251.349 174.904C251.349 174.904 257.813 162.26 254.614 149.453C251.415 136.647 239.764 128.529 239.764 128.529C239.764 128.529 233.299 141.173 236.498 153.979Z" fill="#655653"/>
<path d="M527.416 93.9231C516.553 96.2748 508.668 105.677 508.668 105.677C508.668 105.677 518.393 111.266 529.255 108.914C540.118 106.563 548.003 97.161 548.003 97.161C548.003 97.161 538.278 91.5714 527.416 93.9231Z" fill="#4C3A36"/>
<path d="M478.058 92.4885C475.609 103.257 481.164 112.956 481.164 112.956C481.164 112.956 490.691 105.197 493.141 94.4282C495.59 83.6596 490.035 73.9609 490.035 73.9609C490.035 73.9609 480.508 81.7199 478.058 92.4885Z" fill="#8B726D"/>
<path d="M529.055 98.187C520.372 105.61 508.626 106.026 508.626 106.026C508.626 106.026 510.96 94.4064 519.641 86.9806C528.321 79.5547 540.07 79.1414 540.07 79.1414C540.07 79.1414 537.739 90.764 529.055 98.187Z" fill="#B5BF96"/>
<path d="M482.83 91.9926C486.155 101.957 481.479 113.081 481.479 113.081C481.479 113.081 471.412 108.049 468.084 98.0868C464.755 88.1245 469.435 76.9985 469.435 76.9985C469.435 76.9985 479.506 82.0285 482.83 91.9926Z" fill="#7B8558"/>
<path d="M497.375 90.8674C506.136 96.4739 508.607 107.593 508.607 107.593C508.607 107.593 496.871 109.622 488.107 104.02C479.343 98.4166 476.875 87.2934 476.875 87.2934C476.875 87.2934 488.613 85.2608 497.375 90.8674Z" fill="#8F996D"/>
<path d="M517.485 85.3538C516.666 96.2056 508.287 105.19 508.287 105.19C508.287 105.19 501.235 96.5785 502.054 85.7261C502.874 74.8737 511.253 65.8902 511.253 65.8902C511.253 65.8902 518.304 74.5021 517.485 85.3538Z" fill="#8F996D"/>
<path d="M465.602 99.7115C475.591 103.134 480.535 113.195 480.535 113.195C480.535 113.195 469.282 117.707 459.293 114.283C449.304 110.86 444.361 100.8 444.361 100.8C444.361 100.8 455.614 96.2889 465.602 99.7115Z" fill="#8F996D"/>
<path d="M486.9 106.686C497.621 103.485 507.851 108.227 507.851 108.227C507.851 108.227 500.698 118.158 489.976 121.358C479.254 124.558 469.025 119.817 469.025 119.817C469.025 119.817 476.179 109.886 486.9 106.686Z" fill="#686E54"/>
<path d="M493.507 94.0074C497.709 103.568 508.259 107.682 508.259 107.682C508.259 107.682 511.997 96.295 507.795 86.7343C503.593 77.1735 493.043 73.0602 493.043 73.0602C493.043 73.0602 489.305 84.4466 493.507 94.0074Z" fill="#4C3A36"/>
<path d="M463.494 124.33C474.421 122.725 482.898 113.83 482.898 113.83C482.898 113.83 473.66 107.538 462.733 109.143C451.807 110.747 443.33 119.642 443.33 119.642C443.33 119.642 452.568 125.935 463.494 124.33Z" fill="#4C3A36"/>
<path d="M520.431 121.289C530.028 125.53 541.522 121.901 541.522 121.901C541.522 121.901 537.456 111.395 527.858 107.153C518.261 102.912 506.768 106.541 506.768 106.541C506.768 106.541 510.833 117.047 520.431 121.289Z" fill="#655653"/>
<path d="M542.781 170.342C543.179 159.508 535.769 151.207 535.769 151.207C535.769 151.207 527.714 160.471 527.316 171.305C526.917 182.139 534.327 190.44 534.327 190.44C534.327 190.44 542.382 181.176 542.781 170.342Z" fill="#4C3A36"/>
<path d="M556.718 121.799C546.564 118.775 535.453 123.699 535.453 123.699C535.453 123.699 540.803 133.524 550.957 136.547C561.11 139.571 572.221 134.648 572.221 134.648C572.221 134.648 566.871 124.823 556.718 121.799Z" fill="#8B726D"/>
<path d="M538.099 171.716C532.872 162.741 535.431 151.146 535.431 151.146C535.431 151.146 546.465 154.103 551.696 163.076C556.927 172.048 554.365 183.646 554.365 183.646C554.365 183.646 543.326 180.691 538.099 171.716Z" fill="#B5BF96"/>
<path d="M556.005 126.528C545.194 129.239 535.249 124.002 535.249 124.002C535.249 124.002 542.833 114.37 553.643 111.656C564.454 108.941 574.4 114.182 574.4 114.182C574.4 114.182 566.817 123.818 556.005 126.528Z" fill="#7B8558"/>
<path d="M553.447 140.92C545.618 149.234 533.867 151.038 533.867 151.038C533.867 151.038 534.81 139.361 542.636 131.045C550.461 122.729 562.215 120.927 562.215 120.927C562.215 120.927 561.276 132.606 553.447 140.92Z" fill="#8F996D"/>
<path d="M553.869 161.045C543.22 159.623 536.353 150.859 536.353 150.859C536.353 150.859 546.755 144.399 557.406 145.822C568.056 147.244 574.922 156.008 574.922 156.008C574.922 156.008 564.519 162.466 553.869 161.045Z" fill="#8F996D"/>
<path d="M552.646 109.119C546.692 118.765 535.374 123.065 535.374 123.065C535.374 123.065 533.71 111.724 539.665 102.078C545.62 92.431 556.938 88.1313 556.938 88.1313C556.938 88.1313 558.601 99.4727 552.646 109.119Z" fill="#8F996D"/>
<path d="M540.274 129.705C540.761 140.448 533.425 150.258 533.425 150.258C533.425 150.258 525.301 142.648 524.815 131.904C524.329 121.16 531.664 111.352 531.664 111.352C531.664 111.352 539.788 118.962 540.274 129.705Z" fill="#686E54"/>
<path d="M551.285 136.932C540.655 140.53 533.867 150.69 533.867 150.69C533.867 150.69 544.313 155.018 554.943 151.42C565.573 147.823 572.36 137.663 572.36 137.663C572.36 137.663 561.915 133.334 551.285 136.932Z" fill="#4C3A36"/>
<path d="M528.549 105.647C527.387 116.502 534.139 125.358 534.139 125.358C534.139 125.358 542.775 116.613 543.937 105.758C545.099 94.9028 538.347 86.0482 538.347 86.0482C538.347 86.0482 529.711 94.7919 528.549 105.647Z" fill="#4C3A36"/>
<path d="M517.17 161.91C510.496 171.124 511.215 182.653 511.215 182.653C511.215 182.653 522.757 179.243 529.431 170.028C536.106 160.814 535.386 149.285 535.386 149.285C535.386 149.285 523.845 152.695 517.17 161.91Z" fill="#655653"/>
<path d="M442.246 137.872C453.157 136.018 461.442 126.95 461.442 126.95C461.442 126.95 452.037 120.887 441.125 122.741C430.214 124.595 421.93 133.663 421.93 133.663C421.93 133.663 431.334 139.726 442.246 137.872Z" fill="#4C3A36"/>
<path d="M491.252 141.611C494.197 130.919 489.132 120.926 489.132 120.926C489.132 120.926 479.293 128.269 476.348 138.962C473.402 149.655 478.467 159.647 478.467 159.647C478.467 159.647 488.306 152.304 491.252 141.611Z" fill="#8B726D"/>
<path d="M440.817 133.516C449.802 126.472 461.5 126.601 461.5 126.601C461.5 126.601 458.63 138.154 449.647 145.201C440.665 152.249 428.965 152.117 428.965 152.117C428.965 152.117 431.832 140.561 440.817 133.516Z" fill="#B5BF96"/>
<path d="M486.484 141.887C483.65 131.732 488.825 120.786 488.825 120.786C488.825 120.786 498.596 126.305 501.434 136.458C504.272 146.611 499.092 157.558 499.092 157.558C499.092 157.558 489.318 152.041 486.484 141.887Z" fill="#7B8558"/>
<path d="M471.969 142.338C463.523 136.303 461.593 125.029 461.593 125.029C461.593 125.029 473.358 123.54 481.806 129.571C490.255 135.602 492.182 146.88 492.182 146.88C492.182 146.88 480.415 148.373 471.969 142.338Z" fill="#8F996D"/>
<path d="M451.713 146.934C453.041 136.082 461.798 127.456 461.798 127.456C461.798 127.456 468.402 136.427 467.073 147.28C465.745 158.132 456.989 166.757 456.989 166.757C456.989 166.757 450.386 157.786 451.713 146.934Z" fill="#8F996D"/>
<path d="M503.978 134.943C494.208 131.043 489.769 120.716 489.769 120.716C489.769 120.716 501.171 116.712 510.941 120.613C520.71 124.514 525.149 134.84 525.149 134.84C525.149 134.84 513.747 138.843 503.978 134.943Z" fill="#8F996D"/>
<path d="M483.132 126.952C472.321 129.664 462.375 124.429 462.375 124.429C462.375 124.429 469.957 114.795 480.769 112.084C491.58 109.372 501.526 114.606 501.526 114.606C501.526 114.606 493.943 124.239 483.132 126.952Z" fill="#686E54"/>
<path d="M475.964 139.367C472.238 129.577 461.943 124.957 461.943 124.957C461.943 124.957 457.688 136.21 461.413 146C465.139 155.791 475.433 160.41 475.433 160.41C475.433 160.41 479.689 149.158 475.964 139.367Z" fill="#4C3A36"/>
<path d="M507.239 110.335C496.299 111.437 487.45 119.968 487.45 119.968C487.45 119.968 496.337 126.713 507.277 125.612C518.217 124.511 527.065 115.98 527.065 115.98C527.065 115.98 518.179 109.234 507.239 110.335Z" fill="#4C3A36"/>
<path d="M450.486 110.734C441.144 106.03 429.544 109.137 429.544 109.137C429.544 109.137 433.09 119.87 442.432 124.574C451.774 129.278 463.372 126.171 463.372 126.171C463.372 126.171 459.827 115.438 450.486 110.734Z" fill="#655653"/>
<path d="M503.951 143.812C505.924 154.243 515.134 160.574 515.134 160.574C515.134 160.574 521.146 149.992 519.173 139.561C517.201 129.129 507.991 122.799 507.991 122.799C507.991 122.799 501.979 133.38 503.951 143.812Z" fill="#4C3A36"/>
<path d="M500.663 193.167C511.457 193.867 521.468 186.772 521.468 186.772C521.468 186.772 513.979 178.543 503.185 177.843C492.392 177.143 482.382 184.237 482.382 184.237C482.382 184.237 489.869 192.467 500.663 193.167Z" fill="#8B726D"/>
<path d="M508.322 141.492C515.502 148.936 515.485 160.559 515.485 160.559C515.485 160.559 503.827 160.111 496.644 152.67C489.462 145.229 489.481 133.603 489.481 133.603C489.481 133.603 501.143 134.047 508.322 141.492Z" fill="#B5BF96"/>
<path d="M500.339 188.498C510.535 183.581 521.605 186.439 521.605 186.439C521.605 186.439 516.144 197.27 505.95 202.191C495.756 207.111 484.685 204.25 484.685 204.25C484.685 204.25 490.144 193.415 500.339 188.498Z" fill="#7B8558"/>
<path d="M499.744 174.204C505.737 164.579 517.069 160.325 517.069 160.325C517.069 160.325 518.683 171.678 512.693 181.305C506.703 190.932 495.368 195.184 495.368 195.184C495.368 195.184 493.751 183.829 499.744 174.204Z" fill="#8F996D"/>
<path d="M494.92 155.078C505.858 154.142 514.627 161.032 514.627 161.032C514.627 161.032 505.66 169.44 494.722 170.376C483.783 171.312 475.014 164.423 475.014 164.423C475.014 164.423 483.982 156.015 494.92 155.078Z" fill="#8F996D"/>
<path d="M507.5 204.398C511.332 193.904 521.685 187.36 521.685 187.36C521.685 187.36 525.826 197.831 521.994 208.326C518.162 218.82 507.809 225.364 507.809 225.364C507.809 225.364 503.668 214.892 507.5 204.398Z" fill="#8F996D"/>
<path d="M515.343 182.075C512.507 171.922 517.681 160.975 517.681 160.975C517.681 160.975 527.453 166.491 530.288 176.646C533.123 186.8 527.95 197.746 527.95 197.746C527.95 197.746 518.178 192.229 515.343 182.075Z" fill="#686E54"/>
<path d="M502.774 177.546C512.594 171.821 517.145 160.657 517.145 160.657C517.145 160.657 505.775 158.775 495.954 164.5C486.134 170.225 481.583 181.389 481.583 181.389C481.583 181.389 492.953 183.272 502.774 177.546Z" fill="#4C3A36"/>
<path d="M532.305 202.523C531.09 191.907 522.415 184.906 522.415 184.906C522.415 184.906 515.711 195.116 516.926 205.732C518.141 216.347 526.816 223.348 526.816 223.348C526.816 223.348 533.521 213.139 532.305 202.523Z" fill="#4C3A36"/>
<path d="M531.352 146.347C535.997 136.11 532.757 125.256 532.757 125.256C532.757 125.256 521.986 130.999 517.341 141.236C512.696 151.473 515.937 162.326 515.937 162.326C515.937 162.326 526.708 156.583 531.352 146.347Z" fill="#655653"/>
<path d="M542.248 230.389C544.987 219.662 539.716 209.789 539.716 209.789C539.716 209.789 530.005 217.308 527.266 228.035C524.527 238.763 529.798 248.635 529.798 248.635C529.798 248.635 539.509 241.116 542.248 230.389Z" fill="#4C3A36"/>
<path d="M566.129 184.93C557.088 179.736 545.402 182.268 545.402 182.268C545.402 182.268 548.374 193.22 557.415 198.414C566.456 203.608 578.141 201.076 578.141 201.076C578.141 201.076 575.17 190.124 566.129 184.93Z" fill="#8B726D"/>
<path d="M537.477 230.756C534.438 220.679 539.406 209.656 539.406 209.656C539.406 209.656 549.303 214.972 552.346 225.048C555.39 235.124 550.418 246.149 550.418 246.149C550.418 246.149 540.517 240.834 537.477 230.756Z" fill="#B5BF96"/>
<path d="M564.419 189.497C553.501 189.884 545.141 182.526 545.141 182.526C545.141 182.526 554.482 174.539 565.4 174.147C576.317 173.755 584.677 181.117 584.677 181.117C584.677 181.117 575.336 189.109 564.419 189.497Z" fill="#7B8558"/>
<path d="M558.842 203.312C549.554 209.931 537.936 209.213 537.936 209.213C537.936 209.213 541.378 197.761 550.664 191.139C559.95 184.517 571.57 185.238 571.57 185.238C571.57 185.238 568.13 196.693 558.842 203.312Z" fill="#8F996D"/>
<path d="M554.865 223.487C545.001 219.785 540.35 209.567 540.35 209.567C540.35 209.567 551.692 205.35 561.556 209.052C571.42 212.755 576.071 222.972 576.071 222.972C576.071 222.972 564.728 227.189 554.865 223.487Z" fill="#8F996D"/>
<path d="M564.999 171.402C557.212 179.753 545.464 181.619 545.464 181.619C545.464 181.619 546.343 169.943 554.132 161.592C561.921 153.241 573.667 151.376 573.667 151.376C573.667 151.376 572.787 163.051 564.999 171.402Z" fill="#8F996D"/>
<path d="M548.7 189.296C546.826 200.122 537.684 208.339 537.684 208.339C537.684 208.339 531.579 199.003 533.454 188.176C535.328 177.35 544.47 169.133 544.47 169.133C544.47 169.133 550.573 178.47 548.7 189.296Z" fill="#686E54"/>
<path d="M557.645 198.868C546.708 200.18 538.011 208.866 538.011 208.866C538.011 208.866 547.048 215.424 557.985 214.112C568.922 212.8 577.618 204.114 577.618 204.114C577.618 204.114 568.582 197.556 557.645 198.868Z" fill="#4C3A36"/>
<path d="M542.737 162.772C539.264 173.357 543.786 183.642 543.786 183.642C543.786 183.642 553.939 176.766 557.412 166.181C560.885 155.596 556.362 145.312 556.362 145.312C556.362 145.312 546.21 152.187 542.737 162.772Z" fill="#4C3A36"/>
<path d="M519.62 216.484C511.238 224.25 509.416 235.91 509.416 235.91C509.416 235.91 521.183 234.98 529.565 227.214C537.947 219.449 539.768 207.789 539.768 207.789C539.768 207.789 528.002 208.719 519.62 216.484Z" fill="#655653"/>
<path d="M128.236 66.1733C130.16 65.6609 131.958 64.7681 131.898 63.8849C131.828 62.8357 129.158 62.1327 126.854 62.0257C128.591 60.6523 130.188 58.7537 129.7 57.895C129.251 57.1056 127.163 57.4114 125.237 58.1067C126.377 56.4598 127.178 54.6041 126.568 53.9691C125.807 53.178 123.109 54.5434 121.267 56.0527C121.626 53.7014 121.444 50.7334 120.401 50.4649C119.528 50.2402 118.29 51.9667 117.442 53.8474C117.067 51.8738 116.307 50 115.431 50C114.183 50 113.172 53.8023 113.172 56.2794C113.172 56.4194 113.175 56.5513 113.182 56.6772C113.056 56.5304 112.913 56.3771 112.749 56.2165C110.99 54.4907 107.586 52.5751 106.716 53.4798C106.106 54.1148 106.907 55.9705 108.047 57.6174C106.121 56.9221 104.033 56.6163 103.584 57.4057C102.981 58.4664 105.559 61.1143 107.654 62.3984C107.529 62.3831 107.396 62.3702 107.255 62.3605C104.809 62.1918 100.986 62.953 100.901 64.2111C100.842 65.0943 102.64 65.9871 104.563 66.4995C102.649 67.2268 100.86 68.3568 101.022 69.2523C101.219 70.3392 104.225 70.7196 106.588 70.4969C104.823 72.2086 102.908 75.275 103.707 76.1736C104.293 76.8322 106.18 76.1505 107.883 75.1134C107.066 77.008 106.621 79.092 107.37 79.5982C108.36 80.2672 111.074 77.9389 112.506 75.9355C112.36 78.3864 112.94 81.7535 114.092 81.8864C114.962 81.9868 115.927 80.2122 116.521 78.2942C117.153 80.2601 118.188 82.1173 119.081 81.9942C120.242 81.8341 120.748 78.3828 120.532 75.9301C122.008 77.851 124.492 79.9055 125.429 79.272C126.178 78.7658 125.734 76.6818 124.917 74.7872C126.62 75.8243 128.507 76.506 129.093 75.8474C129.892 74.9487 127.977 71.8824 126.211 70.1707C128.575 70.3934 131.581 70.013 131.778 68.9261C131.94 68.0306 130.151 66.9006 128.236 66.1733ZM116.975 69.2523C116.48 69.3205 117.119 69.2058 116.776 69.4544C116.41 69.0881 116.693 69.9209 116.1 69.8525C115.436 69.7759 115.547 69.0672 115.087 69.4544C114.918 68.9815 115.231 69.2521 114.749 68.9261C114.334 68.6458 114.512 68.4748 114.092 68.4305C114.059 67.9116 114.81 68.8791 114.411 68.4305C114.157 68.1444 114.139 68.2602 113.856 68.0892C114.264 67.5879 113.982 68.0048 113.856 67.3096C113.766 66.8137 114.673 66.8352 114.411 66.4995C114.757 66.1142 113.816 66.6279 113.856 66.0261C113.901 65.3691 115.462 66.1436 115.087 65.7C116.057 65.8247 114.314 65.587 114.749 64.8218C114.997 64.3846 114.734 64.9224 114.749 64.4956C115.259 64.4271 115.346 64.9283 115.762 64.4956C116.118 64.126 116.662 65.4386 116.776 65.0174C117.183 65.3631 115.908 64.4956 116.521 64.4956C117.118 64.4956 116.571 65.1439 116.975 64.8218C117.288 65.1081 116.491 64.0867 116.975 64.2111C117.436 64.3299 116.717 64.4147 117.113 64.3348C117.258 64.6686 117.148 63.9056 117.442 64.2111C117.857 64.6438 116.603 64.2664 117.113 64.3348C117.129 64.7617 117.878 63.774 118.127 64.2111C118.419 64.7257 116.311 65.5015 116.776 65.7C116.721 65.9989 116.951 66.0062 116.975 66.3523C117.015 66.9541 117.443 66.3386 117.789 66.7239C117.528 67.0596 118.892 66.8137 118.802 67.3096C118.676 68.0048 117.719 67.2466 118.127 67.7479C117.844 67.9189 119.619 68.1444 119.364 68.4305C118.965 68.8791 119.114 68.2529 119.081 68.7718C118.661 68.8161 118.879 68.1502 118.465 68.4305C117.898 68.8133 117.88 68.8383 117.789 69.4544C117.364 69.2461 117.524 69.1765 116.975 69.2523Z" fill="#D58888"/>
<path d="M116.9 70C119.109 70 120.9 68.433 120.9 66.5C120.9 64.567 119.109 63 116.9 63C114.691 63 112.9 64.567 112.9 66.5C112.9 68.433 114.691 70 116.9 70Z" fill="#3F3D56"/>
<path d="M150.236 52.1733C152.16 51.6609 153.958 50.7681 153.898 49.8849C153.828 48.8357 151.158 48.1327 148.854 48.0257C150.591 46.6523 152.188 44.7537 151.7 43.895C151.251 43.1056 149.163 43.4114 147.237 44.1067C148.377 42.4598 149.178 40.6041 148.568 39.9691C147.807 39.178 145.109 40.5434 143.267 42.0527C143.626 39.7014 143.444 36.7334 142.401 36.4649C141.528 36.2402 140.29 37.9667 139.442 39.8474C139.067 37.8738 138.307 36 137.431 36C136.183 36 135.172 39.8023 135.172 42.2794C135.172 42.4194 135.175 42.5513 135.182 42.6772C135.056 42.5304 134.913 42.3771 134.749 42.2165C132.99 40.4907 129.586 38.5751 128.716 39.4798C128.106 40.1148 128.907 41.9705 130.047 43.6174C128.121 42.9221 126.033 42.6163 125.584 43.4057C124.981 44.4664 127.559 47.1143 129.654 48.3984C129.529 48.3831 129.396 48.3702 129.255 48.3605C126.809 48.1918 122.986 48.953 122.901 50.2111C122.842 51.0943 124.64 51.9871 126.563 52.4995C124.649 53.2268 122.86 54.3568 123.022 55.2523C123.219 56.3392 126.225 56.7196 128.588 56.4969C126.823 58.2086 124.908 61.275 125.707 62.1736C126.293 62.8322 128.18 62.1505 129.883 61.1134C129.066 63.008 128.621 65.092 129.37 65.5982C130.36 66.2672 133.074 63.9389 134.506 61.9355C134.36 64.3864 134.94 67.7535 136.092 67.8864C136.962 67.9868 137.927 66.2122 138.521 64.2942C139.153 66.2601 140.188 68.1173 141.081 67.9942C142.242 67.8341 142.748 64.3828 142.532 61.9301C144.008 63.851 146.492 65.9055 147.429 65.272C148.178 64.7658 147.734 62.6818 146.917 60.7872C148.62 61.8243 150.507 62.506 151.093 61.8474C151.892 60.9487 149.977 57.8824 148.211 56.1707C150.575 56.3934 153.581 56.013 153.778 54.9261C153.94 54.0306 152.151 52.9006 150.236 52.1733ZM138.975 55.2523C138.48 55.3205 139.119 55.2058 138.776 55.4544C138.41 55.0881 138.693 55.9209 138.1 55.8525C137.436 55.7759 137.547 55.0672 137.087 55.4544C136.918 54.9815 137.231 55.2521 136.749 54.9261C136.334 54.6458 136.512 54.4748 136.092 54.4305C136.059 53.9116 136.81 54.8791 136.411 54.4305C136.157 54.1444 136.139 54.2602 135.856 54.0892C136.264 53.5879 135.982 54.0048 135.856 53.3096C135.766 52.8137 136.673 52.8352 136.411 52.4995C136.757 52.1142 135.816 52.6279 135.856 52.0261C135.901 51.3691 137.462 52.1436 137.087 51.7C138.057 51.8247 136.314 51.587 136.749 50.8218C136.997 50.3846 136.734 50.9224 136.749 50.4956C137.259 50.4271 137.346 50.9283 137.762 50.4956C138.118 50.126 138.662 51.4386 138.776 51.0174C139.183 51.3631 137.908 50.4956 138.521 50.4956C139.118 50.4956 138.571 51.1439 138.975 50.8218C139.288 51.1081 138.491 50.0867 138.975 50.2111C139.436 50.3299 138.717 50.4147 139.113 50.3348C139.258 50.6686 139.148 49.9056 139.442 50.2111C139.857 50.6438 138.603 50.2664 139.113 50.3348C139.129 50.7617 139.878 49.774 140.127 50.2111C140.419 50.7257 138.311 51.5015 138.776 51.7C138.721 51.9989 138.951 52.0062 138.975 52.3523C139.015 52.9541 139.443 52.3386 139.789 52.7239C139.528 53.0596 140.892 52.8137 140.802 53.3096C140.676 54.0048 139.719 53.2466 140.127 53.7479C139.844 53.9189 141.619 54.1444 141.364 54.4305C140.965 54.8791 141.114 54.2529 141.081 54.7718C140.661 54.8161 140.879 54.1502 140.465 54.4305C139.898 54.8133 139.88 54.8383 139.789 55.4544C139.364 55.2461 139.524 55.1765 138.975 55.2523Z" fill="#FCBEB3"/>
<path d="M138.9 56C141.109 56 142.9 54.433 142.9 52.5C142.9 50.567 141.109 49 138.9 49C136.691 49 134.9 50.567 134.9 52.5C134.9 54.433 136.691 56 138.9 56Z" fill="#3F3D56"/>
<path d="M102.764 117.26C104.935 116.682 106.966 115.674 106.898 114.677C106.818 113.492 103.804 112.698 101.203 112.577C103.165 111.027 104.967 108.883 104.416 107.914C103.909 107.022 101.552 107.368 99.3768 108.153C100.664 106.293 101.569 104.198 100.88 103.481C100.021 102.588 96.9745 104.13 94.8952 105.834C95.3 103.179 95.0954 99.828 93.917 99.5249C92.9311 99.2712 91.5339 101.221 90.576 103.344C90.1526 101.116 89.2956 99 88.3064 99C86.8973 99 85.755 103.293 85.755 106.09C85.755 106.248 85.7591 106.397 85.7662 106.539C85.6248 106.373 85.4627 106.2 85.2779 106.019C83.2922 104.07 79.4486 101.907 78.4669 102.929C77.7777 103.646 78.6826 105.741 79.9697 107.6C77.7948 106.815 75.4375 106.47 74.9307 107.361C74.2498 108.559 77.1603 111.548 79.526 112.998C79.3838 112.981 79.2344 112.966 79.0754 112.955C76.3139 112.765 71.9975 113.624 71.9015 115.045C71.8342 116.042 73.8647 117.05 76.0361 117.628C73.8743 118.45 71.8545 119.725 72.0378 120.736C72.2603 121.964 75.654 122.393 78.3223 122.142C76.3289 124.074 74.1673 127.536 75.0694 128.551C75.7305 129.294 77.8608 128.525 79.7843 127.354C78.8611 129.493 78.3597 131.846 79.2053 132.417C80.3227 133.173 83.3873 130.544 85.003 128.282C84.8384 131.049 85.4937 134.851 86.7939 135.001C87.7767 135.114 88.8658 133.111 89.5366 130.945C90.2499 133.165 91.4192 135.261 92.4271 135.122C93.7378 134.942 94.3092 131.045 94.0647 128.276C95.7314 130.445 98.5363 132.764 99.5945 132.049C100.44 131.478 99.9387 129.125 99.0155 126.986C100.939 128.156 103.069 128.926 103.73 128.183C104.632 127.168 102.471 123.706 100.477 121.773C103.146 122.025 106.539 121.595 106.762 120.368C106.945 119.357 104.925 118.081 102.764 117.26ZM90.0489 120.736C89.4908 120.813 90.2122 120.684 89.8241 120.965C89.4118 120.551 89.731 121.491 89.0614 121.414C88.3116 121.328 88.4368 120.527 87.9173 120.965C87.7272 120.431 88.0805 120.736 87.5359 120.368C87.0677 120.052 87.2686 119.859 86.7939 119.809C86.7568 119.223 87.6049 120.315 87.1546 119.809C86.8674 119.486 86.8468 119.616 86.5279 119.423C86.9879 118.857 86.6703 119.328 86.5279 118.543C86.4264 117.983 87.4497 118.007 87.1546 117.628C87.5447 117.193 86.4821 117.773 86.5279 117.094C86.578 116.352 88.3411 117.227 87.9173 116.726C89.0124 116.867 87.0447 116.598 87.5359 115.734C87.8165 115.241 87.5188 115.848 87.5359 115.366C88.1119 115.289 88.2105 115.854 88.68 115.366C89.0811 114.949 89.696 116.431 89.8241 115.955C90.2837 116.345 88.8448 115.366 89.5366 115.366C90.2106 115.366 89.5928 116.098 90.0489 115.734C90.403 116.058 89.503 114.904 90.0489 115.045C90.5701 115.179 89.7583 115.275 90.2055 115.184C90.3687 115.561 90.2445 114.7 90.576 115.045C91.0455 115.533 89.6296 115.107 90.2055 115.184C90.2226 115.666 91.069 114.551 91.3496 115.045C91.6799 115.626 89.2994 116.502 89.8241 116.726C89.7629 117.063 90.0225 117.072 90.0489 117.462C90.0948 118.142 90.5781 117.447 90.9682 117.882C90.6731 118.261 92.2138 117.983 92.1123 118.543C91.97 119.328 90.8896 118.472 91.3496 119.038C91.0308 119.231 93.034 119.486 92.7468 119.809C92.2965 120.315 92.4642 119.608 92.4271 120.194C91.9524 120.244 92.1992 119.492 91.731 119.809C91.0914 120.241 91.0705 120.269 90.9682 120.965C90.4883 120.729 90.6695 120.651 90.0489 120.736Z" fill="#FB9684"/>
<path d="M89.9644 121.581C92.4586 121.581 94.4805 119.811 94.4805 117.629C94.4805 115.447 92.4586 113.677 89.9644 113.677C87.4702 113.677 85.4482 115.447 85.4482 117.629C85.4482 119.811 87.4702 121.581 89.9644 121.581Z" fill="#3F3D56"/>
<path d="M535.236 125.173C537.16 124.661 538.958 123.768 538.898 122.885C538.828 121.836 536.158 121.133 533.854 121.026C535.591 119.652 537.188 117.754 536.7 116.895C536.251 116.106 534.163 116.411 532.237 117.107C533.377 115.46 534.178 113.604 533.568 112.969C532.807 112.178 530.109 113.543 528.267 115.053C528.626 112.701 528.444 109.733 527.401 109.465C526.528 109.24 525.29 110.967 524.442 112.847C524.067 110.874 523.307 109 522.431 109C521.183 109 520.172 112.802 520.172 115.279C520.172 115.419 520.175 115.551 520.182 115.677C520.056 115.53 519.913 115.377 519.749 115.216C517.99 113.491 514.586 111.575 513.716 112.48C513.106 113.115 513.907 114.971 515.047 116.617C513.121 115.922 511.033 115.616 510.584 116.406C509.981 117.466 512.559 120.114 514.654 121.398C514.529 121.383 514.396 121.37 514.255 121.36C511.809 121.192 507.986 121.953 507.901 123.211C507.842 124.094 509.64 124.987 511.563 125.5C509.649 126.227 507.86 127.357 508.022 128.252C508.219 129.339 511.225 129.72 513.588 129.497C511.823 131.209 509.908 134.275 510.707 135.174C511.293 135.832 513.18 135.151 514.883 134.113C514.066 136.008 513.621 138.092 514.37 138.598C515.36 139.267 518.074 136.939 519.506 134.936C519.36 137.386 519.94 140.754 521.092 140.886C521.962 140.987 522.927 139.212 523.521 137.294C524.153 139.26 525.188 141.117 526.081 140.994C527.242 140.834 527.748 137.383 527.532 134.93C529.008 136.851 531.492 138.905 532.429 138.272C533.178 137.766 532.734 135.682 531.917 133.787C533.62 134.824 535.507 135.506 536.093 134.847C536.892 133.949 534.977 130.882 533.211 129.171C535.575 129.393 538.581 129.013 538.778 127.926C538.94 127.031 537.151 125.901 535.236 125.173ZM523.975 128.252C523.48 128.32 524.119 128.206 523.776 128.454C523.41 128.088 523.693 128.921 523.1 128.853C522.436 128.776 522.547 128.067 522.087 128.454C521.918 127.981 522.231 128.252 521.749 127.926C521.334 127.646 521.512 127.475 521.092 127.43C521.059 126.912 521.81 127.879 521.411 127.43C521.157 127.144 521.139 127.26 520.856 127.089C521.264 126.588 520.982 127.005 520.856 126.31C520.766 125.814 521.673 125.835 521.411 125.5C521.757 125.114 520.816 125.628 520.856 125.026C520.901 124.369 522.462 125.144 522.087 124.7C523.057 124.825 521.314 124.587 521.749 123.822C521.997 123.385 521.734 123.922 521.749 123.496C522.259 123.427 522.346 123.928 522.762 123.496C523.118 123.126 523.662 124.439 523.776 124.017C524.183 124.363 522.908 123.496 523.521 123.496C524.118 123.496 523.571 124.144 523.975 123.822C524.288 124.108 523.491 123.087 523.975 123.211C524.436 123.33 523.717 123.415 524.113 123.335C524.258 123.669 524.148 122.906 524.442 123.211C524.857 123.644 523.603 123.266 524.113 123.335C524.129 123.762 524.878 122.774 525.127 123.211C525.419 123.726 523.311 124.502 523.776 124.7C523.721 124.999 523.951 125.006 523.975 125.352C524.015 125.954 524.443 125.339 524.789 125.724C524.528 126.06 525.892 125.814 525.802 126.31C525.676 127.005 524.719 126.247 525.127 126.748C524.844 126.919 526.619 127.144 526.364 127.43C525.965 127.879 526.114 127.253 526.081 127.772C525.661 127.816 525.879 127.15 525.465 127.43C524.898 127.813 524.88 127.838 524.789 128.454C524.364 128.246 524.524 128.177 523.975 128.252Z" fill="#FCA3A3"/>
<path d="M523.9 129C526.109 129 527.9 127.433 527.9 125.5C527.9 123.567 526.109 122 523.9 122C521.691 122 519.9 123.567 519.9 125.5C519.9 127.433 521.691 129 523.9 129Z" fill="#3F3D56"/>
</svg>
